<svg xmlns="http://www.w3.org/2000/svg" width="75" height="75" viewBox="0 0 75 75"><g><g><path fill="#0af" d="M19.565 52.174a1.63 1.63 0 1 1 0 3.26H8.372C14.414 65.22 25.228 71.74 37.5 71.74c1.08 0 2.114-.041 3.127-.124a1.631 1.631 0 1 1 .268 3.251c-1.106.09-2.232.134-3.395.134-12.823 0-24.212-6.512-30.978-16.435v9.913a1.63 1.63 0 1 1-3.261 0V53.804c0-.9.73-1.63 1.63-1.63zm55.088-19.775c.216 1.66.347 3.374.347 5.101 0 12.917-6.564 24.236-16.48 30.978h8.328a1.63 1.63 0 1 1 0 3.261H52.174c-.9 0-1.63-.73-1.63-1.63V55.435a1.63 1.63 0 1 1 3.26 0v12.104C64.456 61.726 71.74 50.526 71.74 37.5c0-1.56-.12-3.137-.322-4.681a1.63 1.63 0 1 1 3.236-.42zM21.196 3.26c.9 0 1.63.73 1.63 1.63v14.674a1.63 1.63 0 1 1-3.26 0V8.302A34.26 34.26 0 0 0 3.26 37.5c0 1.639.094 3.173.283 4.69a1.63 1.63 0 1 1-3.235.402A40.917 40.917 0 0 1 0 37.5C0 24.715 6.439 13.293 16.343 6.522H6.522a1.63 1.63 0 1 1 0-3.261zm47.282 13.218V6.522a1.63 1.63 0 1 1 3.261 0v14.674c0 .9-.73 1.63-1.63 1.63H55.435a1.63 1.63 0 1 1 0-3.26h11.164C60.567 9.805 49.852 3.26 37.5 3.26c-1.549 0-3.115.128-4.672.34A1.631 1.631 0 1 1 32.39.37 37.859 37.859 0 0 1 37.5 0c12.917 0 24.236 6.564 30.978 16.48z"/></g></g></svg>