<svg xmlns="http://www.w3.org/2000/svg" width="42" height="43" viewBox="0 0 42 43"><g><g><path fill="#0af" d="M34.5 24a2.497 2.497 0 0 0-2.5 2.5 2.5 2.5 0 1 0 2.5-2.5zM6 12h30c1.95 0 4 1.937 4 3.843v21.531A3.618 3.618 0 0 1 36.375 41H5.625A3.613 3.613 0 0 1 2 37.374V17.468l.031-1.656c.059-.68.406-1.649 1.063-2.406.715-.828 1.691-1.407 2.906-1.407zM30.625.03c-.781.012-1.645.184-2.719.47-3.082.812-20.812 5.718-20.812 5.718-.032.008-.063.02-.094.031-2.809 1.059-4.578 2.055-5.656 3.5C.274 11.187.035 12.913.03 14.97v.655C.02 15.75 0 15.874 0 16v21.375C0 40.464 2.535 43 5.625 43h30.75C39.465 43 42 40.464 42 37.374v-21.53c0-3.188-2.852-5.845-6-5.845H6c-1.121 0-2.129.32-2.969.844.727-.894 2.098-1.738 4.594-2.687.027-.012.035-.02.063-.032.113-.03 17.738-4.902 20.718-5.687.992-.262 1.735-.399 2.25-.406.516-.008.758.07.875.156.117.086.215.254.313.656.097.403.156 1.016.156 1.813v3.343h2V4.656c0-.868-.055-1.602-.219-2.282-.164-.68-.484-1.347-1.062-1.78C32.14.16 31.406.018 30.625.03z"/></g></g></svg>