<svg xmlns="http://www.w3.org/2000/svg" width="68" height="74" viewBox="0 0 68 74"><g><g><path fill="#0af" d="M42.719 50.21l17.548 19.626c.757.75 2.116.75 3.087-.222.973-.974.972-2.331.223-3.089L43.96 48.97zm-22.077-6.13h-.003a1.09 1.09 0 0 0 0 1.576l13.403 13.402c.226.226.498.327.788.327.287 0 .566-.102.79-.327a1.094 1.094 0 0 0 0-1.578l-13.399-13.4a1.11 1.11 0 0 0-.788-.34c-.282 0-.565.114-.79.34zm6.168.17l8.725 8.725 11.19-11.19L38 33.06zm11.02-17.358h-.003a1.09 1.09 0 0 0 0 1.576L51.22 41.871c.225.225.497.327.787.327.287 0 .566-.103.79-.327a1.094 1.094 0 0 0 0-1.579l-13.39-13.4a1.11 1.11 0 0 0-.788-.339c-.282 0-.565.114-.79.34zm3.782-2.212L55 38.074c1.645 1.642 1.645 4.354 0 5.996a4.25 4.25 0 0 1-2.999 1.242 4.244 4.244 0 0 1-2.996-1.242l-.076-.076-2.762 2.762 19.586 17.52.03.03c2.053 2.054 1.854 5.441-.22 7.517-2.074 2.078-5.462 2.273-7.515.22l-.03-.03-17.517-19.59-2.761 2.762.076.076c1.645 1.643 1.645 4.354 0 5.997a4.25 4.25 0 0 1-2.999 1.242 4.244 4.244 0 0 1-2.996-1.242L18.432 47.867c-1.644-1.643-1.644-4.357 0-6a4.228 4.228 0 0 1 2.997-1.23c1.088 0 2.178.409 2.999 1.23l.17.171 11.19-11.188-.172-.17c-1.644-1.643-1.644-4.358 0-6a4.228 4.228 0 0 1 2.997-1.23c1.088 0 2.178.408 2.999 1.23zm-.987-9.055h10.29l-10.29-10.29zM39.709 0L56.25 16.54v18.35l-3.125-3.124V18.75H37.5V3.125H3.125v62.5h44.959l2.807 3.125H0V0z"/></g></g></svg>