<svg xmlns="http://www.w3.org/2000/svg" width="84" height="75" viewBox="0 0 84 75"><g><g><path fill="#0af" d="M34.576 59.113c.73 0 1.471.274 2.083.886 1.224 1.224 1.224 2.942 0 4.166l-1.666 1.667c-.144.143-.26.306-.417.417-.013.006-.04-.007-.052 0-1.166.807-2.624.657-3.698-.417-.788-.788-.97-2.363-.417-3.542.209-.163.436-.28.625-.469l1.667-1.666c.221-.222.39-.482.573-.73a2.924 2.924 0 0 1 1.302-.312zm-6.302-6.354c.729 0 1.42.326 2.031.937 1.01 1.01 1.178 2.325.52 3.438-.227.17-.468.312-.676.52l-1.667 1.667v.053h-.052c-.182.201-.319.41-.469.625-1.113.657-2.428.488-3.437-.521-1.224-1.224-1.224-2.89 0-4.115l1.25-1.302.312-.26.105-.105c.611-.611 1.354-.937 2.083-.937zm-6.517-6.51c.729 0 1.47.325 2.08.937 1.223 1.224 1.223 2.89 0 4.115l-1.664 1.666c-1.222 1.224-2.938 1.224-4.16 0-1.223-1.224-1.223-2.89 0-4.114l1.664-1.667c.61-.612 1.352-.937 2.08-.937zm-6.504-6.51c.73 0 1.471.325 2.083.937 1.224 1.224 1.224 2.942 0 4.166l-1.302 1.25-.156.157-.208.26c-1.224 1.224-2.943 1.224-4.167 0-1.003-1.003-1.152-2.318-.52-3.438.292-.208.507-.494.624-.833l1.354-1.302.209-.26c.612-.612 1.354-.938 2.083-.938zM57.701.206c-1.7.098-3.372.514-4.948 1.302l-9.167 4.48H17.545L2.753 2.393a1.7 1.7 0 0 0-.677-.052A1.66 1.66 0 0 0 .618 3.918c-.04.807.507 1.53 1.302 1.706l15 3.645.208.052h19.635L22.597 16.25c-.059.026-.098.078-.157.104-2.2.97-2.78 3.978-1.145 5.729l-.052.052c.026.026.078.026.104.052 4.96 5.436 12.819 7.24 19.74 4.531h.051l9.792-3.802 20.208 20.26a3.832 3.832 0 0 1 0 5.47 3.832 3.832 0 0 1-5.468 0 1.674 1.674 0 0 0-2.227.117 1.674 1.674 0 0 0-.117 2.226 3.894 3.894 0 0 1 0 5.521 3.832 3.832 0 0 1-5.469 0l-1.198-1.198a1.674 1.674 0 0 0-2.226.117 1.674 1.674 0 0 0-.118 2.227 3.894 3.894 0 0 1 0 5.52 3.832 3.832 0 0 1-5.468 0L47.7 61.979a1.676 1.676 0 0 0-2.396 2.343 3.894 3.894 0 0 1 0 5.521 3.832 3.832 0 0 1-5.469 0l-2.083-2.083 1.25-1.25a6.267 6.267 0 0 0 0-8.854 6.244 6.244 0 0 0-4.427-1.823h-.052A6.244 6.244 0 0 0 32.7 51.3a6.244 6.244 0 0 0-4.427-1.823c-.085 0-.176-.007-.26 0a6.244 6.244 0 0 0-1.824-4.636c-1.217-1.217-2.825-1.875-4.427-1.875-.084 0-.175-.006-.26 0a6.244 6.244 0 0 0-1.823-4.635 6.244 6.244 0 0 0-4.427-1.823c-1.602 0-3.21.605-4.427 1.823l-1.51 1.51-6.72-1.146a1.74 1.74 0 0 0-.312-.052 1.673 1.673 0 0 0-1.77 1.563 1.673 1.673 0 0 0 1.562 1.77l5.469.99c-.495 2.051.02 4.29 1.614 5.886a6.234 6.234 0 0 0 4.688 1.823 6.234 6.234 0 0 0 1.823 4.687 6.234 6.234 0 0 0 4.687 1.823 6.244 6.244 0 0 0 1.823 4.635 6.244 6.244 0 0 0 4.531 1.823c-.039 1.648.547 3.308 1.771 4.532l.052.052c1.739 1.699 4.239 2.148 6.406 1.406l2.553 2.552c2.8 2.8 7.408 2.8 10.208 0 1.36-1.36 1.992-3.157 2.031-4.948 2.409.638 5.052.156 6.927-1.719 1.36-1.36 2.045-3.157 2.084-4.948 2.402.632 5.052.157 6.927-1.718 1.601-1.602 2.207-3.783 1.979-5.886 2.103.235 4.284-.377 5.885-1.979 1.79-1.79 2.429-4.303 1.927-6.614l.99-.99 6.146-.885a1.69 1.69 0 0 0 1.406-1.928 1.69 1.69 0 0 0-1.927-1.406l-6.667 1.042-.52.052-.99.99c-.117-.137-.235-.287-.365-.417l-20.52-20.52a1.59 1.59 0 0 0-.261-.21l-.052-.051a1.674 1.674 0 0 0-1.98-.625l-10.833 4.166c-5.696 2.253-12.109.788-16.145-3.698l-.053-.052c-.214-.215-.227-.364.053-.468h.104l.052-.053L44.472 9.27c.351-.052.683-.214.937-.468l8.802-4.323h.052c3.073-1.537 6.66-1.224 9.48.677l.625.729.156.208.208.104c3.028 2.084 6.673 2.637 10.104 1.72v.051l.104-.052 7.76-1.614a1.682 1.682 0 0 0 1.277-2.006 1.682 1.682 0 0 0-2.005-1.276l-7.813 1.667-.052.052h-.052c-2.487.69-5.052.235-7.292-1.25l-.625-.729-.156-.156-.208-.157C63.86 1.106 61.672.376 59.42.206a13.764 13.764 0 0 0-1.72 0z"/></g></g></svg>