<svg xmlns="http://www.w3.org/2000/svg" width="44" height="50" viewBox="0 0 44 50"><g><g><path fill="#0af" d="M29.697 14.625l-.532.844-8.13 12.625-5.378-4.844-.719-.656-1.344 1.468.75.688 6.191 5.625.876.781.656-1 8.786-13.625.532-.843zM22 2c1.645 0 3.55 1.105 6.688 2.719 2.98 1.531 7.171 3.41 13.25 4.843-.368 27.118-18.684 37.29-19.97 37.97-.62-.302-4.948-2.466-9.718-8.094C7.223 33.504 2.246 23.96 2.062 9.561 8.142 8.13 12.332 6.25 15.313 4.72 18.45 3.105 20.355 2 22 2zm0-2c-2.453 0-4.523 1.355-7.594 2.938C11.336 4.52 7.215 6.43.781 7.843L0 8.03v.781c0 15.32 5.371 25.56 10.75 31.907 5.379 6.347 10.844 8.875 10.844 8.875l.437.218.438-.218S44 38.469 44 8.812v-.78l-.781-.188C36.785 6.43 32.664 4.52 29.594 2.937 26.524 1.355 24.454 0 22 0z"/></g></g></svg>