<svg xmlns="http://www.w3.org/2000/svg" width="28" height="44" viewBox="0 0 28 44"><g><g><path fill="#0af" d="M18.032 5.72l-3.719 12.995a1.002 1.002 0 0 0 .969 1.281h9.344L10.188 38.084l3.907-12.808a1.002 1.002 0 0 0-.97-1.281h-9.75zM20.188.25a.996.996 0 0 0-.625.376L.501 24.376c-.242.3-.29.71-.121 1.058.168.348.52.567.902.567h10.469l-5 16.437a.998.998 0 0 0 .46 1.242.999.999 0 0 0 1.29-.304l19-23.75A1.002 1.002 0 0 0 26.72 18H16.626l4.656-16.47c.09-.308.027-.644-.172-.898a1.005 1.005 0 0 0-.828-.382h-.094z"/></g></g></svg>