<svg xmlns="http://www.w3.org/2000/svg" width="54" height="75" viewBox="0 0 54 75"><g><g><path fill="#0af" d="M13.055 47.827a3.28 3.28 0 0 1 2.194 1.51l.415.684c1.777 2.936 5.596 3.961 8.603 2.307v-.003l.702-.384a3.287 3.287 0 0 1 3.06-.05l-8.114 18.546-4.635-5.792a1.563 1.563 0 0 0-1.221-.586H5.566zm27.1-.012l7.495 16.251h-8.493c-.475 0-.924.216-1.221.587L33.3 70.447l-4.986-11.409 2.63-6.015c2.512.393 5.13-.714 6.513-3l.415-.685c.504-.832 1.342-1.365 2.283-1.523zm-2.216-32.059L25.064 35.882l-10.349-9.314-2.093 2.326L25.71 40.67 40.57 17.44zM20.917 3.122a3.324 3.324 0 0 1 1.847.409l.696.384a6.44 6.44 0 0 0 6.205 0l.7-.387v.003a3.285 3.285 0 0 1 4.422 1.184l.415.683A6.438 6.438 0 0 0 40.568 8.5l.803.018a3.282 3.282 0 0 1 3.239 3.235v.003l.015.8a6.438 6.438 0 0 0 3.101 5.368l.684.415a3.284 3.284 0 0 1 1.187 4.419l-.387.702a6.43 6.43 0 0 0 0 6.2l.003.004v.003l.388.693a3.286 3.286 0 0 1-1.188 4.422l-.684.415a6.432 6.432 0 0 0-3.1 5.368l-.016.8v.002a3.282 3.282 0 0 1-3.239 3.235l-.803.019a6.436 6.436 0 0 0-5.366 3.097v.003l-.415.684a3.285 3.285 0 0 1-4.423 1.184v.003l-.699-.388a6.44 6.44 0 0 0-6.205 0l-.7.388v-.003a3.286 3.286 0 0 1-4.422-1.184l-.415-.684a6.438 6.438 0 0 0-5.366-3.1h-.004l-.8-.019a3.282 3.282 0 0 1-3.238-3.235v-.003l-.015-.8a6.438 6.438 0 0 0-3.101-5.367l-.684-.415a3.285 3.285 0 0 1-1.187-4.422l.384-.696v-.003a6.436 6.436 0 0 0 0-6.201l-.388-.7h.004a3.285 3.285 0 0 1 1.184-4.421l.684-.415a6.436 6.436 0 0 0 3.1-5.365v-.003l.02-.8a3.282 3.282 0 0 1 3.235-3.238h.003l.8-.015a6.44 6.44 0 0 0 5.369-3.1l.415-.684a3.295 3.295 0 0 1 2.576-1.596zm.076-3.116A6.45 6.45 0 0 0 15.66 3.1l-.412.684a3.298 3.298 0 0 1-2.759 1.593h-.003l-.8.018c-3.43.072-6.225 2.865-6.295 6.296l-.018.8a3.3 3.3 0 0 1-1.593 2.758l-.684.416C.161 17.442-.863 21.26.79 24.267h.003l.385.702a3.297 3.297 0 0 1 0 3.186l-.385.7C-.861 31.86.163 35.68 3.1 37.456l.684.412a3.298 3.298 0 0 1 1.593 2.759v.003l.018.8c.058 2.775 1.908 5.107 4.425 5.944l-8.118 17.59a1.563 1.563 0 0 0 1.42 2.22h10.186l5.78 7.226a1.563 1.563 0 0 0 2.652-.351l4.868-11.124 4.867 11.124a1.563 1.563 0 0 0 2.652.35l5.78-7.226h10.187a1.563 1.563 0 0 0 1.42-2.218l-8.13-17.618c2.474-.861 4.285-3.172 4.342-5.917v-.004l.018-.796v-.003a3.3 3.3 0 0 1 1.593-2.759l.687-.415c2.936-1.777 3.958-5.592 2.304-8.6l-.003-.003-.39-.705a3.297 3.297 0 0 1 .002-3.18l.388-.699v-.003c1.653-3.005.63-6.821-2.304-8.6l-.003-.003-.684-.412a3.298 3.298 0 0 1-1.593-2.758v-.003l-.018-.797v-.003c-.072-3.43-2.864-6.226-6.296-6.296l-.8-.018a3.3 3.3 0 0 1-2.758-1.593l-.415-.684C35.677.16 31.858-.863 28.85.79v.003l-.702.385a3.297 3.297 0 0 1-3.186 0l-.699-.385a6.368 6.368 0 0 0-3.271-.787z"/></g></g></svg>