<svg xmlns="http://www.w3.org/2000/svg" width="46" height="46" viewBox="0 0 46 46"><g><g><path fill="#0af" d="M25 42h18c.566 0 1 .434 1 1v1H24v-1c0-.566.434-1 1-1zm0-2c-1.645 0-3 1.355-3 3v3h24v-3c0-1.645-1.355-3-3-3zm17-21c.566 0 1 .434 1 1a.988.988 0 0 1-.57.895l-9.059 5.449.524.793a.997.997 0 0 0-1.364-.293A.992.992 0 0 1 32 27c-.566 0-1-.434-1-1a.98.98 0 0 1 .477-.844.976.976 0 0 0 .234-.203l.566-.344.02.043 9.078-5.445c.035-.016.07-.031.105-.05A.963.963 0 0 1 42 19zm-17.125-1.871l1.043 1.715L5.156 32.633c-.02.012-.039.023-.054.035-.32.21-.692.332-1.102.332-1.117 0-2-.883-2-2 0-.797.46-1.465 1.133-1.79.058-.03.113-.065.168-.105zM31.828 6.03l7.328 12.063-8.297 5.035-2.718-4.477a.063.063 0 0 1-.016-.027l-2.043-3.36-2.55-4.199zM31 2c.566 0 1 .434 1 1 0 .383-.21.7-.531.875a.104.104 0 0 0-.04.023l-9.058 5.446.04.062-.477.293a.925.925 0 0 0-.403.145A.992.992 0 0 1 21 10c-.566 0-1-.434-1-1a.98.98 0 0 1 .477-.844c.445-.277.601-.847.363-1.312l.457.808 9.078-5.441c.035-.02.07-.035.105-.055A.963.963 0 0 1 31 2zm0-2c-.383 0-.7.164-1.031.297a.953.953 0 0 0-.532.14L19.43 6.441a1.035 1.035 0 0 0-.364.383C18.453 7.371 18 8.114 18 9c0 1.645 1.355 3 3 3 .242 0 .457-.07.668-.156l2.168 3.574L2.203 27.426c-.152.086-.281.21-.371.363C.777 28.508 0 29.63 0 31c0 2.2 1.8 4 4 4 .605 0 1.129-.254 1.645-.496.199 0 .394-.055.558-.164l20.75-13.785 2.465 4.054c-.25.41-.418.871-.418 1.391 0 1.645 1.355 3 3 3 .387 0 .71-.172 1.047-.309a.957.957 0 0 0 .535-.14l9.84-5.918A3.007 3.007 0 0 0 45 20c0-1.645-1.355-3-3-3-.371 0-.68.156-1 .281L33.406 4.773C33.773 4.277 34 3.664 34 3c0-1.645-1.355-3-3-3z"/></g></g></svg>