<svg xmlns="http://www.w3.org/2000/svg" width="38" height="47" viewBox="0 0 38 47"><g><g><path fill="#0af" d="M19 27c-1.7 0-3 1.3-3 3 0 .898.398 1.688 1 2.188V35c0 1.102.898 2 2 2 1.102 0 2-.898 2-2v-2.813c.602-.5 1-1.289 1-2.187 0-1.7-1.3-3-3-3zM3 19h32c.555 0 1 .445 1 1v24c0 .555-.445 1-1 1H3c-.555 0-1-.445-1-1V20c0-.555.445-1 1-1zM19 2c5.566 0 10 4.434 10 10v5H9v-5C9 6.434 13.434 2 19 2zm0-2C12.363 0 7 5.363 7 12v5H3c-1.645 0-3 1.355-3 3v24c0 1.645 1.355 3 3 3h32c1.645 0 3-1.355 3-3V20c0-1.645-1.355-3-3-3h-4v-5c0-6.637-5.363-12-12-12z"/></g></g></svg>