<svg xmlns="http://www.w3.org/2000/svg" width="66" height="75" viewBox="0 0 66 75"><g><g><path fill="#0af" d="M44.531 21.938l-.797 1.265-12.187 18.93-8.063-7.263-1.078-.984-2.015 2.202 1.125 1.03 9.28 8.435 1.313 1.171.985-1.499 13.172-20.43.797-1.264zM33.005 3c2.467 0 5.327 1.658 10.033 4.078 4.471 2.297 10.76 5.115 19.878 7.266-.55 40.676-28.03 55.933-29.958 56.953-.932-.451-7.425-3.697-14.58-12.14C10.835 50.255 3.369 35.94 3.094 14.343c9.118-2.15 15.407-4.969 19.878-7.266C27.678 4.658 30.538 3 33.005 3zM33 0c-3.68 0-6.785 2.033-11.39 4.406-4.606 2.373-10.788 5.239-20.438 7.36L0 12.046v1.173c0 22.98 8.057 38.338 16.125 47.86 8.068 9.52 16.266 13.312 16.266 13.312l.656.328.656-.328S66 57.703 66 13.219v-1.172l-1.172-.281c-9.65-2.121-15.832-4.987-20.437-7.36C39.785 2.033 36.68 0 33 0z"/></g></g></svg>