<svg xmlns="http://www.w3.org/2000/svg" width="35" height="41" viewBox="0 0 35 41"><g><g><path fill="#0af" d="M16 2c.246 0 .797.168 1.219.563.422.394.781.976.781 2.03 0 .68-.203.966-.531 1.845v.03c-.2.56-1.219 2.942-2.157 5.063-.937 2.121-1.812 4.063-1.812 4.063A1.001 1.001 0 0 0 14.406 17s10.63-.004 13.969.094h.031c1.864 0 2.594 1.18 2.594 1.812 0 .801-.281 2.532-.281 2.532a.997.997 0 0 0 .656 1.093S33 23.055 33 24.688c0 1.464-1.469 2.343-1.469 2.343-.343.184-.55.547-.531.938.02.386.262.73.625.875 0 0 1.375.504 1.375 1.968 0 1.649-2.063 2.438-2.063 2.438a.992.992 0 0 0-.617.648.99.99 0 0 0 .149.883S31 35.5 31 36.688c0 .265-.23.937-.75 1.437S28.984 39 28 39H9c-3.855 0-7-3.145-7-7v-9.406c0-1.496.441-2.864 1.313-4.094.003-.008-.004-.023 0-.031L14.5 3.094c.023-.031.043-.063.063-.094.449-.746 1.054-1 1.437-1zm0-2c-1.176 0-2.309.727-3.063 1.906-.027.04-.07.055-.093.094L1.688 17.313A9.02 9.02 0 0 0 0 22.593V32c0 4.945 4.055 9 9 9h19c1.516 0 2.77-.613 3.625-1.438.855-.824 1.375-1.84 1.375-2.874 0-.856-.2-1.56-.406-2.094.972-.524 2.406-1.516 2.406-3.782 0-1.425-.691-2.359-1.375-2.968.684-.672 1.375-1.66 1.375-3.157 0-2.242-1.422-3.16-2.25-3.593.086-.516.25-1.274.25-2.188 0-1.957-1.848-3.797-4.563-3.812h-.03C25.3 15.004 17.8 15 15.936 15c.333-.746.575-1.266 1.188-2.656.934-2.117 1.914-4.336 2.219-5.188v-.031c.27-.715.656-1.422.656-2.531 0-1.543-.602-2.746-1.406-3.5C17.789.34 16.852 0 16 0z"/></g></g></svg>