<svg xmlns="http://www.w3.org/2000/svg" width="45" height="46" viewBox="0 0 45 46"><g><g><path fill="#0af" d="M38 39c-.55 0-1 .45-1 1v1c0 .55.45 1 1 1h2c.55 0 1-.45 1-1v-1c0-.55-.45-1-1-1zm-6 0c-.55 0-1 .45-1 1v1c0 .55.45 1 1 1h2c.55 0 1-.45 1-1v-1c0-.55-.45-1-1-1zm-6 0c-.55 0-1 .45-1 1v1c0 .55.45 1 1 1h2c.55 0 1-.45 1-1v-1c0-.55-.45-1-1-1zm12-5c-.55 0-1 .45-1 1v1c0 .55.45 1 1 1h2c.55 0 1-.45 1-1v-1c0-.55-.45-1-1-1zm-6 0c-.55 0-1 .45-1 1v1c0 .55.45 1 1 1h2c.55 0 1-.45 1-1v-1c0-.55-.45-1-1-1zm-6 0c-.55 0-1 .45-1 1v1c0 .55.45 1 1 1h2c.55 0 1-.45 1-1v-1c0-.55-.45-1-1-1zm12-5c-.55 0-1 .45-1 1v1c0 .55.45 1 1 1h2c.55 0 1-.45 1-1v-1c0-.55-.45-1-1-1zm-6 0c-.55 0-1 .45-1 1v1c0 .55.45 1 1 1h2c.55 0 1-.45 1-1v-1c0-.55-.45-1-1-1zm-6 0c-.55 0-1 .45-1 1v1c0 .55.45 1 1 1h2c.55 0 1-.45 1-1v-1c0-.55-.45-1-1-1zm-15-1v4h4c0 2.223-1.777 4-4 4s-4-1.777-4-4 1.777-4 4-4zm0-2c-3.3 0-6 2.7-6 6s2.7 6 6 6 6-2.7 6-6-2.7-6-6-6zm16-3h12v2H27zm-1.188-2A1 1 0 0 0 25 22v4c0 .55.45 1 1 1h14c.55 0 1-.45 1-1v-4c0-.55-.45-1-1-1H25.813zM24 19h18c.566 0 1 .434 1 1v23c0 .566-.434 1-1 1H24c-.566 0-1-.434-1-1v-.813a1.016 1.016 0 0 0 0-.406V20c0-.566.434-1 1-1zm-13-5v6H9v-3H7v3H5v2h14v-2h-2v-4h-2v4h-2v-6zM10 4h4.188c.417 1.156 1.519 2 2.812 2s2.395-.844 2.813-2H24v3c0 .566-.434 1-1 1H11c-.566 0-1-.434-1-1zM3 4h5v3c0 1.645 1.355 3 3 3h12c1.645 0 3-1.355 3-3V4h5c.566 0 1 .434 1 1v12h-8c-1.645 0-3 1.355-3 3v21H3c-.566 0-1-.434-1-1V5c0-.566.434-1 1-1zm14-2c.5 0 .883.344.969.813-.024.124-.024.25 0 .374A.97.97 0 0 1 17 4a.988.988 0 0 1-1-.906V3c0-.563.438-1 1-1zm0-2c-1.293 0-2.395.844-2.813 2H9.22a.936.936 0 0 0-.313-.031c-.031.008-.062.02-.094.031H3C1.355 2 0 3.355 0 5v35c0 1.645 1.355 3 3 3h18c0 1.645 1.355 3 3 3h18c1.645 0 3-1.355 3-3V20c0-1.645-1.355-3-3-3h-8V5c0-1.645-1.355-3-3-3H19.812C19.395.844 18.294 0 17 0z"/></g></g></svg>