<svg xmlns="http://www.w3.org/2000/svg" width="47" height="38" viewBox="0 0 47 38"><g><g><path fill="#0af" d="M41 23c0 2.2-3 3-3 3s-3-.8-3-3zM2 24h2.313c-.215-.395-.375-.773-.5-1.063-.112-.254-.232-.447-.254-.494-.042-.018-.223-.125-.465-.224-.301-.121-.684-.254-1.094-.438zm1.563-1.563c-.01-.008-.01-.006-.004.006.01.005.012.003.003-.006zM33 23c0 .8.387 1.488 1.188 2.188l2.406 2.125c.3.101.406.386.406.687 0 .3-.105.613-.406.813l-2.407 2C33.388 31.512 33 32.102 33 33v3h2c0-2 3-4 3-4s3 2 3 4h2v-3c0-.898-.387-1.488-1.188-2.188l-2.406-2.125c-.3-.101-.406-.386-.406-.687 0-.3.105-.613.406-.813l2.407-2C42.612 24.488 43 23.802 43 23v-3H33zm13-5c.602 0 1 .398 1 1s-.398 1-1 1h-1v3c0 1.398-.7 2.688-2 3.688L41.5 28l1.5 1.313c1.3 1 2 2.289 2 3.687v3h.906c.7 0 1.094.398 1.094 1s-.398 1-1 1H30c-.602 0-1-.398-1-1s.398-1 1-1h1v-3c0-1.5.7-2.688 2-3.688L34.5 28l-1.594-1.313C31.707 25.688 31 24.398 31 23v-3h-1c-.602 0-1-.398-1-1s.398-1 1-1zm-10-4.5c0 .29.21.5.5.5.29 0 .5-.21.5-.5 0-.29-.21-.5-.5-.5-.29 0-.5.21-.5.5zm-29 0c0 .29.21.5.5.5.29 0 .5-.21.5-.5 0-.29-.21-.5-.5-.5-.29 0-.5.21-.5.5zm32 0c0 1.367-1.133 2.5-2.5 2.5a2.518 2.518 0 0 1-2.5-2.5c0-1.367 1.133-2.5 2.5-2.5s2.5 1.133 2.5 2.5zm-29 0c0 1.367-1.133 2.5-2.5 2.5A2.518 2.518 0 0 1 5 13.5C5 12.133 6.133 11 7.5 11s2.5 1.133 2.5 2.5zm21-.5c0 1.047-.137 2.05-.406 3H30c-.652 0-1.238.176-1.719.5A8.812 8.812 0 0 0 29 13c0-4.41-3.14-8-7-8s-7 3.59-7 8 3.14 8 7 8c1.98 0 3.758-.953 5.031-2.469A3.081 3.081 0 0 0 27 19a3 3 0 0 0 .594 1.813C26.059 22.172 24.109 23 22 23c-4.96 0-9-4.484-9-10s4.04-10 9-10c4.965 0 9 4.484 9 10zm9.188-9.938c.112.256.231.45.253.495.042.019.22.125.465.224.301.121.684.254 1.094.438V2h-2.313c.215.395.376.773.5 1.063zm.25.5c.008.01.009.007.003-.005-.01-.005-.012-.003-.004.006zM2 4.22c.41-.184.793-.317 1.094-.438.242-.1.423-.206.465-.224.022-.047.142-.24.253-.494.126-.29.286-.668.5-1.063H2zm1.563-.657c.008-.008.007-.01-.004-.005-.006.012-.005.014.003.006zM44 0v16h-2V6.75c0-.14-.012-.168-.125-.281-.113-.114-.344-.266-.656-.407-.313-.14-.692-.289-1.063-.437-.37-.148-.777-.277-1.156-.656-.383-.383-.504-.774-.656-1.125a9.774 9.774 0 0 0-.469-.969C37.543 2.305 37.32 2 36.437 2H7.564c-.442 0-.731.07-.938.219-.105.074-.168.172-.25.281-.082.11-.168.234-.25.375-.164.285-.316.645-.469 1-.152.355-.273.71-.656 1.094-.379.379-.785.508-1.156.656-.371.148-.719.297-1.031.438-.313.14-.575.292-.688.406A.35.35 0 0 0 2 6.75v12.5c0 .14.012.168.125.281.113.114.375.266.688.407.312.14.66.289 1.03.437.372.148.778.277 1.157.656.383.383.504.739.656 1.094.153.355.305.715.469 1 .332.57.555.875 1.438.875h21.53c.114.691.348 1.367.688 2H0V0z"/></g></g></svg>