<svg xmlns="http://www.w3.org/2000/svg" width="50" height="30" viewBox="0 0 50 30"><g><g><path fill="#0af" d="M11.313 16.813c-1.563 0-2.598 1.117-3.25 2.03-.653.915-1 1.813-1 1.813a.994.994 0 0 0 .14 1.024 1 1 0 0 0 1.734-.336s.27-.668.75-1.344c.481-.676 1.063-1.188 1.626-1.188.18 0 .558.176.968.72.336.44.63 1.124.875 1.78-.05.11-.14.2-.187.313-.348.832-.586 1.656-.594 2.438-.004.39.031.773.281 1.187.25.414.84.75 1.344.75.559 0 1.137-.395 1.375-.813.238-.417.293-.82.313-1.25.035-.73-.149-1.578-.375-2.406.191-.328.359-.699.562-.937.387-.453.746-.594.75-.594.035 0 .246.063.531.406.239.285.473.75.657 1.188-.309.55-.575 1.078-.625 1.687-.028.32-.012.703.25 1.094.261.39.808.625 1.218.625.473 0 .985-.324 1.22-.688.233-.363.296-.69.312-1.03.02-.41-.121-.856-.22-1.282.169-.227.329-.496.5-.656.26-.24.496-.32.533-.339.02.014.058.046.124.12.149.164.34.488.531.844.192.355.403.754.657 1.125.125.187.25.383.468.562.22.18.543.344.938.344.601 0 .996-.29 1.312-.531.317-.242.586-.48.844-.719.52-.477.98-.75 1.125-.75.36.004.695-.184.879-.496a1.01 1.01 0 0 0 0-1.008c-.184-.312-.52-.5-.879-.496-1.164 0-1.902.727-2.469 1.25-.25.23-.457.457-.625.594a14.805 14.805 0 0 1-.468-.813c-.211-.394-.457-.82-.813-1.218C22.27 19.414 21.707 19 21 19c-.8 0-1.383.422-1.875.875-.144-.242-.226-.504-.406-.719-.492-.593-1.18-1.156-2.094-1.156-1 0-1.71.61-2.281 1.281-.172-.308-.262-.664-.469-.937-.61-.805-1.453-1.531-2.562-1.531zm9.68 4.186c-.01-.002-.01-.006 0 0zM7.718 11c-.55.078-.938.59-.86 1.14.079.551.59.938 1.141.86h17c.36.004.695-.184.879-.496a1.01 1.01 0 0 0 0-1.008c-.184-.312-.52-.5-.879-.496H7.72zM39 8v1.188c-1.156.417-2 1.519-2 2.812v1.563a.998.998 0 0 0 .406.812L41 17.063V18c0 .566-.433 1-1 1-.566 0-1-.434-1-1v-1h-2v1c0 1.293.844 2.395 2 2.813V22h2v-1.188c1.156-.417 2-1.519 2-2.812v-1.438a1 1 0 0 0-.406-.78L39 13.093V12c0-.566.434-1 1-1 .567 0 1 .434 1 1v1h2v-1c0-1.293-.844-2.395-2-2.813V8zM7.72 7c-.55.078-.938.59-.86 1.14.079.551.59.938 1.141.86h21c.36.004.695-.184.879-.496a1.01 1.01 0 0 0 0-1.008c-.184-.312-.52-.5-.879-.496H7.72zM2 2h46v26H2zM.813 0A1 1 0 0 0 0 1v28c0 .55.45 1 1 1h48c.55 0 1-.45 1-1V1c0-.55-.45-1-1-1H.813z"/></g></g></svg>