<svg xmlns="http://www.w3.org/2000/svg" width="180" height="173" viewBox="0 0 180 173"><g><g><path fill="#fff" fill-opacity=".15" d="M157.021 145.517a3.83 3.83 0 1 0 0 7.658h3.83a3.83 3.83 0 1 0 0-7.658zm-15.319 0a3.83 3.83 0 1 0 0 7.658h3.83a3.83 3.83 0 1 0 0-7.658zm-15.319 0a3.83 3.83 0 1 0 0 7.658h3.83a3.83 3.83 0 1 0 0-7.658zm-15.32 0a3.83 3.83 0 1 0 0 7.658h3.83a3.83 3.83 0 1 0 0-7.658zm40.814-19.147c-1.391 0-2.515 1.028-2.515 2.296v6.896c0 1.267 1.127 2.296 2.515 2.296h10.067c1.391 0 2.519-1.029 2.522-2.296v-6.896c0-1.268-1.13-2.296-2.522-2.296zm-48.473-7.659h65.107c2.017 0 3.83 1.711 3.83 3.313v39.319c.001 1.84-1.465 3.32-3.479 3.32h-65.81c-2.017 0-3.478-1.485-3.478-3.313v-39.326c0-1.6 1.819-3.313 3.83-3.313zm0-7.659c-6.061 0-11.49 4.683-11.49 10.972v39.326c0 6.061 5.075 10.972 11.139 10.972h65.81c6.058 0 11.143-4.916 11.137-10.987v-39.31c0-6.287-5.426-10.973-11.49-10.973zM65.136 61.301h7.6v68.868h-7.6zm-38.298 0h7.6v68.868h-7.6zm15.32-.03h15.259v68.928h-15.26zM88.08 26.806c4.273 0 7.655 3.382 7.655 7.654s-3.382 7.654-7.655 7.654-7.654-3.382-7.654-7.654 3.381-7.654 7.654-7.654zm0-7.658c-8.412 0-15.314 6.903-15.314 15.317 0 8.414 6.902 15.318 15.314 15.318 8.413 0 15.314-6.904 15.314-15.318S96.493 19.148 88.08 19.148zm.005-10.987l76.596 40.11v5.34h-11.34c-.052-.001-.096-.029-.15-.029h-15.319c-.053 0-.097.028-.15.03h-22.679c-.052-.002-.096-.03-.15-.03H99.575c-.053 0-.097.028-.15.03H77.06a3.864 3.864 0 0 0-.464-.03h-15.32a3.86 3.86 0 0 0-.44.03H38.761a3.864 3.864 0 0 0-.464-.03h-15.32a3.86 3.86 0 0 0-.44.03H11.488v-5.34zM88.018 0a3.83 3.83 0 0 0-1.713.434L5.879 42.558a3.83 3.83 0 0 0-2.05 3.395v11.488a3.83 3.83 0 0 0 3.83 3.83h11.46v68.928h-7.63a3.83 3.83 0 0 0-3.83 3.83v7.658H3.83A3.83 3.83 0 0 0 0 145.517v11.488a3.83 3.83 0 0 0 3.83 3.83h80.425v-7.66H7.66v-3.829h3.83a3.83 3.83 0 0 0 3.83-3.83v-7.658h7.195c.154.02.309.03.464.03h15.319a3.86 3.86 0 0 0 .441-.03h22.074c.154.02.309.03.464.03h15.319a3.86 3.86 0 0 0 .441-.03h7.218v-7.659h-3.8V61.271h15.26v43.79a19.115 19.115 0 0 1 7.72-1.66v-42.1h7.599v42.093h7.72V61.27h15.259v42.123h7.719V61.3h7.6v42.093h7.72V61.27h11.459a3.83 3.83 0 0 0 3.83-3.83V45.953a3.83 3.83 0 0 0-2.05-3.395L89.865.435A3.83 3.83 0 0 0 88.018 0z"/></g></g></svg>