<svg xmlns="http://www.w3.org/2000/svg" width="180" height="172" viewBox="0 0 180 172"><g><g><path fill="#fff" fill-opacity=".1" d="M10.96 156.434h158.07c1.566 0 3.134 1.506 3.134 3.913v3.913H7.826v-3.913c0-2.407 1.568-3.913 3.133-3.913zm137.736-97.826h7.816v90h-7.816zm-125.218 0h7.816v90h-7.816zM86.087 35.13v11.976c-8.356 1.005-13.659 5.159-16.363 9.4-3.105 4.872-3.202 9.829-3.202 9.829v.1c0 6.956 3.347 12.204 7.78 15.308 4.433 3.103 9.683 4.578 14.575 6.045 4.89 1.467 9.424 2.928 12.327 4.96 2.904 2.033 4.448 4.121 4.448 8.904 0 3.215-.881 5.167-2.163 6.718-1.28 1.55-3.115 2.692-5.128 3.477-4.026 1.57-8.285 1.544-8.285 1.544H90c-8.7 0-11.824-3.661-13.75-7.59-1.924-3.927-1.902-7.986-1.902-7.986l-7.826-.153s-.171 5.724 2.698 11.579c2.518 5.139 7.963 10.465 16.867 11.693v12.022h7.826v-12.022c2.039-.258 4.61-.75 7.291-1.796 2.878-1.122 5.936-2.89 8.323-5.778 2.387-2.888 3.951-6.902 3.951-11.708 0-6.957-3.347-12.205-7.78-15.308-4.433-3.104-9.683-4.578-14.575-6.046-4.89-1.467-9.424-2.927-12.327-4.96-2.887-2.02-4.416-4.117-4.433-8.842.001-.038.093-2.85 1.964-5.786 1.884-2.955 5.15-6.015 13.673-6.015 8.256 0 11.456 3.663 13.49 7.65 2.033 3.988 2.162 8.079 2.162 8.079l7.826-.153s-.063-5.692-3.019-11.487c-2.583-5.066-7.945-10.375-16.546-11.632V35.13zm3.908-26.986l82.169 38.476v4.165h-35.215a3.913 3.913 0 1 0 0 7.827h3.912v90.006H39.13V58.612h3.912a3.913 3.913 0 1 0 0-7.827H7.826V46.62zm.15-8.231a3.913 3.913 0 0 0-1.803.366L2.255 40.587A3.913 3.913 0 0 0 0 44.133v10.562a3.913 3.913 0 0 0 3.913 3.913h11.74v90H10.96c-6.261 0-10.96 5.538-10.96 11.74v11.739h180v-11.74c0-6.201-4.699-11.739-10.96-11.739h-4.692v-90h11.739A3.913 3.913 0 0 0 180 54.695V44.133c0-1.52-.878-2.902-2.255-3.546L91.658.279a3.913 3.913 0 0 0-1.513-.366z"/></g></g></svg>