<svg xmlns="http://www.w3.org/2000/svg" width="26" height="30" viewBox="0 0 26 30"><g><g><path fill="#0af" d="M14.444 10v4.67a2.852 2.852 0 0 1 1.445 2.473C15.889 18.72 14.595 20 13 20c-1.595 0-2.889-1.28-2.889-2.857a2.852 2.852 0 0 1 1.445-2.47V10zM2.89 17.143c0 5.586 4.462 10 10.111 10 5.649 0 10.111-4.414 10.111-10 0-5.587-4.462-10-10.111-10-5.649 0-10.111 4.413-10.111 10zM20.877 6.925l2.062-2.424 2.212 1.838-2.172 2.559A12.724 12.724 0 0 1 26 17.143C26 24.253 20.19 30 13 30S0 24.254 0 17.143c0-7.11 5.81-12.857 13-12.857 2.967 0 5.69.99 7.877 2.64zM17.323 0v2.857H8.667V0z"/></g></g></svg>