<svg xmlns="http://www.w3.org/2000/svg" width="130" height="116" viewBox="0 0 130 116"><g><g><g><path fill="#0af" d="M52.6 91.716c1.13 0 2.28.424 3.23 1.372 1.897 1.898 1.897 4.562 0 6.46l-2.584 2.583c-1.897 1.898-4.562 1.898-6.46 0-1.22-1.221-1.503-3.663-.645-5.49.323-.252.676-.434.969-.727l2.583-2.584c.344-.343.606-.746.889-1.13a4.532 4.532 0 0 1 2.018-.484zm-9.772-9.859c1.132 0 2.202.505 3.152 1.455 1.565 1.565 1.828 3.606.808 5.333-.354.263-.727.485-1.05.808l-2.586 2.586v.08h-.081c-.283.314-.495.637-.728.97-1.727 1.02-3.767.758-5.333-.808-1.899-1.899-1.899-4.485 0-6.383l1.94-2.02.484-.405.162-.161c.95-.95 2.101-1.455 3.232-1.455zm-10.1-10.1c1.13 0 2.282.504 3.232 1.452 1.899 1.898 1.899 4.481 0 6.379l-2.586 2.584c-1.9 1.897-4.566 1.897-6.465 0-1.899-1.898-1.899-4.482 0-6.379l2.586-2.584c.95-.948 2.101-1.453 3.232-1.453zM22.625 61.654c1.132 0 2.283.505 3.233 1.453 1.899 1.898 1.899 4.562 0 6.46l-2.02 1.937-.243.243-.323.403c-1.9 1.898-4.566 1.898-6.465 0-1.899-1.897-1.899-4.562 0-6.459l2.263-2.18.323-.404c.95-.948 2.101-1.453 3.232-1.453zM88.485.322c-2.637.151-5.232.798-7.677 2.02l-14.222 6.95H26.1L3.071 3.876c-.778-.262-1.485-.03-2.263.485C.293 4.625 0 5.443 0 6.221v56.323c0 1.293 1.07 2.323 2.101 2.586l8.566 1.454c-.798 3.202.01 6.718 2.505 9.212 2 2 4.656 2.94 7.272 2.829a9.672 9.672 0 0 0 2.829 7.273c2 2 4.656 2.939 7.272 2.828-.08 2.596.849 5.212 2.829 7.192 1.929 1.929 4.485 2.868 7.03 2.828-.06 2.556.849 5.131 2.748 7.03l.08.081c2.91 2.838 7.223 3.485 10.748 1.94l4.202 4.202c2.07 2.07 4.909 3.313 7.757 3.313 2.849 0 5.687-.99 7.758-3.313 2.07-2.071 3.131-4.667 3.394-7.516 3.616.778 7.737-.242 10.586-2.828 2.07-2.07 3.05-4.667 3.313-7.515 3.616.778 7.818-.242 10.667-2.828 2.323-2.324 3.333-5.707 3.07-8.808 3.364.262 6.485-.829 8.808-3.152 2.819-2.818 3.798-7.08 2.829-10.828l1.212-1.212 9.535-1.374a2.622 2.622 0 0 0 2.182-2.99 2.622 2.622 0 0 0-2.99-2.182l-10.343 1.616-.808.081-3.394 3.394-31.354-31.434a2.589 2.589 0 0 0 .374-3.263 2.594 2.594 0 0 0-3.121-1.02l-16.809 6.465c-8.838 3.495-18.787 1.222-25.05-5.738l-.08-.08c-.334-.334-.354-.566.08-.728h.162l.08-.08L83.07 6.947h.082c4.767-2.384 10.333-1.899 14.707 1.05l.97 1.132.242.323.323.162c4.697 3.232 10.353 4.09 15.677 2.666v.081l.161-.08 12.04-2.506a2.61 2.61 0 0 0 1.98-3.11 2.61 2.61 0 0 0-3.11-1.98L114.02 7.27l-.08.081h-.081c-3.859 1.07-7.839.364-11.314-1.94l-.97-1.13-.242-.243-.323-.243C98.04 1.716 94.646.584 91.152.322c-.88-.06-1.788-.05-2.667 0z"/></g></g></g></svg>