<svg xmlns="http://www.w3.org/2000/svg" width="182" height="40" viewBox="0 0 182 40"><defs><clipPath id="f3eha"><path d="M0 37.8V.25h36.427V37.8z"/></clipPath></defs><g><g><g><path fill="#fff" d="M47.497 35.765h-.909v-8.916h5.077v.807h-4.168zm134.31-29.603v12.19h-3.665v-1.146c-.806.926-2.003 1.487-3.64 1.487-3.2 0-5.839-2.804-5.839-6.437 0-3.633 2.638-6.437 5.838-6.437 1.638 0 2.835.56 3.64 1.488V6.162zm-3.67 6.094c0-1.827-1.222-2.972-2.908-2.972s-2.907 1.145-2.907 2.972 1.222 2.973 2.907 2.973c1.686 0 2.908-1.146 2.908-2.973zm-15.736 6.438c-2.442 0-4.176-.927-5.128-2.902l2.954-1.755c.342.95 1.1 1.487 2.222 1.487.904 0 1.44-.341 1.44-.95 0-.537-.342-.854-1.147-.854h-1.709v-3.073h1.318c.781 0 1.147-.292 1.147-.829 0-.584-.463-.877-1.147-.877-.928 0-1.562.44-2.002 1.414l-2.954-1.682c1.025-1.975 2.783-2.853 4.883-2.853 2.98 0 4.688 1.731 4.688 3.657 0 1.122-.415 2.072-1.294 2.682 1.147.61 1.783 1.633 1.783 2.877 0 2.025-1.759 3.658-5.054 3.658zM155.566 6.16v12.191h-3.56v-6.096l-5.22 6.096h-2.684V6.162h3.56v6.094l5.221-6.095zm-13.049 3.511h-3.634v8.68h-3.659v-8.68h-3.683v-3.51h10.976zm-17.286 9.024c-1.637 0-2.832-.56-3.638-1.487v6.023h-3.662V6.162h3.662v1.146c.806-.927 2.001-1.488 3.637-1.488 3.198 0 5.834 2.804 5.834 6.438s-2.636 6.438-5.833 6.438zm-.738-9.412c-1.683 0-2.903 1.145-2.903 2.972s1.22 2.973 2.903 2.973 2.902-1.146 2.902-2.973-1.219-2.972-2.902-2.972zm-14.507 6.143c1 0 1.856-.39 2.344-.927l2.929 1.683c-1.196 1.657-3.002 2.51-5.322 2.51-4.174 0-6.762-2.803-6.762-6.437 0-3.632 2.636-6.436 6.493-6.436 3.565 0 6.201 2.755 6.201 6.436 0 .513-.048 1-.146 1.464h-8.667c.465 1.268 1.587 1.706 2.93 1.706zm2.249-4.444c-.39-1.408-1.491-1.918-2.591-1.918-1.392 0-2.321.68-2.663 1.918zm-11.122 7.369h-3.662V9.576h-4.15v8.776h-3.662V6.162h11.474zM82.547 5.82c2.368 0 4.467 1.244 5.517 3.121l-3.198 1.853c-.415-.853-1.294-1.365-2.368-1.365-1.587 0-2.758 1.145-2.758 2.827 0 1.683 1.17 2.829 2.758 2.829 1.074 0 1.977-.512 2.368-1.365l3.198 1.828c-1.05 1.902-3.124 3.146-5.517 3.146-3.711 0-6.47-2.804-6.47-6.438 0-3.632 2.759-6.436 6.47-6.436zM71.694 18.352l-3.906-5.388v5.388h-3.662V6.162h3.662V11.5l3.662-5.34h4.273l-4.444 6.096 4.565 6.095zm-19.002.342c-3.124 0-5.858-1.537-7.322-3.951l3.368-1.951c.733 1.317 2.22 2.097 3.954 2.097 2.368 0 4.076-1.243 4.71-3.243h-6.98V7.987h6.982c-.635-1.999-2.344-3.243-4.711-3.243-1.733 0-3.197.78-3.954 2.098L45.37 4.89C46.859 2.476 49.593.94 52.693.94c5.15 0 8.884 3.853 8.884 8.877 0 5.024-3.735 8.877-8.885 8.877z"/></g><g><path fill="none" stroke="#fff" stroke-miterlimit="50" stroke-width=".5" d="M47.497 35.763v0h-.907v0-8.923 0h5.067v.807h-4.16v0z"/></g><g><path fill="#fff" d="M53.04 38.795V29.87h.857v1.021h.038a2.34 2.34 0 0 1 .977-.876 2.82 2.82 0 0 1 1.241-.296c.463 0 .88.08 1.255.24.36.15.687.373.958.655.264.277.47.605.617.983.147.379.221.786.221 1.223 0 .436-.074.844-.221 1.223-.139.365-.349.699-.618.983a2.856 2.856 0 0 1-.958.655 3.172 3.172 0 0 1-1.254.239c-.42 0-.834-.099-1.241-.296a2.398 2.398 0 0 1-.977-.85h-.038v4.02zm5.256-5.974c0-.329-.05-.636-.151-.927a2.242 2.242 0 0 0-.435-.756 2.05 2.05 0 0 0-.7-.51 2.26 2.26 0 0 0-.945-.19c-.327 0-.63.062-.907.183a2.18 2.18 0 0 0-.719.504c-.204.22-.365.476-.472.756-.115.3-.173.619-.171.94 0 .336.057.65.171.939.113.29.27.54.472.75a2.224 2.224 0 0 0 1.626.68c.353 0 .668-.061.945-.182a1.98 1.98 0 0 0 .7-.505c.19-.214.334-.466.435-.756.1-.29.15-.598.15-.926z"/></g><g><path fill="none" stroke="#fff" stroke-miterlimit="50" stroke-width=".5" d="M53.04 38.795V29.87h.857v1.021h.038a2.34 2.34 0 0 1 .977-.876 2.82 2.82 0 0 1 1.241-.296c.463 0 .88.08 1.255.24.36.15.687.373.958.655.264.277.47.605.617.983.147.379.221.786.221 1.223 0 .436-.074.844-.221 1.223-.139.365-.349.699-.618.983a2.856 2.856 0 0 1-.958.655 3.172 3.172 0 0 1-1.254.239c-.42 0-.834-.099-1.241-.296a2.398 2.398 0 0 1-.977-.85h-.038v4.02zm5.256-5.974c0-.329-.05-.636-.151-.927a2.242 2.242 0 0 0-.435-.756 2.05 2.05 0 0 0-.7-.51 2.26 2.26 0 0 0-.945-.19c-.327 0-.63.062-.907.183a2.18 2.18 0 0 0-.719.504c-.204.22-.365.476-.472.756-.115.3-.173.619-.171.94 0 .336.057.65.171.939.113.29.27.54.472.75a2.224 2.224 0 0 0 1.626.68c.353 0 .668-.061.945-.182a1.98 1.98 0 0 0 .7-.505c.19-.214.334-.466.435-.756.1-.29.15-.598.15-.926z"/></g><g><path fill="#fff" d="M63.072 34.849h.025l1.828-4.979h.933l-2.937 7.424c-.177.453-.401.817-.674 1.09-.274.273-.667.41-1.178.41-.261 0-.518-.026-.77-.076l.089-.781c.201.067.411.1.63.1.293 0 .525-.09.693-.27.168-.181.315-.44.441-.776l.48-1.235-2.522-5.886h.958l2.005 4.979z"/></g><g><path fill="none" stroke="#fff" stroke-miterlimit="50" stroke-width=".5" d="M63.072 34.849v0h.025v0l1.828-4.979v0h.933v0l-2.937 7.424c-.177.453-.401.817-.674 1.09-.274.273-.667.41-1.178.41-.261 0-.518-.026-.77-.076l.089-.781c.201.067.411.1.63.1.293 0 .525-.09.693-.27.168-.181.315-.44.441-.776l.48-1.235v0L60.11 29.87v0h.958v0l2.005 4.979v0z"/></g><g><path fill="#fff" d="M67.998 35.768h-.858V29.87h4.978v5.898h-.856v-5.18h-3.265z"/></g><g><path fill="none" stroke="#fff" stroke-miterlimit="50" stroke-width=".5" d="M67.998 35.768v0h-.858v0-5.898 0h4.978v5.898h-.856v0-5.18 0h-3.265v0z"/></g><g><path fill="#fff" d="M75.147 35.768h-.857V29.87h4.978v5.898h-.857v-5.18h-3.264z"/></g><g><path fill="none" stroke="#fff" stroke-miterlimit="50" stroke-width=".5" d="M75.147 35.768v0h-.857v0-5.898 0h4.978v5.898h-.857v0-5.18 0h-3.264v0z"/></g><g><path fill="#fff" d="M84.796 30.814c-.269-.25-.66-.376-1.172-.376-.353 0-.68.063-.983.19a2.353 2.353 0 0 0-.769.504l-.479-.568c.244-.243.565-.444.965-.605.398-.159.85-.239 1.355-.239.318 0 .617.044.894.133.278.088.52.22.731.397.21.176.374.4.491.667.118.27.177.585.177.946v2.584c0 .227.008.461.025.706.017.243.042.45.076.617h-.769a6.175 6.175 0 0 1-.088-.958h-.025c-.27.395-.574.679-.914.851-.34.172-.75.258-1.23.258-.226 0-.46-.031-.699-.094a1.949 1.949 0 0 1-.655-.31 1.745 1.745 0 0 1-.492-.557c-.13-.227-.195-.506-.195-.834 0-.456.116-.816.347-1.081.23-.266.54-.464.926-.596.386-.13.83-.214 1.33-.252a20.783 20.783 0 0 1 1.556-.057v-.187c0-.51-.134-.889-.403-1.139zm-.914 2.05a4.63 4.63 0 0 0-.97.178c-.29.09-.528.217-.712.386a.865.865 0 0 0-.277.67c0 .212.039.39.12.533.079.143.186.26.32.348.134.089.284.151.448.19.164.037.33.057.498.057.302 0 .571-.053.807-.158.235-.106.432-.25.592-.431.16-.184.285-.396.365-.627.085-.235.126-.485.126-.746v-.443h-.251c-.354 0-.709.015-1.066.044z"/></g><g><path fill="none" stroke="#fff" stroke-miterlimit="50" stroke-width=".5" d="M84.796 30.814c-.269-.25-.66-.376-1.172-.376-.353 0-.68.063-.983.19a2.353 2.353 0 0 0-.769.504l-.479-.568c.244-.243.565-.444.965-.605.398-.159.85-.239 1.355-.239.318 0 .617.044.894.133.278.088.52.22.731.397.21.176.374.4.491.667.118.27.177.585.177.946v2.584c0 .227.008.461.025.706.017.243.042.45.076.617h-.769a6.175 6.175 0 0 1-.088-.958h-.025c-.27.395-.574.679-.914.851-.34.172-.75.258-1.23.258-.226 0-.46-.031-.699-.094a1.949 1.949 0 0 1-.655-.31 1.745 1.745 0 0 1-.492-.557c-.13-.227-.195-.506-.195-.834 0-.456.116-.816.347-1.081.23-.266.54-.464.926-.596.386-.13.83-.214 1.33-.252a20.783 20.783 0 0 1 1.556-.057v-.187c0-.51-.134-.889-.403-1.139zm-.914 2.05a4.63 4.63 0 0 0-.97.178c-.29.09-.528.217-.712.386a.865.865 0 0 0-.277.67c0 .212.039.39.12.533.079.143.186.26.32.348.134.089.284.151.448.19.164.037.33.057.498.057.302 0 .571-.053.807-.158.235-.106.432-.25.592-.431.16-.184.285-.396.365-.627.085-.235.126-.485.126-.746v-.443h-.251c-.354 0-.709.015-1.066.044z"/></g><g><path fill="#fff" d="M92.177 32.29c.336 0 .651.025.945.076l2.118-2.496h.958l-2.294 2.673c.697.218 1.24.59 1.626 1.115.387.525.693 1.229.92 2.11h-.958c-.118-.52-.267-.955-.447-1.304a2.541 2.541 0 0 0-.681-.845 2.469 2.469 0 0 0-.952-.452 5.688 5.688 0 0 0-1.235-.146v2.748h-.857V29.87h.857v2.42z"/></g><g><path fill="none" stroke="#fff" stroke-miterlimit="50" stroke-width=".5" d="M92.177 32.29c.336 0 .651.025.945.076l2.118-2.496v0h.958v0l-2.294 2.673c.697.218 1.24.59 1.626 1.115.387.525.693 1.229.92 2.11h-.958c-.118-.52-.267-.955-.447-1.304a2.541 2.541 0 0 0-.681-.845 2.469 2.469 0 0 0-.952-.452 5.688 5.688 0 0 0-1.235-.146v2.748h-.857v0-5.898 0h.857v2.42z"/></g><g><path fill="#fff" d="M104.07 32.82c0 .446-.078.857-.233 1.235-.149.368-.37.702-.65.984a2.943 2.943 0 0 1-.996.649 3.383 3.383 0 0 1-1.272.232 3.348 3.348 0 0 1-1.26-.232 2.936 2.936 0 0 1-.997-.65c-.28-.281-.5-.615-.649-.983a3.214 3.214 0 0 1-.233-1.235 3.216 3.216 0 0 1 .233-1.235 2.93 2.93 0 0 1 1.646-1.633c.4-.157.828-.236 1.26-.232.461 0 .886.077 1.272.233.387.155.719.371.996.65.278.276.494.604.65.982.155.378.232.79.232 1.235m-.907 0c0-.328-.053-.636-.157-.926a2.274 2.274 0 0 0-.448-.756 2.123 2.123 0 0 0-.706-.51 2.23 2.23 0 0 0-.932-.19 2.123 2.123 0 0 0-1.626.7 2.264 2.264 0 0 0-.448.756c-.105.29-.157.599-.157.926 0 .328.052.637.157.927.105.29.254.542.447.756.195.215.434.387.7.504.273.122.582.183.927.183.344 0 .655-.062.932-.183a2.05 2.05 0 0 0 .706-.504 2.27 2.27 0 0 0 .447-.756c.105-.29.157-.599.157-.927"/></g><g><path fill="none" stroke="#fff" stroke-miterlimit="50" stroke-width=".5" d="M103.837 34.055c-.149.368-.37.702-.65.984a2.943 2.943 0 0 1-.996.649 3.383 3.383 0 0 1-1.272.232 3.348 3.348 0 0 1-1.26-.232 2.936 2.936 0 0 1-.997-.65c-.28-.281-.5-.615-.649-.983a3.214 3.214 0 0 1-.233-1.235 3.216 3.216 0 0 1 .233-1.235 2.93 2.93 0 0 1 1.646-1.633c.4-.157.828-.236 1.26-.232.461 0 .886.077 1.272.233.387.155.719.371.996.65.278.276.494.604.65.982.155.378.232.79.232 1.235 0 .446-.077.857-.232 1.235zm-.675-1.235c0-.328-.053-.636-.157-.926a2.274 2.274 0 0 0-.448-.756 2.123 2.123 0 0 0-.706-.51 2.23 2.23 0 0 0-.932-.19 2.123 2.123 0 0 0-1.626.7 2.264 2.264 0 0 0-.448.756c-.105.29-.157.599-.157.926 0 .328.052.637.157.927.105.29.254.542.447.756.195.215.434.387.7.504.273.122.582.183.927.183.344 0 .655-.062.932-.183a2.05 2.05 0 0 0 .706-.504 2.27 2.27 0 0 0 .447-.756c.105-.29.157-.599.157-.927z"/></g><g><path fill="#fff" d="M106.59 29.87l2.585 3.038 2.545-3.038h.732v5.899h-.857v-4.651l-2.256 2.823h-.354l-2.268-2.76v4.588h-.857V29.87z"/></g><g><path fill="none" stroke="#fff" stroke-miterlimit="50" stroke-width=".5" d="M106.59 29.87v0l2.585 3.038v0l2.545-3.038v0h.732v5.899h-.857v0-4.651 0l-2.256 2.823v0h-.354v0l-2.268-2.76v4.588h-.857v0-5.898 0z"/></g><g><path fill="#fff" d="M115.477 35.768h-.857V29.87h4.979v5.898h-.857v-5.18h-3.265z"/></g><g><path fill="none" stroke="#fff" stroke-miterlimit="50" stroke-width=".5" d="M115.477 35.768v0h-.857v0-5.898 0h4.979v5.898h-.857v0-5.18 0h-3.265v0z"/></g><g><path fill="#fff" d="M125.136 30.814c-.27-.25-.66-.376-1.172-.376-.353 0-.681.063-.983.19-.303.126-.56.294-.769.504l-.479-.568c.243-.243.565-.444.965-.605.398-.159.85-.239 1.355-.239.318 0 .617.044.894.133.277.088.52.22.73.397.21.176.375.4.492.667.118.27.177.585.177.946v2.584c0 .227.008.461.025.706.017.243.042.45.076.617h-.77a6.175 6.175 0 0 1-.088-.958h-.024c-.27.395-.574.679-.914.851-.34.172-.75.258-1.23.258-.226 0-.46-.031-.699-.094a1.945 1.945 0 0 1-.655-.31 1.745 1.745 0 0 1-.492-.557c-.13-.227-.195-.506-.195-.834 0-.456.116-.816.346-1.081.231-.266.54-.464.927-.596.386-.13.83-.214 1.33-.252a20.783 20.783 0 0 1 1.556-.057v-.187c0-.51-.135-.889-.403-1.139zm-.913 2.05c-.33.025-.656.085-.972.178-.29.09-.528.217-.713.386a.865.865 0 0 0-.278.67c0 .212.04.39.12.533a.98.98 0 0 0 .322.348c.137.09.289.154.448.19.164.037.33.057.499.057.302 0 .572-.053.807-.158.235-.106.433-.25.593-.431.16-.182.282-.39.366-.627a2.22 2.22 0 0 0 .126-.746v-.443h-.253c-.352 0-.709.015-1.065.044z"/></g><g><path fill="none" stroke="#fff" stroke-miterlimit="50" stroke-width=".5" d="M125.136 30.814c-.27-.25-.66-.376-1.172-.376-.353 0-.681.063-.983.19-.303.126-.56.294-.769.504l-.479-.568c.243-.243.565-.444.965-.605.398-.159.85-.239 1.355-.239.318 0 .617.044.894.133.277.088.52.22.73.397.21.176.375.4.492.667.118.27.177.585.177.946v2.584c0 .227.008.461.025.706.017.243.042.45.076.617h-.77a6.175 6.175 0 0 1-.088-.958h-.024c-.27.395-.574.679-.914.851-.34.172-.75.258-1.23.258-.226 0-.46-.031-.699-.094a1.945 1.945 0 0 1-.655-.31 1.745 1.745 0 0 1-.492-.557c-.13-.227-.195-.506-.195-.834 0-.456.116-.816.346-1.081.231-.266.54-.464.927-.596.386-.13.83-.214 1.33-.252a20.783 20.783 0 0 1 1.556-.057v-.187c0-.51-.135-.889-.403-1.139zm-.913 2.05c-.33.025-.656.085-.972.178-.29.09-.528.217-.713.386a.865.865 0 0 0-.278.67c0 .212.04.39.12.533a.98.98 0 0 0 .322.348c.137.09.289.154.448.19.164.037.33.057.499.057.302 0 .572-.053.807-.158.235-.106.433-.25.593-.431.16-.182.282-.39.366-.627a2.22 2.22 0 0 0 .126-.746v-.443h-.253c-.352 0-.709.015-1.065.044z"/></g><g><path fill="#fff" d="M129.357 35.768h-.857V29.87h.857v2.381h3.365V29.87h.858v5.898h-.858v-2.799h-3.365z"/></g><g><path fill="none" stroke="#fff" stroke-miterlimit="50" stroke-width=".5" d="M129.357 35.768v0h-.857v0-5.898 0h.857v2.381h3.365v0-2.381 0h.858v5.898h-.858v0-2.799 0h-3.365v0z"/></g><g><path fill="#fff" d="M140.24 30.966l-3.617 4.802h-.883V29.87h.883v4.625l3.617-4.625h.883v5.898h-.883z"/></g><g><path fill="none" stroke="#fff" stroke-miterlimit="50" stroke-width=".5" d="M140.24 30.966v0l-3.617 4.802v0h-.883v0-5.898 0h.883v4.625l3.617-4.625v0h.883v5.898h-.883v0z"/></g><g><path fill="#fff" d="M144.173 35.77h-.883v-5.897h.883v4.625l3.617-4.625h.883v5.898h-.883V30.97zm-.062-8.582l.618-.278c.117.345.276.616.478.814.201.197.479.295.832.295.369 0 .65-.105.843-.315a2.38 2.38 0 0 0 .467-.794l.616.278c-.059.167-.136.34-.233.516-.21.38-.54.68-.938.85-.219.098-.47.146-.755.146-.278 0-.521-.042-.731-.126a1.84 1.84 0 0 1-.938-.819 3.393 3.393 0 0 1-.259-.567z"/></g><g><path fill="none" stroke="#fff" stroke-miterlimit="50" stroke-width=".5" d="M144.173 35.77h-.883v-5.897h.883v4.625l3.617-4.625h.883v5.898h-.883V30.97zm-.062-8.582l.618-.278c.117.345.276.616.478.814.201.197.479.295.832.295.369 0 .65-.105.843-.315a2.38 2.38 0 0 0 .467-.794l.616.278c-.059.167-.136.34-.233.516-.21.38-.54.68-.938.85-.219.098-.47.146-.755.146-.278 0-.521-.042-.731-.126a1.84 1.84 0 0 1-.938-.819 3.393 3.393 0 0 1-.259-.567z"/></g><g><path fill="#fff" d="M19.225 21.56l-5.875-5.874 2.852-2.852 3.023 3.022L24.48 10.6l2.852 2.852z"/></g><g><g><g/><g clip-path="url(#f3eha)"><path fill="#fff" d="M36.398 15.124A15.727 15.727 0 0 0 31.09 4.232 15.722 15.722 0 0 0 19.637.282c-4.222.256-8.09 2.12-10.893 5.285a15.76 15.76 0 0 0-3.963 11.074h5.044a10.793 10.793 0 0 1 2.693-7.731 10.708 10.708 0 0 1 7.424-3.606c2.858-.18 5.669.792 7.807 2.697a10.724 10.724 0 0 1 3.617 7.426 10.722 10.722 0 0 1-2.693 7.809 10.718 10.718 0 0 1-7.423 3.617 10.728 10.728 0 0 1-7.733-2.627 2.52 2.52 0 0 0-3.419.1l-3.621 3.547L0 34.195l3.521 3.607 6.48-6.324 2.086-2.041a15.711 15.711 0 0 0 9.47 2.45 15.727 15.727 0 0 0 10.892-5.308 15.727 15.727 0 0 0 3.949-11.454"/></g></g></g></g></g></svg>