<svg xmlns="http://www.w3.org/2000/svg" width="187" height="41" viewBox="0 0 187 41"><defs><clipPath id="nq9ka"><path d="M0 38.772V.26h37.361v38.512z"/></clipPath></defs><g><g><g><path fill="#00699e" d="M48.71 36.678h-.93v-9.152h5.196v.828H48.71zM186.454 6.314v12.51h-3.753v-1.177c-.825.95-2.051 1.526-3.727 1.526-3.278 0-5.98-2.877-5.98-6.605 0-3.728 2.702-6.605 5.979-6.605 1.677 0 2.903.575 3.728 1.526V6.314zm-3.753 6.25c0-1.874-1.251-3.048-2.977-3.048-1.727 0-2.977 1.174-2.977 3.047 0 1.874 1.251 3.048 2.977 3.048s2.977-1.174 2.977-3.048zm-16.136 6.61c-2.502 0-4.279-.95-5.255-2.978l3.028-1.8c.35.975 1.126 1.525 2.276 1.525.927 0 1.477-.35 1.477-.975 0-.55-.351-.876-1.176-.876h-1.751v-3.153h1.35c.8 0 1.176-.3 1.176-.85 0-.6-.475-.9-1.175-.9-.951 0-1.602.45-2.052 1.45l-3.027-1.726c1.05-2.026 2.852-2.927 5.003-2.927 3.053 0 4.804 1.776 4.804 3.752 0 1.151-.425 2.127-1.326 2.753 1.176.625 1.827 1.676 1.827 2.952 0 2.077-1.802 3.753-5.179 3.753zm-7.005-12.86v12.51h-3.652v-6.256l-5.355 6.256h-2.752V6.314h3.653v6.254l5.354-6.254zm-13.384 3.602h-3.728v8.908h-3.753V9.916h-3.778V6.314h11.259zm-17.737 9.265c-1.677 0-2.903-.575-3.729-1.527v6.183h-3.753V6.315h3.753V7.49c.826-.952 2.052-1.527 3.728-1.527 3.277 0 5.98 2.878 5.98 6.608 0 3.73-2.702 6.61-5.98 6.61zm-.751-9.665c-1.726 0-2.978 1.174-2.978 3.047 0 1.874 1.252 3.048 2.978 3.048 1.726 0 2.977-1.174 2.977-3.048 0-1.873-1.25-3.047-2.977-3.047zm-14.886 6.306c1.026 0 1.902-.4 2.402-.951l3.002 1.726c-1.225 1.701-3.077 2.577-5.454 2.577-4.278 0-6.93-2.877-6.93-6.606 0-3.727 2.702-6.604 6.655-6.604 3.653 0 6.355 2.827 6.355 6.604 0 .526-.05 1.026-.15 1.502h-8.883c.476 1.301 1.627 1.751 3.003 1.751zm2.292-4.555c-.4-1.45-1.523-1.976-2.648-1.976-1.422 0-2.371.7-2.72 1.976zm-11.398 7.556h-3.753V9.818H95.69v9.005h-3.753V6.313h11.76zM84.658 5.963c2.426 0 4.578 1.277 5.654 3.203l-3.277 1.902c-.426-.876-1.327-1.401-2.428-1.401-1.626 0-2.826 1.175-2.826 2.901 0 1.727 1.2 2.903 2.826 2.903 1.101 0 2.027-.526 2.427-1.4l3.278 1.875c-1.076 1.952-3.202 3.228-5.654 3.228-3.804 0-6.63-2.877-6.63-6.606 0-3.727 2.826-6.604 6.63-6.604zm-11.134 12.86l-4.002-5.529v5.53h-3.753V6.314h3.753v5.479l3.753-5.48h4.379l-4.555 6.256 4.679 6.255zm-19.488.351c-3.203 0-6.005-1.576-7.506-4.053l3.453-2.002c.75 1.351 2.276 2.152 4.053 2.152 2.427 0 4.178-1.276 4.828-3.328H51.71V8.19h7.155c-.65-2.051-2.402-3.328-4.828-3.328-1.777 0-3.278.801-4.054 2.153l-3.452-2.002C48.056 2.536 50.859.96 54.037.96c5.278 0 9.106 3.953 9.106 9.107s-3.828 9.107-9.107 9.107z"/></g><g><path fill="none" stroke="#00699e" stroke-miterlimit="50" stroke-width=".5" d="M48.71 36.682v0h-.93v0-9.152 0h5.196v.828h-4.265v0z"/></g><g><path fill="#00699e" d="M54.4 39.787v-9.152h.88v1.047h.038a2.4 2.4 0 0 1 1.002-.898 2.893 2.893 0 0 1 1.273-.304c.474 0 .902.082 1.287.246.37.154.704.383.982.672.271.284.483.62.633 1.008.151.388.227.807.227 1.254 0 .448-.076.866-.227 1.254a3.039 3.039 0 0 1-.633 1.009 2.93 2.93 0 0 1-.983.671 3.253 3.253 0 0 1-1.286.246c-.43 0-.855-.101-1.273-.303a2.46 2.46 0 0 1-1.002-.873h-.039v4.123zm5.38-6.127c0-.336-.05-.652-.154-.95a2.3 2.3 0 0 0-.445-.775 2.098 2.098 0 0 0-.716-.524 2.31 2.31 0 0 0-.968-.194 2.232 2.232 0 0 0-1.664.705c-.209.224-.373.488-.482.775a2.625 2.625 0 0 0-.176.963c0 .345.059.666.176.963.115.298.276.555.483.77a2.274 2.274 0 0 0 1.663.698c.362 0 .685-.064.968-.188.274-.117.518-.294.716-.517.194-.22.342-.479.445-.775.103-.298.154-.615.154-.95z"/></g><g><path fill="none" stroke="#00699e" stroke-miterlimit="50" stroke-width=".5" d="M54.4 39.787v-9.152h.88v1.047h.038a2.4 2.4 0 0 1 1.002-.898 2.893 2.893 0 0 1 1.273-.304c.474 0 .902.082 1.287.246.37.154.704.383.982.672.271.284.483.62.633 1.008.151.388.227.807.227 1.254 0 .448-.076.866-.227 1.254a3.039 3.039 0 0 1-.633 1.009 2.93 2.93 0 0 1-.983.671 3.253 3.253 0 0 1-1.286.246c-.43 0-.855-.101-1.273-.303a2.46 2.46 0 0 1-1.002-.873h-.039v4.123zm5.38-6.127c0-.336-.05-.652-.154-.95a2.3 2.3 0 0 0-.445-.775 2.098 2.098 0 0 0-.716-.524 2.31 2.31 0 0 0-.968-.194 2.232 2.232 0 0 0-1.664.705c-.209.224-.373.488-.482.775a2.625 2.625 0 0 0-.176.963c0 .345.059.666.176.963.115.298.276.555.483.77a2.274 2.274 0 0 0 1.663.698c.362 0 .685-.064.968-.188.274-.117.518-.294.716-.517.194-.22.342-.479.445-.775.103-.298.154-.615.154-.95z"/></g><g><path fill="#00699e" d="M64.688 35.737h.026l1.874-5.107h.957l-3.012 7.614c-.181.465-.411.838-.691 1.119-.281.28-.684.42-1.209.42-.267 0-.53-.027-.789-.078l.09-.801c.207.068.423.103.647.103.301 0 .538-.093.711-.278.172-.185.323-.45.453-.795l.491-1.267-2.586-6.037h.982l2.057 5.107z"/></g><g><path fill="none" stroke="#00699e" stroke-miterlimit="50" stroke-width=".5" d="M64.688 35.737v0h.026v0l1.874-5.107v0h.957v0l-3.012 7.614c-.181.465-.411.838-.691 1.119-.281.28-.684.42-1.209.42-.267 0-.53-.027-.789-.078l.09-.801c.207.068.423.103.647.103.301 0 .538-.093.711-.278.172-.185.323-.45.453-.795l.491-1.267v0L61.65 30.63v0h.982v0l2.057 5.107v0z"/></g><g><path fill="#00699e" d="M69.74 36.68h-.88v-6.05h5.106v6.05h-.879v-5.313H69.74z"/></g><g><path fill="none" stroke="#00699e" stroke-miterlimit="50" stroke-width=".5" d="M69.74 36.68v0h-.88v0-6.05 0h5.106v6.05h-.879v0-5.313 0H69.74v0z"/></g><g><path fill="#00699e" d="M77.069 36.68h-.879v-6.05h5.106v6.05h-.88v-5.313H77.07z"/></g><g><path fill="none" stroke="#00699e" stroke-miterlimit="50" stroke-width=".5" d="M77.069 36.68v0h-.879v0-6.05 0h5.106v6.05h-.88v0-5.313 0H77.07v0z"/></g><g><path fill="#00699e" d="M86.972 31.602c-.275-.257-.677-.385-1.202-.385-.362 0-.698.064-1.008.194-.31.13-.573.302-.789.517l-.49-.582c.249-.25.579-.456.989-.62a3.716 3.716 0 0 1 1.389-.246c.327 0 .633.046.917.136.285.09.534.226.75.407.216.181.384.41.504.685.121.277.181.6.181.97v2.65c0 .233.009.473.026.724.017.25.043.461.077.633h-.788a6.335 6.335 0 0 1-.09-.983h-.026c-.277.406-.588.697-.938.873-.348.177-.769.265-1.26.265-.232 0-.472-.032-.717-.097a1.999 1.999 0 0 1-.672-.318 1.79 1.79 0 0 1-.505-.57c-.133-.234-.2-.52-.2-.856 0-.468.119-.837.356-1.11.236-.271.553-.475.95-.61.396-.133.85-.22 1.363-.259a21.31 21.31 0 0 1 1.597-.058v-.192c0-.522-.138-.911-.414-1.168zm-.937 2.103c-.337.025-.67.086-.995.181a1.887 1.887 0 0 0-.73.395c-.19.172-.285.4-.285.685 0 .216.04.397.123.543a.997.997 0 0 0 .33.356c.137.09.29.154.458.193.169.039.338.058.511.058.31 0 .586-.054.827-.16.242-.109.444-.255.608-.44.165-.188.292-.406.375-.64.086-.242.129-.496.129-.763v-.453h-.258c-.362 0-.727.016-1.093.045z"/></g><g><path fill="none" stroke="#00699e" stroke-miterlimit="50" stroke-width=".5" d="M86.972 31.602c-.275-.257-.677-.385-1.202-.385-.362 0-.698.064-1.008.194-.31.13-.573.302-.789.517l-.49-.582c.249-.25.579-.456.989-.62a3.716 3.716 0 0 1 1.389-.246c.327 0 .633.046.917.136.285.09.534.226.75.407.216.181.384.41.504.685.121.277.181.6.181.97v2.65c0 .233.009.473.026.724.017.25.043.461.077.633h-.788a6.335 6.335 0 0 1-.09-.983h-.026c-.277.406-.588.697-.938.873-.348.177-.769.265-1.26.265-.232 0-.472-.032-.717-.097a1.999 1.999 0 0 1-.672-.318 1.79 1.79 0 0 1-.505-.57c-.133-.234-.2-.52-.2-.856 0-.468.119-.837.356-1.11.236-.271.553-.475.95-.61.396-.133.85-.22 1.363-.259a21.31 21.31 0 0 1 1.597-.058v-.192c0-.522-.138-.911-.414-1.168zm-.937 2.103c-.337.025-.67.086-.995.181a1.887 1.887 0 0 0-.73.395c-.19.172-.285.4-.285.685 0 .216.04.397.123.543a.997.997 0 0 0 .33.356c.137.09.29.154.458.193.169.039.338.058.511.058.31 0 .586-.054.827-.16.242-.109.444-.255.608-.44.165-.188.292-.406.375-.64.086-.242.129-.496.129-.763v-.453h-.258c-.362 0-.727.016-1.093.045z"/></g><g><path fill="#00699e" d="M94.54 33.113c.343 0 .667.025.968.077l2.172-2.56h.983l-2.353 2.741c.716.225 1.271.606 1.668 1.144.396.538.71 1.26.943 2.165h-.982c-.121-.534-.274-.98-.459-1.338a2.606 2.606 0 0 0-.698-.866 2.532 2.532 0 0 0-.976-.465 5.834 5.834 0 0 0-1.267-.15v2.819h-.879v-6.05h.88v2.482z"/></g><g><path fill="none" stroke="#00699e" stroke-miterlimit="50" stroke-width=".5" d="M94.54 33.113c.343 0 .667.025.968.077l2.172-2.56v0h.983v0l-2.353 2.741c.716.225 1.271.606 1.668 1.144.396.538.71 1.26.943 2.165h-.982c-.121-.534-.274-.98-.459-1.338a2.606 2.606 0 0 0-.698-.866 2.532 2.532 0 0 0-.976-.465 5.834 5.834 0 0 0-1.267-.15v2.819h-.879v0-6.05 0h.88v2.482z"/></g><g><path fill="#00699e" d="M106.74 33.66c0 .457-.079.878-.238 1.266-.152.378-.379.72-.666 1.009a3.018 3.018 0 0 1-1.022.666 3.47 3.47 0 0 1-1.305.238 3.434 3.434 0 0 1-1.293-.238 3.011 3.011 0 0 1-1.021-.667 3.05 3.05 0 0 1-.666-1.008 3.297 3.297 0 0 1-.239-1.266 3.298 3.298 0 0 1 .239-1.267c.152-.377.38-.72.666-1.008a3.005 3.005 0 0 1 1.021-.666c.412-.162.85-.243 1.293-.239.474 0 .91.08 1.305.239.397.16.737.38 1.022.666.284.284.506.62.666 1.008.16.388.239.81.239 1.267m-.93 0c0-.337-.055-.653-.162-.95a2.332 2.332 0 0 0-.46-.776c-.202-.222-.448-.4-.723-.523a2.288 2.288 0 0 0-.957-.195 2.178 2.178 0 0 0-1.668.718c-.198.22-.35.478-.458.776a2.76 2.76 0 0 0-.162.95c0 .336.054.652.162.95.107.297.26.556.458.775.2.222.445.398.718.518.28.125.596.187.95.187.353 0 .672-.063.957-.187.275-.12.522-.295.724-.518.198-.22.35-.478.458-.775a2.76 2.76 0 0 0 .161-.95"/></g><g><path fill="none" stroke="#00699e" stroke-miterlimit="50" stroke-width=".5" d="M106.502 34.926c-.152.378-.379.72-.666 1.009a3.018 3.018 0 0 1-1.022.666 3.47 3.47 0 0 1-1.305.238 3.434 3.434 0 0 1-1.293-.238 3.011 3.011 0 0 1-1.021-.667 3.05 3.05 0 0 1-.666-1.008 3.297 3.297 0 0 1-.239-1.266 3.298 3.298 0 0 1 .239-1.267c.152-.377.38-.72.666-1.008a3.005 3.005 0 0 1 1.021-.666c.412-.162.85-.243 1.293-.239.474 0 .91.08 1.305.239.397.16.737.38 1.022.666.284.284.506.62.666 1.008.16.388.239.81.239 1.267 0 .457-.08.878-.239 1.266zm-.692-1.266c0-.337-.054-.653-.161-.95a2.332 2.332 0 0 0-.46-.776c-.202-.222-.448-.4-.723-.523a2.288 2.288 0 0 0-.957-.195 2.178 2.178 0 0 0-1.668.718c-.198.22-.35.478-.458.776a2.76 2.76 0 0 0-.162.95c0 .336.054.652.162.95.107.297.26.556.458.775.2.222.445.398.718.518.28.125.596.187.95.187.353 0 .672-.063.957-.187.275-.12.522-.295.724-.518.198-.22.35-.478.458-.775a2.76 2.76 0 0 0 .161-.95z"/></g><g><path fill="#00699e" d="M109.33 30.63l2.65 3.116 2.61-3.116h.751v6.05h-.879v-4.77l-2.314 2.895h-.362l-2.327-2.83v4.705h-.879v-6.05z"/></g><g><path fill="none" stroke="#00699e" stroke-miterlimit="50" stroke-width=".5" d="M109.33 30.63v0l2.65 3.116v0l2.61-3.116v0h.751v6.05h-.879v0-4.77 0l-2.314 2.895v0h-.362v0l-2.327-2.83v4.705h-.879v0-6.05 0z"/></g><g><path fill="#00699e" d="M118.44 36.68h-.88v-6.05h5.107v6.05h-.88v-5.313h-3.348z"/></g><g><path fill="none" stroke="#00699e" stroke-miterlimit="50" stroke-width=".5" d="M118.44 36.68v0h-.88v0-6.05 0h5.107v6.05h-.88v0-5.313 0h-3.348v0z"/></g><g><path fill="#00699e" d="M128.342 31.602c-.276-.257-.677-.385-1.202-.385-.362 0-.698.064-1.008.194-.31.13-.574.302-.789.517l-.49-.582c.248-.25.579-.456.989-.62a3.716 3.716 0 0 1 1.389-.246c.326 0 .633.046.917.136.284.09.534.226.75.407.215.181.384.41.504.685.121.277.181.6.181.97v2.65c0 .233.009.473.026.724.017.25.043.461.077.633h-.788a6.335 6.335 0 0 1-.09-.983h-.026c-.277.406-.589.697-.938.873-.348.177-.769.265-1.26.265-.233 0-.472-.032-.717-.097a1.995 1.995 0 0 1-.672-.318 1.79 1.79 0 0 1-.505-.57c-.133-.234-.2-.52-.2-.856 0-.468.119-.837.355-1.11.237-.271.554-.475.95-.61.397-.133.851-.22 1.364-.259a21.31 21.31 0 0 1 1.597-.058v-.192c0-.522-.138-.911-.414-1.168zm-.93 2.103a4.805 4.805 0 0 0-1 .181 1.898 1.898 0 0 0-.733.395.88.88 0 0 0-.286.685c0 .216.04.397.124.543.082.146.192.265.33.356.141.091.297.157.461.193.17.039.34.058.513.058.311 0 .588-.054.83-.16.242-.109.446-.255.61-.44.165-.186.29-.399.377-.64.086-.242.13-.496.13-.763v-.453h-.26c-.363 0-.73.016-1.097.045z"/></g><g><path fill="none" stroke="#00699e" stroke-miterlimit="50" stroke-width=".5" d="M128.342 31.602c-.276-.257-.677-.385-1.202-.385-.362 0-.698.064-1.008.194-.31.13-.574.302-.789.517l-.49-.582c.248-.25.579-.456.989-.62a3.716 3.716 0 0 1 1.389-.246c.326 0 .633.046.917.136.284.09.534.226.75.407.215.181.384.41.504.685.121.277.181.6.181.97v2.65c0 .233.009.473.026.724.017.25.043.461.077.633h-.788a6.335 6.335 0 0 1-.09-.983h-.026c-.277.406-.589.697-.938.873-.348.177-.769.265-1.26.265-.233 0-.472-.032-.717-.097a1.995 1.995 0 0 1-.672-.318 1.79 1.79 0 0 1-.505-.57c-.133-.234-.2-.52-.2-.856 0-.468.119-.837.355-1.11.237-.271.554-.475.95-.61.397-.133.851-.22 1.364-.259a21.31 21.31 0 0 1 1.597-.058v-.192c0-.522-.138-.911-.414-1.168zm-.93 2.103a4.805 4.805 0 0 0-1 .181 1.898 1.898 0 0 0-.733.395.88.88 0 0 0-.286.685c0 .216.04.397.124.543.082.146.192.265.33.356.141.091.297.157.461.193.17.039.34.058.513.058.311 0 .588-.054.83-.16.242-.109.446-.255.61-.44.165-.186.29-.399.377-.64.086-.242.13-.496.13-.763v-.453h-.26c-.363 0-.73.016-1.097.045z"/></g><g><path fill="#00699e" d="M132.669 36.68h-.879v-6.05h.879v2.442h3.452V30.63H137v6.05h-.88v-2.871h-3.451z"/></g><g><path fill="none" stroke="#00699e" stroke-miterlimit="50" stroke-width=".5" d="M132.669 36.68v0h-.879v0-6.05 0h.879v2.442h3.452v0-2.442 0H137v6.05h-.88v0-2.871 0h-3.451v0z"/></g><g><path fill="#00699e" d="M143.835 31.754l-3.71 4.925h-.905V30.63h.905v4.744l3.71-4.744h.906v6.05h-.906z"/></g><g><path fill="none" stroke="#00699e" stroke-miterlimit="50" stroke-width=".5" d="M143.835 31.754v0l-3.71 4.925v0h-.905v0-6.049 0h.905v4.744l3.71-4.744v0h.906v6.05h-.906v0z"/></g><g><path fill="#00699e" d="M147.875 36.688h-.905v-6.053h.905v4.747l3.71-4.747h.906v6.053h-.906V31.76zm-.064-8.802l.633-.286c.121.355.285.634.492.838.206.203.49.304.853.304.379 0 .667-.107.866-.324.198-.216.357-.489.479-.818l.632.286c-.06.173-.14.35-.239.532a2.01 2.01 0 0 1-.963.876c-.224.1-.482.15-.775.15a2 2 0 0 1-.75-.13 1.89 1.89 0 0 1-.963-.844 3.5 3.5 0 0 1-.265-.584z"/></g><g><path fill="none" stroke="#00699e" stroke-miterlimit="50" stroke-width=".5" d="M147.875 36.688h-.905v-6.053h.905v4.747l3.71-4.747h.906v6.053h-.906V31.76zm-.064-8.802l.633-.286c.121.355.285.634.492.838.206.203.49.304.853.304.379 0 .667-.107.866-.324.198-.216.357-.489.479-.818l.632.286c-.06.173-.14.35-.239.532a2.01 2.01 0 0 1-.963.876c-.224.1-.482.15-.775.15a2 2 0 0 1-.75-.13 1.89 1.89 0 0 1-.963-.844 3.5 3.5 0 0 1-.265-.584z"/></g><g><path fill="#0af" d="M19.715 22.11l-6.025-6.024 2.926-2.925 3.1 3.1 5.39-5.391 2.926 2.925z"/></g><g><g><g/><g clip-path="url(#nq9ka)"><path fill="#00699e" d="M37.331 15.516a16.13 16.13 0 0 0-5.443-11.172A16.125 16.125 0 0 0 20.14.293c-4.33.263-8.296 2.174-11.172 5.42a16.165 16.165 0 0 0-4.064 11.358h5.172a11.07 11.07 0 0 1 2.763-7.93 10.983 10.983 0 0 1 7.614-3.698A11.001 11.001 0 0 1 28.46 8.21a11 11 0 0 1 3.71 7.617 10.996 10.996 0 0 1-2.762 8.008 10.993 10.993 0 0 1-7.614 3.71 11.004 11.004 0 0 1-7.93-2.695 2.585 2.585 0 0 0-3.507.104L6.643 28.59 0 35.076l3.611 3.7 6.647-6.487 2.138-2.094a16.114 16.114 0 0 0 9.713 2.512 16.13 16.13 0 0 0 11.172-5.443 16.13 16.13 0 0 0 4.05-11.748"/></g></g></g></g></g></svg>