<svg xmlns="http://www.w3.org/2000/svg" width="134" height="128" viewBox="0 0 134 128"><g><g><path fill="#0af" d="M50.667 109.333V112h-11c-4.25 0-7.667 3.594-7.667 8v8h69.333v-8c0-4.406-3.416-8-7.666-8h-11v-2.667zm64-21.333A5.33 5.33 0 0 1 120 93.333a5.33 5.33 0 0 1-5.333 5.334 5.33 5.33 0 0 1-5.334-5.334A5.33 5.33 0 0 1 114.667 88zM87.583 30.917L85.917 33 64.25 60.667 47.083 45.5l-2-1.833-3.5 4 2 1.833 19.167 17 2.167 1.917 1.75-2.25 23.416-29.834 1.667-2.083zM16 13.333h101.333A2.672 2.672 0 0 1 120 16v64.01a2.672 2.672 0 0 1-2.667 2.667H16a2.672 2.672 0 0 1-2.667-2.667V16A2.672 2.672 0 0 1 16 13.333zM5.333 0A5.344 5.344 0 0 0 0 5.333v96a5.344 5.344 0 0 0 5.333 5.334H128a5.344 5.344 0 0 0 5.333-5.334v-96A5.344 5.344 0 0 0 128 0z"/></g></g></svg>