<svg xmlns="http://www.w3.org/2000/svg" width="397" height="308" viewBox="0 0 397 308"><g><g><g opacity=".2"><path fill="#e9ebef" d="M195.567 303.236l91.103-52.707c1.97-1.14 1.723-3.13-.552-4.446a8.527 8.527 0 0 0-7.685-.32l-91.103 52.708c-1.97 1.14-1.723 3.13.552 4.446a8.526 8.526 0 0 0 7.685.32z"/></g><g><path fill="#d4ecff" d="M293.956 235.165a.334.334 0 0 0-.356-.158l-4.6.938 1.777 3.055 3.138-3.453a.325.325 0 0 0 .04-.382z"/></g><g><path fill="#0af" d="M291.997 236.814a2.151 2.151 0 0 0-.962-1.686.696.696 0 0 0-.64-.086 27.156 27.156 0 0 0-14.085 3.644l-.31.18 5.216 9.134 1.578-1.03a27.37 27.37 0 0 0 8.272-8.46l.682-1.096a.704.704 0 0 0 .25-.6z"/></g><g><path fill="#f0f3f7" d="M282 246.242c-.128-2.723-1.425-5.216-3.492-6.71-1.933-1.238-3.503-.242-3.508 2.226.128 2.723 1.425 5.216 3.492 6.71 1.933 1.238 3.503.242 3.508-2.226z"/></g><g><path fill="#f0f3f7" d="M239.218 273L281 248.085 275.739 239 233 262.265 239.218 273z"/></g><g><path fill="#d4ecff" d="M240 269.966c-.165-2.995-1.833-5.737-4.49-7.38-2.484-1.363-4.504-.267-4.51 2.448.165 2.995 1.833 5.737 4.49 7.38 2.484 1.363 4.504.267 4.51-2.448z"/></g><g><path fill="#d4ecff" d="M239 270.966c-.165-2.995-1.833-5.737-4.49-7.38-2.485-1.363-4.504-.267-4.51 2.448.165 2.995 1.833 5.737 4.49 7.38 2.484 1.363 4.504.267 4.51-2.448z"/></g><g transform="rotate(-29.88 213 281)"><path fill="#f0f3f7" d="M188.52 274.88l48.804.008.002 12.492-48.804-.008z"/></g><g><path fill="#d4ecff" d="M196 295.966c-.165-2.995-1.833-5.737-4.49-7.38-2.484-1.363-4.504-.267-4.51 2.448.165 2.995 1.833 5.737 4.49 7.38 2.484 1.363 4.504.267 4.51-2.448z"/></g><g><path fill="#396caa" d="M194.996 295.176c-.258-1.958-1.415-3.701-3.15-4.748-1.655-.926-2.927-.3-2.842 1.396.258 1.958 1.415 3.701 3.15 4.748 1.655.925 2.927.3 2.842-1.396z"/></g><g><path fill="#0af" d="M241 269.966c-.165-2.995-1.833-5.737-4.49-7.38-2.484-1.363-4.504-.267-4.51 2.448.165 2.995 1.833 5.737 4.49 7.38 2.485 1.363 4.504.267 4.51-2.448z"/></g><g><path fill="#fff" d="M241.032 270.582c-.162-3.02-1.8-5.785-4.408-7.441a3.543 3.543 0 0 0-2.624-.503c.805-.8 2.113-.882 3.592-.05 2.608 1.657 4.246 4.42 4.408 7.441-.004 1.635-.715 2.681-1.806 2.971.594-.67.894-1.537.838-2.418z"/></g><g transform="rotate(-29.88 235 268.5)"><path fill="#0af" d="M233.64 262.18h2.765l.002 12.493h-2.765z"/></g><g><path fill="#f0f3f7" d="M238 271.966c-.165-2.995-1.833-5.737-4.49-7.38-2.484-1.363-4.504-.267-4.51 2.448.165 2.995 1.833 5.737 4.49 7.38 2.484 1.363 4.504.267 4.51-2.448z"/></g><g><path fill="#0af" d="M193 295.589L190.316 291l-8.964 5.06c-.62.349-1.072.926-1.259 1.604-.186.677-.09 1.4.265 2.008a2.688 2.688 0 0 0 1.633 1.236c.69.183 1.425.09 2.045-.26z"/></g><g><path fill="#0af" d="M193.3 294.621c-.073-1.362-.815-2.608-1.995-3.355-1.105-.62-2.002-.12-2.005 1.113.073 1.362.815 2.608 1.995 3.355 1.105.62 2.002.12 2.005-1.113z"/></g><g><path fill="#0af" d="M203.269 278.424l-1.348-.787a2.87 2.87 0 0 0-2.902.283l-4.672 2.702a3.563 3.563 0 0 0-1.603 2.781l-.005 2.34a1.928 1.928 0 0 1-.479 1.171l.163 1.086-1.15-.68h.002a.6.6 0 0 1-.271-.573l.005-2.34a7.43 7.43 0 0 1 3.342-5.8l4.672-2.701a4.08 4.08 0 0 1 4.128-.403l1.347.787a2.869 2.869 0 0 0 2.903-.283l18.83-10.891a.6.6 0 0 1 .62-.054v-.002l1.149.678-.993.373c-.136.42-.411.78-.78 1.02l-18.83 10.89a4.079 4.079 0 0 1-4.128.403z"/></g><g><path fill="#0af" d="M202.889 278.428a2.896 2.896 0 0 0-2.895.279l-4.66 2.657a3.494 3.494 0 0 0-1.598 2.735l-.005 2.3a1.893 1.893 0 0 1-.868 1.485c-.478.272-.864.05-.863-.497l.005-2.301a7.286 7.286 0 0 1 3.334-5.703l4.66-2.657a4.119 4.119 0 0 1 4.117-.396l1.344.774a2.896 2.896 0 0 0 2.895-.279l18.782-10.709c.478-.272.864-.05.863.497a1.893 1.893 0 0 1-.867 1.484l-18.783 10.71a4.118 4.118 0 0 1-4.117.395z"/></g><g opacity=".2"><path fill="#efefef" d="M184.918 307.612l8.398-4.802c1.013-.58.886-1.591-.283-2.26a4.43 4.43 0 0 0-3.951-.162l-8.398 4.802c-1.013.58-.886 1.591.283 2.26a4.43 4.43 0 0 0 3.951.162z"/></g><g><path fill="#ff2c9c" d="M274 60.703c.006-6.869-4.793-9.668-10.697-6.238l-100.36 58.292a6.557 6.557 0 0 0-2.943 5.127c-.002 1.889 1.313 2.656 2.936 1.713l100.361-58.292c2.663-1.547 4.827-.285 4.824 2.813l-.01 11.315c1.947-.123 3.902-.125 5.876-.09z"/></g><g><path fill="#d3008d" d="M162.936 139.597l100.34-36.855c5.902-3.429 10.71-11.804 10.716-18.671l.008-9.052c-1.974-.034-3.928-.032-5.875.09l-.01 12.375a10.782 10.782 0 0 1-4.834 8.42l-100.34 36.856a6.555 6.555 0 0 0-2.941 5.125c-.002 1.888 1.313 2.654 2.936 1.712z"/></g><g><path fill="#0670a5" d="M161 139.268L283.268 210l103.52-61.72L395 136.025l-.852 4.341L391.94 129l-192.158 7.327-33.856-2.18-4.927 5.12z"/></g><g><path fill="#fcddc0" d="M165.033 118L165 132.975 282.818 201 286 186.728 165.033 118z"/></g><g><path fill="#0af" d="M393 124.466L271.117 54l-109.89 63.861-.227 1.569L283.062 190 393 124.466z"/></g><g><path fill="#fff" d="M354.102 160.398l28.579-16.899a10.693 10.693 0 0 0 4.298-7.944l.021-2.238c.002-1.81-.759-2.978-1.928-3.317l-56.258 31.197L283 185.896l.042 15.104z"/></g><g><path fill="#0670a5" d="M287 187.679l-121.288-69.846-2.571-1.48-2.349-1.353a5.876 5.876 0 0 0-.781 2.723 2.065 2.065 0 0 0 .836 1.876v.006l.02.011.009.005L283.09 190z"/></g><g><path fill="#fff" d="M282 209.284l1.688.716.312-.394-1.052-.606-.948.284z"/></g><g><path fill="#fff" d="M282 189.119l2 .762-.502-.719-1.498-.043z"/></g><g><path fill="#0af" d="M285.979 182.52l100.328-58.061c5.902-3.416 10.699-.628 10.693 6.214l-.021 2.26c-.006 6.842-4.813 15.188-10.716 18.604l-100.328 58.061c-1.622.94-2.937.176-2.935-1.705a6.527 6.527 0 0 1 2.942-5.107l100.328-58.062a10.736 10.736 0 0 0 4.832-8.39l.021-2.26c.003-3.086-2.16-4.343-4.822-2.802l-100.328 58.061c-1.623.94-2.938.175-2.936-1.706a6.527 6.527 0 0 1 2.942-5.106z"/></g><g><path fill="#fff" d="M241 126.933L293.483 97 339 123.068 286.517 153 241 126.933z"/></g><g><path fill="#fff" d="M282.611 207.837a6.483 6.483 0 0 1 2.95-5.08l100.574-57.751a10.662 10.662 0 0 0 4.844-8.345l.021-2.249c.002-2.01-.93-3.232-2.32-3.412.502.728.751 1.6.709 2.483l-.021 2.248a10.663 10.663 0 0 1-4.845 8.345L283.949 201.83a6.483 6.483 0 0 0-2.949 5.08c-.001 1.417.757 2.192 1.831 2.08a2.814 2.814 0 0 1-.22-1.152z"/></g><g><path fill="#fff" d="M282.613 187.826a6.555 6.555 0 0 1 2.953-5.127L386.263 124.4c2.551-1.477 4.894-1.793 6.737-1.132-1.969-1.687-4.978-1.759-8.35.194l-100.698 58.299a6.555 6.555 0 0 0-2.952 5.127c-.001 1.432.757 2.214 1.833 2.101a2.862 2.862 0 0 1-.22-1.163z"/></g><g><path fill="#dfe2e5" d="M270 15.703c.006-6.869-4.793-9.667-10.697-6.238l-100.36 58.292A6.558 6.558 0 0 0 156 72.884c-.002 1.889 1.313 2.656 2.936 1.713l100.361-58.293c2.663-1.546 4.827-.284 4.824 2.814l-.01 11.315c1.947-.123 3.902-.125 5.876-.09z"/></g><g><path fill="#5793ce" d="M158.936 94.597l100.34-36.855c5.902-3.429 10.71-11.804 10.716-18.671l.008-9.052c-1.974-.034-3.928-.032-5.875.09l-.01 12.375a10.782 10.782 0 0 1-4.834 8.42L158.941 87.76A6.556 6.556 0 0 0 156 92.885c-.002 1.888 1.313 2.654 2.936 1.712z"/></g><g><path fill="#bec4ca" d="M157 94.268L279.268 165l103.52-61.72L391 91.026l-.853 4.34L387.94 84l-192.157 7.327-33.856-2.18-4.927 5.12z"/></g><g><path fill="#86b8e0" d="M161.033 73L161 87.975 278.818 156 282 141.728 161.033 73z"/></g><g><path fill="#f0f3f7" d="M389 79.466L267.117 9l-109.89 63.861L157 74.43 279.063 145 389 79.466z"/></g><g><path fill="#fff" d="M350.102 115.398l28.579-16.899a10.692 10.692 0 0 0 4.298-7.944l.021-2.238c.002-1.81-.759-2.978-1.928-3.317l-56.258 31.197L279 140.896l.042 15.104z"/></g><g><path fill="#5793ce" d="M283 142.679L161.712 72.833l-2.571-1.48L156.792 70a5.873 5.873 0 0 0-.781 2.723 2.064 2.064 0 0 0 .836 1.876v.006l.02.011.009.005L279.09 145z"/></g><g><path fill="#fff" d="M278 164.285l1.689.715.311-.394-1.052-.606-.948.285z"/></g><g><path fill="#fff" d="M278 144.119l2 .762-.5-.719-1.5-.043z"/></g><g><path fill="#f0f3f7" d="M281.979 138.52L382.307 80.46c5.902-3.416 10.7-.628 10.693 6.214l-.021 2.26c-.006 6.842-4.813 15.188-10.715 18.604l-100.329 58.061c-1.622.94-2.937.176-2.935-1.705a6.527 6.527 0 0 1 2.941-5.107l100.329-58.062a10.736 10.736 0 0 0 4.832-8.39l.021-2.26c.003-3.086-2.16-4.343-4.822-2.802l-100.329 58.061c-1.622.94-2.937.175-2.935-1.705a6.527 6.527 0 0 1 2.942-5.107z"/></g><g><path fill="#fff" d="M237 81.933L289.483 52 335 78.068 282.517 108 237 81.933z"/></g><g><path fill="#fff" d="M278.612 162.837a6.483 6.483 0 0 1 2.948-5.08l100.574-57.751a10.662 10.662 0 0 0 4.845-8.345l.021-2.249c.002-2.01-.93-3.232-2.32-3.412.502.728.751 1.6.708 2.483l-.02 2.248a10.663 10.663 0 0 1-4.845 8.345L279.949 156.83a6.483 6.483 0 0 0-2.949 5.08c-.001 1.417.757 2.192 1.831 2.08a2.812 2.812 0 0 1-.22-1.152z"/></g><g><path fill="#fff" d="M278.613 143.826a6.555 6.555 0 0 1 2.953-5.127L382.263 80.4c2.55-1.477 4.894-1.793 6.737-1.132-1.969-1.687-4.978-1.758-8.35.194l-100.698 58.299a6.554 6.554 0 0 0-2.952 5.127c-.001 1.432.757 2.214 1.833 2.101a2.862 2.862 0 0 1-.22-1.163z"/></g><g opacity=".15"><path fill="#efefef" d="M144.76 293.44L2.713 211.795c-4.019-2.31-3.515-6.344 1.125-9.011l96.724-55.577c4.64-2.667 11.66-2.956 15.677-.647l142.048 81.647c4.019 2.31 3.515 6.344-1.125 9.011l-96.724 55.577c-4.64 2.667-11.66 2.956-15.678.647z"/></g><g><path fill="#00699e" d="M290.544 82.553L149.04.868a5.711 5.711 0 0 0-4.795-.588l.009-.014-.257.097-.063.023-5.113 1.957 4.59 2.247c-.021.084-.048.163-.067.25l-23.048 104.9c-1.154 5.25 1.156 11.378 5.16 13.689l138.099 79.72-.493 5.851 5.59-2.166a7.853 7.853 0 0 0 4.002-5.692l23.048-104.9c1.154-5.25-1.156-11.378-5.16-13.69z"/></g><g><path fill="#4385f5" d="M291.526 82.612L149.904.87a5.717 5.717 0 0 0-4.8-.588l.01-.015-.258.097-.062.024-5.118 1.958 4.593 2.248c-.02.085-.047.164-.066.25L129 74.028 198.294 128 296 88.254a10.99 10.99 0 0 0-4.474-5.642z"/></g><g><path fill="#0af" d="M285.424 99l10.551-4.475A13.143 13.143 0 0 0 291.701 84L275 90.999z"/></g><g><path fill="#f0f3f7" d="M258.253 209.115l-141.786-81.937c-4.01-2.318-6.325-8.466-5.17-13.731L134.392 8.223c1.156-5.266 5.344-7.655 9.355-5.338l141.786 81.937c4.01 2.318 6.325 8.466 5.17 13.731l-23.095 105.224c-1.156 5.266-5.344 7.655-9.355 5.338z"/></g><g><path fill="#0af" d="M287.527 83.871L145.589 1.874A5.607 5.607 0 0 0 140 1.63a5.83 5.83 0 0 1 4.226.743L286.164 84.37c4.015 2.32 6.332 8.473 5.175 13.743L268.22 203.415a8.002 8.002 0 0 1-3.776 5.585c2.396-.524 4.396-2.698 5.139-6.083l23.12-105.303c1.156-5.27-1.16-11.423-5.176-13.743z"/></g><g><path fill="#fff" d="M255.09 201.191l-133.097-76.87c-3.663-2.116-5.777-7.73-4.721-12.54l21.093-96.097c1.056-4.81 4.882-6.992 8.545-4.875l133.097 76.869c3.663 2.117 5.777 7.732 4.721 12.54l-21.093 96.098c-1.056 4.81-4.882 6.992-8.545 4.875z"/></g><g><path fill="#045077" d="M255.09 201.191l-133.097-76.87c-3.663-2.116-5.777-7.73-4.721-12.54l21.093-96.097c1.056-4.81 4.882-6.992 8.545-4.875l133.097 76.869c3.663 2.117 5.777 7.732 4.721 12.54l-21.093 96.098c-1.056 4.81-4.882 6.992-8.545 4.875z"/></g><g><path fill="#4385f5" d="M256.95 200.723L123.183 123.79c-3.681-2.118-5.806-7.738-4.745-12.55l21.2-96.178a7.378 7.378 0 0 1 3.37-5.062c-2.12.543-3.873 2.525-4.536 5.535l-21.2 96.177c-1.06 4.813 1.064 10.433 4.746 12.551l133.764 76.933a5.155 5.155 0 0 0 5.217.184 5.348 5.348 0 0 1-4.05-.657z"/></g><g><path fill="#00699e" d="M260.997 212.349l-19.418-2.56-125.343-72.226c-4.018-2.315-11.037-2.025-15.677.649l-88.818 51.16L0 187.826v6.65h.012a4.563 4.563 0 0 0 2.695 4.108l142.05 81.854c4.02 2.315 11.039 2.025 15.679-.649l96.726-55.718c2.61-1.504 3.911-3.442 3.835-5.262z"/></g><g><path fill="#0af" d="M167 167.113L158.085 162H60.073l-48.319 27.692L0 188.15v6.625l.012.001a4.546 4.546 0 0 0 2.698 4.092l142.206 81.553a14.8 14.8 0 0 0 8.1 1.508z"/></g><g><path fill="#5793ce" d="M5 188.675L0 188v6.54l.011.001c.02 1.747 1.03 3.323 2.587 4.04L5 200z"/></g><g><path fill="#0af" d="M146 281.09a16.965 16.965 0 0 0 13-.848V265h-13z"/></g><g><path fill="#f0f3f7" d="M144.76 273.44L2.713 191.795c-4.019-2.31-3.515-6.344 1.125-9.011l96.724-55.577c4.64-2.667 11.66-2.956 15.677-.647l142.048 81.647c4.019 2.31 3.515 6.344-1.125 9.011l-96.724 55.577c-4.64 2.667-11.66 2.956-15.678.647z"/></g><g><path fill="#fff" d="M257.17 215.35l-96.73 55.987c-4.64 2.687-11.66 2.978-15.679.652L2.704 189.741A5.296 5.296 0 0 1 .206 187c-.628 1.906.173 3.834 2.498 5.181l142.057 82.248c4.02 2.327 11.039 2.035 15.679-.651l96.73-55.987c3.119-1.806 4.36-4.232 3.624-6.337a7.566 7.566 0 0 1-3.624 3.897z"/></g><g><path fill="#d1d9e2" d="M62.828 164.795l-6.477-3.812c-.52-.306-.455-.84.146-1.193l7.645-4.5a2.218 2.218 0 0 1 2.03-.085l6.477 3.811c.52.306.455.841-.146 1.194l-7.645 4.5a2.218 2.218 0 0 1-2.03.085z"/></g><g><path fill="#d1d9e2" d="M72.828 170.795l-6.477-3.812c-.52-.306-.455-.84.146-1.193l7.645-4.5a2.218 2.218 0 0 1 2.03-.085l6.477 3.811c.52.306.455.841-.146 1.194l-7.645 4.5a2.218 2.218 0 0 1-2.03.085z"/></g><g><path fill="#d1d9e2" d="M82.829 176.795l-6.478-3.812c-.52-.306-.455-.84.146-1.193l7.645-4.5a2.218 2.218 0 0 1 2.03-.085l6.477 3.811c.52.306.455.841-.146 1.194l-7.645 4.5a2.218 2.218 0 0 1-2.03.085z"/></g><g><path fill="#d1d9e2" d="M96.927 171.801l-6.57-3.697c-.528-.297-.462-.816.147-1.158l6.51-3.664a2.34 2.34 0 0 1 2.059-.083l6.57 3.697c.528.297.462.816-.147 1.158l-6.51 3.664a2.34 2.34 0 0 1-2.059.083z"/></g><g><path fill="#d1d9e2" d="M106.927 177.801l-6.57-3.697c-.528-.297-.462-.816.147-1.158l6.51-3.664a2.34 2.34 0 0 1 2.059-.083l6.57 3.697c.528.297.462.816-.147 1.158l-6.51 3.664a2.34 2.34 0 0 1-2.059.083z"/></g><g><path fill="#d1d9e2" d="M115.927 182.801l-6.57-3.697c-.528-.297-.462-.816.147-1.158l6.51-3.664a2.34 2.34 0 0 1 2.059-.083l6.57 3.697c.528.297.462.816-.147 1.158l-6.51 3.664a2.34 2.34 0 0 1-2.059.083z"/></g><g><path fill="#d1d9e2" d="M125.927 188.801l-6.57-3.697c-.528-.297-.462-.816.147-1.158l6.51-3.664a2.34 2.34 0 0 1 2.059-.083l6.57 3.697c.528.297.462.816-.147 1.158l-6.51 3.664a2.34 2.34 0 0 1-2.059.083z"/></g><g><path fill="#d1d9e2" d="M135.927 194.801l-6.57-3.697c-.528-.297-.462-.816.147-1.158l6.51-3.664a2.34 2.34 0 0 1 2.059-.083l6.57 3.697c.528.297.462.816-.147 1.159l-6.51 3.663a2.34 2.34 0 0 1-2.059.083z"/></g><g><path fill="#d1d9e2" d="M145.927 200.801l-6.57-3.697c-.528-.297-.462-.816.147-1.158l6.51-3.664a2.34 2.34 0 0 1 2.059-.083l6.57 3.697c.528.297.462.816-.147 1.159l-6.51 3.663a2.34 2.34 0 0 1-2.059.083z"/></g><g><path fill="#d1d9e2" d="M155.927 205.801l-6.57-3.697c-.528-.297-.462-.816.147-1.158l6.51-3.664a2.341 2.341 0 0 1 2.059-.083l6.57 3.697c.528.297.462.816-.147 1.159l-6.51 3.663a2.34 2.34 0 0 1-2.059.083z"/></g><g><path fill="#d1d9e2" d="M165.927 211.801l-6.57-3.697c-.528-.297-.462-.816.147-1.158l6.51-3.664a2.34 2.34 0 0 1 2.059-.083l6.57 3.697c.528.297.462.816-.147 1.159l-6.51 3.663a2.34 2.34 0 0 1-2.059.083z"/></g><g><path fill="#d1d9e2" d="M175.927 217.801l-6.57-3.697c-.528-.297-.462-.816.147-1.158l6.51-3.664a2.34 2.34 0 0 1 2.059-.083l6.57 3.697c.528.297.462.816-.147 1.159l-6.51 3.663a2.34 2.34 0 0 1-2.059.083z"/></g><g><path fill="#d1d9e2" d="M185.927 222.801l-6.57-3.697c-.528-.297-.462-.816.147-1.158l6.51-3.664a2.34 2.34 0 0 1 2.059-.083l6.57 3.697c.528.297.462.816-.147 1.158l-6.51 3.664a2.34 2.34 0 0 1-2.059.083z"/></g><g><path fill="#d1d9e2" d="M110.927 168.801l-6.57-3.697c-.528-.297-.462-.816.147-1.158l6.51-3.664a2.34 2.34 0 0 1 2.059-.083l6.57 3.697c.528.297.462.816-.147 1.158l-6.51 3.664a2.34 2.34 0 0 1-2.059.083z"/></g><g><path fill="#d1d9e2" d="M100.927 162.801l-6.57-3.697c-.528-.297-.462-.816.147-1.158l6.51-3.664a2.34 2.34 0 0 1 2.059-.083l6.57 3.697c.528.297.462.816-.147 1.158l-6.51 3.664a2.34 2.34 0 0 1-2.059.083z"/></g><g><path fill="#d1d9e2" d="M91.15 156.805l-13.803-7.804c-.514-.29-.45-.799.145-1.134l6.35-3.59a2.273 2.273 0 0 1 2.007-.082l13.804 7.804c.514.29.45.799-.145 1.135l-6.35 3.59a2.273 2.273 0 0 1-2.007.081z"/></g><g><path fill="#d1d9e2" d="M98.323 150.797l-10.982-6.591c-.505-.303-.442-.832.14-1.182l6.227-3.736a2.114 2.114 0 0 1 1.968-.085l10.983 6.591c.505.303.442.832-.141 1.182l-6.226 3.736a2.114 2.114 0 0 1-1.969.085z"/></g><g><path fill="#d1d9e2" d="M120.927 174.801l-6.57-3.697c-.528-.297-.462-.816.147-1.158l6.51-3.664a2.34 2.34 0 0 1 2.059-.083l6.57 3.697c.528.297.462.816-.147 1.158l-6.51 3.664a2.34 2.34 0 0 1-2.059.083z"/></g><g><path fill="#d1d9e2" d="M130.927 180.801l-6.57-3.697c-.528-.297-.462-.816.147-1.158l6.51-3.664a2.34 2.34 0 0 1 2.059-.083l6.57 3.697c.528.297.462.816-.147 1.159l-6.51 3.663a2.34 2.34 0 0 1-2.059.083z"/></g><g><path fill="#d1d9e2" d="M140.927 185.801l-6.57-3.697c-.528-.297-.462-.816.147-1.158l6.51-3.664a2.34 2.34 0 0 1 2.059-.083l6.57 3.697c.528.297.462.816-.147 1.159l-6.51 3.663a2.34 2.34 0 0 1-2.059.083z"/></g><g><path fill="#d1d9e2" d="M150.927 191.801l-6.57-3.697c-.528-.297-.462-.816.147-1.158l6.51-3.664a2.34 2.34 0 0 1 2.059-.083l6.57 3.697c.528.297.462.816-.147 1.159l-6.51 3.663a2.341 2.341 0 0 1-2.059.083z"/></g><g><path fill="#d1d9e2" d="M160.927 197.801l-6.57-3.697c-.528-.297-.462-.816.147-1.158l6.51-3.664a2.34 2.34 0 0 1 2.059-.083l6.57 3.697c.528.297.462.816-.147 1.159l-6.51 3.663a2.341 2.341 0 0 1-2.059.083z"/></g><g><path fill="#d1d9e2" d="M170.927 203.801l-6.57-3.697c-.528-.297-.462-.816.147-1.158l6.51-3.664a2.34 2.34 0 0 1 2.059-.083l6.57 3.697c.528.297.462.816-.147 1.159l-6.51 3.663a2.341 2.341 0 0 1-2.059.083z"/></g><g><path fill="#d1d9e2" d="M180.927 208.801l-6.57-3.697c-.528-.297-.462-.816.147-1.158l6.51-3.664a2.34 2.34 0 0 1 2.059-.083l6.57 3.697c.528.297.462.816-.147 1.158l-6.51 3.664a2.341 2.341 0 0 1-2.059.083z"/></g><g><path fill="#d1d9e2" d="M190.927 214.801l-6.57-3.697c-.528-.297-.462-.816.147-1.158l6.51-3.664a2.34 2.34 0 0 1 2.059-.083l6.57 3.697c.528.297.462.816-.147 1.158l-6.51 3.664a2.34 2.34 0 0 1-2.059.083z"/></g><g><path fill="#d1d9e2" d="M199.927 220.801l-6.57-3.697c-.528-.297-.462-.816.147-1.158l6.51-3.664a2.34 2.34 0 0 1 2.059-.083l6.57 3.697c.528.297.462.816-.147 1.158l-6.51 3.664a2.34 2.34 0 0 1-2.059.083z"/></g><g><path fill="#d1d9e2" d="M218.22 230.807l-13.875-7.844c-.51-.29-.447-.793.143-1.127l6.3-3.562a2.256 2.256 0 0 1 1.992-.08l13.875 7.843c.51.29.447.793-.143 1.127l-6.3 3.562a2.256 2.256 0 0 1-1.992.08z"/></g><g><path fill="#d1d9e2" d="M237.15 219.803l-11.803-6.746c-.514-.294-.45-.808.145-1.148l6.35-3.63a2.252 2.252 0 0 1 2.008-.082l11.803 6.746c.514.294.45.808-.145 1.148l-6.35 3.63a2.251 2.251 0 0 1-2.007.082z"/></g><g><path fill="#d1d9e2" d="M138.927 173.801l-6.57-3.697c-.528-.297-.462-.816.147-1.159l6.51-3.663a2.341 2.341 0 0 1 2.059-.083l6.57 3.697c.528.297.462.816-.147 1.158l-6.51 3.664a2.34 2.34 0 0 1-2.059.083z"/></g><g><path fill="#d1d9e2" d="M127.927 167.801l-6.57-3.697c-.528-.297-.462-.816.147-1.158l6.51-3.664a2.34 2.34 0 0 1 2.059-.083l6.57 3.697c.528.297.462.816-.147 1.158l-6.51 3.664a2.34 2.34 0 0 1-2.059.083z"/></g><g><path fill="#d1d9e2" d="M117.927 161.801l-6.57-3.697c-.528-.297-.462-.816.147-1.158l6.51-3.664a2.34 2.34 0 0 1 2.059-.083l6.57 3.697c.528.297.462.816-.147 1.158l-6.51 3.664a2.34 2.34 0 0 1-2.059.083z"/></g><g><path fill="#d1d9e2" d="M107.927 155.801l-6.57-3.697c-.528-.297-.462-.816.147-1.159l6.51-3.663a2.34 2.34 0 0 1 2.059-.083l6.57 3.697c.528.297.462.816-.147 1.158l-6.51 3.664a2.34 2.34 0 0 1-2.059.083z"/></g><g><path fill="#d1d9e2" d="M147.927 179.801l-6.57-3.697c-.528-.297-.462-.816.147-1.159l6.51-3.663a2.34 2.34 0 0 1 2.059-.083l6.57 3.697c.528.297.462.816-.147 1.158l-6.51 3.664a2.34 2.34 0 0 1-2.059.083z"/></g><g><path fill="#d1d9e2" d="M157.927 184.801l-6.57-3.697c-.528-.297-.462-.816.147-1.159l6.51-3.663a2.34 2.34 0 0 1 2.059-.083l6.57 3.697c.528.297.462.816-.147 1.158l-6.51 3.664a2.34 2.34 0 0 1-2.059.083z"/></g><g><path fill="#d1d9e2" d="M167.927 190.801l-6.57-3.697c-.528-.297-.462-.816.147-1.159l6.51-3.663a2.34 2.34 0 0 1 2.059-.083l6.57 3.697c.528.297.462.816-.147 1.158l-6.51 3.664a2.34 2.34 0 0 1-2.059.083z"/></g><g><path fill="#d1d9e2" d="M177.927 196.801l-6.57-3.697c-.528-.297-.462-.816.147-1.158l6.51-3.664a2.34 2.34 0 0 1 2.059-.083l6.57 3.697c.528.297.462.816-.147 1.158l-6.51 3.664a2.34 2.34 0 0 1-2.059.083z"/></g><g><path fill="#d1d9e2" d="M187.927 201.801l-6.57-3.697c-.528-.297-.462-.816.147-1.158l6.51-3.664a2.34 2.34 0 0 1 2.059-.083l6.57 3.697c.528.297.462.816-.147 1.158l-6.51 3.664a2.34 2.34 0 0 1-2.059.083z"/></g><g><path fill="#d1d9e2" d="M197.927 207.801l-6.57-3.697c-.528-.297-.462-.816.147-1.158l6.51-3.664a2.34 2.34 0 0 1 2.059-.083l6.57 3.697c.528.297.462.816-.147 1.158l-6.51 3.664a2.34 2.34 0 0 1-2.059.083z"/></g><g><path fill="#d1d9e2" d="M207.927 213.801l-6.57-3.697c-.528-.297-.462-.816.147-1.158l6.51-3.664a2.34 2.34 0 0 1 2.059-.083l6.57 3.697c.528.297.462.816-.147 1.158l-6.51 3.664a2.34 2.34 0 0 1-2.059.083z"/></g><g><path fill="#d1d9e2" d="M217.927 219.801l-6.57-3.697c-.528-.297-.462-.816.147-1.158l6.51-3.664a2.34 2.34 0 0 1 2.059-.083l6.57 3.697c.528.297.462.816-.147 1.158l-6.51 3.664a2.34 2.34 0 0 1-2.059.083z"/></g><g><path fill="#d1d9e2" d="M227.927 224.801l-6.57-3.697c-.528-.297-.462-.816.147-1.158l6.51-3.664a2.34 2.34 0 0 1 2.059-.083l6.57 3.697c.528.297.462.816-.147 1.158l-6.51 3.664a2.34 2.34 0 0 1-2.059.083z"/></g><g><path fill="#d1d9e2" d="M132.927 159.801l-6.57-3.697c-.528-.297-.462-.816.147-1.159l6.51-3.663a2.34 2.34 0 0 1 2.059-.083l6.57 3.697c.528.297.462.816-.147 1.158l-6.51 3.664a2.34 2.34 0 0 1-2.059.083z"/></g><g><path fill="#d1d9e2" d="M122.927 153.801l-6.57-3.697c-.528-.297-.462-.816.147-1.158l6.51-3.664a2.34 2.34 0 0 1 2.059-.083l6.57 3.697c.528.297.462.816-.147 1.158l-6.51 3.664a2.34 2.34 0 0 1-2.059.083z"/></g><g><path fill="#d1d9e2" d="M113.927 147.801l-6.57-3.697c-.528-.297-.462-.816.147-1.158l6.51-3.664a2.34 2.34 0 0 1 2.059-.083l6.57 3.697c.528.297.462.816-.147 1.158l-6.51 3.664a2.34 2.34 0 0 1-2.059.083z"/></g><g><path fill="#d1d9e2" d="M103.927 142.801l-6.57-3.697c-.528-.297-.462-.816.147-1.159l6.51-3.663a2.34 2.34 0 0 1 2.059-.083l6.57 3.697c.528.297.462.816-.147 1.158l-6.51 3.664a2.34 2.34 0 0 1-2.059.083z"/></g><g><path fill="#d1d9e2" d="M113.545 136.787l-6.208-3.953c-.499-.317-.436-.871.14-1.238l2.033-1.294a1.984 1.984 0 0 1 1.945-.09l6.208 3.953c.499.318.436.872-.14 1.239l-2.033 1.294a1.984 1.984 0 0 1-1.945.09z"/></g><g><path fill="#d1d9e2" d="M126.545 143.787l-6.209-3.952c-.498-.318-.435-.872.14-1.239l2.034-1.294a1.984 1.984 0 0 1 1.945-.09l6.208 3.954c.499.317.436.871-.14 1.238l-2.033 1.294a1.984 1.984 0 0 1-1.945.09z"/></g><g><path fill="#d1d9e2" d="M136.545 149.787l-6.208-3.953c-.499-.317-.436-.871.14-1.238l2.033-1.294a1.984 1.984 0 0 1 1.945-.09l6.208 3.953c.499.318.436.872-.14 1.239l-2.033 1.294a1.984 1.984 0 0 1-1.945.09z"/></g><g><path fill="#d1d9e2" d="M146.545 155.787l-6.208-3.952c-.499-.318-.436-.872.14-1.239l2.033-1.294a1.984 1.984 0 0 1 1.945-.09l6.208 3.954c.499.317.436.871-.14 1.238l-2.033 1.294a1.984 1.984 0 0 1-1.945.09z"/></g><g><path fill="#d1d9e2" d="M156.545 160.787l-6.208-3.953c-.499-.317-.436-.871.14-1.238l2.033-1.294a1.984 1.984 0 0 1 1.945-.09l6.208 3.953c.499.318.436.872-.14 1.239l-2.033 1.294a1.984 1.984 0 0 1-1.945.09z"/></g><g><path fill="#d1d9e2" d="M210.545 192.787l-6.208-3.952c-.499-.318-.436-.872.14-1.239l2.033-1.294a1.984 1.984 0 0 1 1.945-.09l6.208 3.954c.499.317.436.871-.14 1.238l-2.033 1.294a1.984 1.984 0 0 1-1.945.09z"/></g><g><path fill="#d1d9e2" d="M220.545 198.787l-6.208-3.953c-.499-.317-.436-.871.14-1.238l2.033-1.294a1.984 1.984 0 0 1 1.945-.09l6.208 3.953c.499.318.436.872-.14 1.239l-2.033 1.294a1.984 1.984 0 0 1-1.945.09z"/></g><g><path fill="#d1d9e2" d="M230.545 203.787l-6.208-3.953c-.499-.317-.436-.871.14-1.238l2.033-1.294a1.984 1.984 0 0 1 1.945-.09l6.208 3.954c.499.317.436.871-.14 1.238l-2.033 1.294a1.984 1.984 0 0 1-1.945.09z"/></g><g><path fill="#d1d9e2" d="M240.545 209.787l-6.208-3.952c-.499-.318-.436-.872.14-1.239l2.033-1.294a1.984 1.984 0 0 1 1.945-.09l6.208 3.953c.499.318.436.872-.14 1.239l-2.033 1.294a1.984 1.984 0 0 1-1.945.09z"/></g><g><path fill="#d1d9e2" d="M142.927 164.801l-6.57-3.697c-.528-.297-.462-.816.147-1.159l6.51-3.663a2.34 2.34 0 0 1 2.059-.083l6.57 3.697c.528.297.462.816-.147 1.158l-6.51 3.664a2.34 2.34 0 0 1-2.059.083z"/></g><g><path fill="#d1d9e2" d="M152.927 170.801l-6.57-3.697c-.528-.297-.462-.816.147-1.159l6.51-3.663a2.34 2.34 0 0 1 2.059-.083l6.57 3.697c.528.297.462.816-.147 1.158l-6.51 3.664a2.34 2.34 0 0 1-2.059.083z"/></g><g><path fill="#d1d9e2" d="M162.927 176.801l-6.57-3.697c-.528-.297-.462-.816.147-1.158l6.51-3.664a2.34 2.34 0 0 1 2.059-.083l6.57 3.697c.528.297.462.816-.147 1.158l-6.51 3.664a2.34 2.34 0 0 1-2.059.083z"/></g><g><path fill="#d1d9e2" d="M172.927 182.801l-6.57-3.697c-.528-.297-.462-.816.147-1.158l6.51-3.664a2.34 2.34 0 0 1 2.059-.083l6.57 3.697c.528.297.462.816-.147 1.158l-6.51 3.664a2.34 2.34 0 0 1-2.059.083z"/></g><g><path fill="#d1d9e2" d="M182.927 187.801l-6.57-3.697c-.528-.297-.462-.816.147-1.158l6.51-3.664a2.34 2.34 0 0 1 2.059-.083l6.57 3.697c.528.297.462.816-.147 1.158l-6.51 3.664a2.34 2.34 0 0 1-2.059.083z"/></g><g><path fill="#d1d9e2" d="M192.927 193.801l-6.57-3.697c-.528-.297-.462-.816.147-1.158l6.51-3.664a2.34 2.34 0 0 1 2.059-.083l6.57 3.697c.528.297.462.816-.147 1.158l-6.51 3.664a2.34 2.34 0 0 1-2.059.083z"/></g><g><path fill="#d1d9e2" d="M202.927 199.801l-6.57-3.697c-.528-.297-.462-.816.147-1.158l6.51-3.664a2.34 2.34 0 0 1 2.059-.083l6.57 3.697c.528.297.462.816-.147 1.158l-6.51 3.664a2.34 2.34 0 0 1-2.059.083z"/></g><g><path fill="#d1d9e2" d="M212.927 204.801l-6.57-3.697c-.528-.297-.462-.816.147-1.158l6.51-3.664a2.34 2.34 0 0 1 2.059-.083l6.57 3.697c.528.297.462.816-.147 1.158l-6.51 3.664a2.34 2.34 0 0 1-2.059.083z"/></g><g><path fill="#d1d9e2" d="M222.927 210.801l-6.57-3.697c-.528-.297-.462-.816.147-1.158l6.51-3.664a2.34 2.34 0 0 1 2.059-.083l6.57 3.697c.528.297.462.816-.147 1.158l-6.51 3.664a2.341 2.341 0 0 1-2.059.083z"/></g><g><path fill="#d1d9e2" d="M86.173 165.803l-18.826-10.76c-.514-.293-.45-.805.143-1.144l6.334-3.62c.617-.34 1.36-.371 2.003-.082l18.826 10.76c.514.293.45.805-.143 1.144l-6.334 3.62c-.617.34-1.36.37-2.003.082z"/></g><g><path fill="#d1d9e2" d="M208.173 235.803l-18.826-10.76c-.514-.293-.45-.805.143-1.144l6.334-3.62c.617-.34 1.36-.37 2.003-.082l18.827 10.76c.513.293.448.805-.144 1.144l-6.334 3.62c-.617.34-1.36.371-2.003.082z"/></g><g><path fill="#d1d9e2" d="M168.829 225.795l-6.478-3.812c-.52-.306-.455-.84.146-1.193l7.645-4.5a2.218 2.218 0 0 1 2.03-.085l6.477 3.811c.52.306.455.841-.146 1.194l-7.645 4.5a2.218 2.218 0 0 1-2.03.085z"/></g><g><path fill="#d1d9e2" d="M96.77 184.8l-10.417-5.955c-.523-.299-.457-.821.147-1.166l7.689-4.395a2.289 2.289 0 0 1 2.04-.084l10.418 5.955c.523.299.457.821-.147 1.166l-7.689 4.395a2.288 2.288 0 0 1-2.04.084z"/></g><g><path fill="#d1d9e2" d="M158.771 220.8l-10.418-5.955c-.523-.299-.457-.821.147-1.166l7.689-4.395a2.288 2.288 0 0 1 2.04-.084l10.418 5.955c.523.299.457.821-.147 1.166l-7.688 4.395a2.289 2.289 0 0 1-2.041.084z"/></g><g><path fill="#d1d9e2" d="M110.771 192.8l-10.418-5.955c-.523-.299-.457-.821.147-1.166l7.688-4.395a2.288 2.288 0 0 1 2.041-.084l10.418 5.955c.523.299.457.821-.147 1.166l-7.688 4.395a2.289 2.289 0 0 1-2.041.084z"/></g><g><path fill="#d1d9e2" d="M110.77 181l44.813 26.072c.25.085.417.321.417.586 0 .265-.168.501-.417.586l-7.757 4.513a2.21 2.21 0 0 1-2.014 0L101 186.685z"/></g><g><path fill="#d1d9e2" d="M196.32 236.157l7.385 3.978c.437.235.382.646-.122.917l-3.201 1.725a2.014 2.014 0 0 1-1.702.066l-7.385-3.978c-.437-.235-.382-.646.122-.917l3.201-1.725a2.014 2.014 0 0 1 1.702-.066z"/></g><g><path fill="#d1d9e2" d="M186.32 230.157l7.386 3.978c.436.235.381.646-.123.917l-3.201 1.725a2.013 2.013 0 0 1-1.702.066l-7.385-3.978c-.437-.235-.382-.646.122-.917l3.201-1.725a2.014 2.014 0 0 1 1.702-.066z"/></g><g><path fill="#d1d9e2" d="M176.32 225.157l7.386 3.978c.436.235.381.646-.123.917l-3.201 1.725a2.013 2.013 0 0 1-1.702.066l-7.385-3.978c-.437-.235-.382-.646.122-.917l3.201-1.725a2.013 2.013 0 0 1 1.702-.066z"/></g><g><path fill="#d1d9e2" d="M191.32 227.157l7.386 3.978c.436.235.381.646-.123.917l-3.201 1.725a2.013 2.013 0 0 1-1.702.066l-7.385-3.978c-.437-.235-.382-.646.122-.917l3.201-1.725a2.014 2.014 0 0 1 1.702-.066z"/></g><g><path fill="#d4ecff" d="M231.314 116L178 85.44l.685-3.44L232 112.56l-.686 3.44z"/></g><g><path fill="#d4ecff" d="M212.312 122L175 100.472l.688-3.472L213 118.528l-.688 3.472z"/></g><g><path fill="#fff" d="M208.311 111L176 92.457l.689-3.457L209 107.543l-.689 3.457z"/></g><g><path fill="#0af" d="M229.305 123L213 113.53l.694-3.53L230 119.47l-.695 3.53z"/></g><g><path fill="#d4ecff" d="M172.305 55L156 45.532l.694-3.532L173 51.468 172.305 55z"/></g><g><path fill="#fff" d="M170.306 63L154 53.53l.694-3.53L171 59.47l-.694 3.53z"/></g><g><path fill="#d4ecff" d="M249.305 175L233 165.53l.694-3.53L250 171.47l-.695 3.53z"/></g><g><path fill="#d4ecff" d="M166.305 79L150 69.53l.694-3.53L167 75.47l-.695 3.53z"/></g><g><path fill="#0af" d="M201.812 81.719c-.217.57-.635 1.002-1.147 1.185-.512.184-1.067.1-1.522-.228-1.006-.69-1.415-2.144-.955-3.395.217-.57.635-1.002 1.147-1.185a1.629 1.629 0 0 1 1.522.228c1.006.69 1.415 2.144.955 3.395z"/></g><g><path fill="#fff" d="M207.812 85.719c-.217.57-.635 1.002-1.147 1.185-.512.184-1.067.1-1.522-.228-1.006-.69-1.415-2.144-.955-3.395.217-.57.635-1.002 1.147-1.185a1.629 1.629 0 0 1 1.521.228c1.007.69 1.416 2.144.956 3.395z"/></g><g><path fill="#d4ecff" d="M214.812 89.719c-.217.57-.635 1.002-1.147 1.185-.512.184-1.067.1-1.522-.228-1.006-.69-1.415-2.144-.955-3.395.217-.57.635-1.002 1.147-1.185a1.629 1.629 0 0 1 1.522.228c1.006.69 1.415 2.144.955 3.395z"/></g><g><path fill="#0af" d="M221.812 93.719c-.217.57-.635 1.002-1.147 1.185-.512.184-1.067.1-1.522-.228-1.006-.69-1.415-2.144-.955-3.395.217-.57.635-1.002 1.147-1.185a1.629 1.629 0 0 1 1.521.228c1.007.69 1.416 2.144.956 3.395z"/></g><g><path fill="#0af" d="M140.96 54.376l-32.71-19.068a1.966 1.966 0 0 0-1.857-.137l.007-.021-3.899 1.85s1.464.517 2.323.823l-4.72 24.052a5.046 5.046 0 0 0 1.937 5.077l31.263 18.226L132.75 88l3.938-1.864-.018-.006a2.876 2.876 0 0 0 1.406-2.118l4.82-24.559a5.046 5.046 0 0 0-1.937-5.077z"/></g><g><path fill="#00699e" d="M130.75 87.683L98.04 68.745a4.994 4.994 0 0 1-1.936-5.043l4.82-24.39c.384-1.944 1.873-2.837 3.327-1.995l32.708 18.938a4.994 4.994 0 0 1 1.937 5.043l-4.82 24.39c-.384 1.944-1.873 2.837-3.327 1.995z"/></g><g><path fill="#fff" d="M111.947 60.337c-.057.646-.474 1.215-1.095 1.49-.62.277-1.35.218-1.912-.154-1.411-.865-2.151-2.437-1.887-4.01.057-.646.474-1.215 1.095-1.49a2.009 2.009 0 0 1 1.912.154c1.412.865 2.151 2.437 1.887 4.01z"/></g><g><path fill="#fff" d="M118.947 64.337c-.057.646-.474 1.215-1.095 1.49-.62.277-1.35.218-1.912-.154-1.412-.865-2.151-2.437-1.887-4.01.057-.646.474-1.215 1.095-1.49a2.009 2.009 0 0 1 1.912.154c1.412.865 2.151 2.437 1.887 4.01z"/></g><g><path fill="#fff" d="M124.947 68.337c-.057.646-.474 1.215-1.095 1.49-.62.277-1.35.218-1.912-.154-1.412-.865-2.151-2.437-1.887-4.01.057-.646.474-1.215 1.095-1.49a2.009 2.009 0 0 1 1.912.154c1.411.866 2.151 2.437 1.887 4.01z"/></g><g><path fill="#00699e" d="M125.96 23.376L93.25 4.308a1.965 1.965 0 0 0-1.857-.137l.007-.022L87.501 6s1.464.517 2.323.823l-4.72 24.052a5.046 5.046 0 0 0 1.937 5.077l31.263 18.226L117.75 57l3.938-1.864-.018-.006a2.875 2.875 0 0 0 1.406-2.118l4.82-24.559a5.046 5.046 0 0 0-1.936-5.077z"/></g><g><path fill="#0af" d="M115.75 56.683L83.04 37.745a4.994 4.994 0 0 1-1.936-5.043l4.82-24.39c.384-1.944 1.873-2.837 3.327-1.995l32.708 18.938a4.995 4.995 0 0 1 1.937 5.043l-4.82 24.39c-.384 1.944-1.873 2.837-3.327 1.995z"/></g><g><path fill="#fff" d="M96.947 29.337c-.057.646-.474 1.215-1.095 1.49-.62.277-1.35.218-1.912-.154-1.411-.866-2.151-2.437-1.887-4.01.057-.646.474-1.215 1.095-1.49a2.009 2.009 0 0 1 1.912.154c1.411.865 2.151 2.437 1.887 4.01z"/></g><g><path fill="#fff" d="M103.947 33.337c-.057.646-.474 1.215-1.095 1.49-.62.277-1.35.218-1.912-.154-1.411-.866-2.151-2.437-1.887-4.01.057-.646.474-1.215 1.095-1.49a2.009 2.009 0 0 1 1.912.154c1.411.866 2.151 2.437 1.887 4.01z"/></g><g><path fill="#fff" d="M110.947 37.337c-.057.646-.474 1.215-1.095 1.49-.62.277-1.35.218-1.912-.154-1.411-.865-2.151-2.437-1.887-4.01.057-.646.474-1.215 1.095-1.49a2.009 2.009 0 0 1 1.912.154c1.412.865 2.151 2.437 1.887 4.01z"/></g></g></g></svg>