<svg xmlns="http://www.w3.org/2000/svg" width="115" height="150" viewBox="0 0 115 150"><g><g><g><path fill="#fff" d="M81.53 0H3.913C1.752 0 0 1.754 0 5.159V147.32C0 148.246 1.752 150 3.913 150h107.174c2.161 0 3.913-1.754 3.913-2.679V34.762c0-1.864-.249-2.464-.687-2.906L83.193.688A2.361 2.361 0 0 0 81.53 0z"/></g><g><path fill="#dfe2e5" d="M82 0v32h32z"/></g><g><path fill="#cc4b4c" d="M56.972 31.493c-3.83-3.922-.521-8.556-.258-8.644m11.897 37.645c-5.732 1.346-11.835 3.25-17.449 5.429 2.726-6.502 5.262-13.68 7.183-20.33 3.016 5.424 6.64 10.686 10.266 14.9zm14.665 2.496c2.388 0 2.826.355 3.157.53-.062.194-.218.554-.618 1.115-.83 1.159-2.622 1.186-3.25 1.186-1.432 0-1.967-.852-4.156-2.538 1.805-.23 3.511-.29 4.867-.293zM34.688 84.459c-1.257-.963-1.184-1.613-1.157-1.86.169-1.495 2.509-4.147 8.249-7.375-4.354 8.041-6.691 9.108-7.092 9.235zm7.42-1.116c2.003-2.817 4.155-6.657 6.4-11.425 7.193-3.148 16.092-5.991 23.713-7.585 4.24 4.077 8.044 6.141 11.31 6.141 2.405 0 4.468-1.107 5.964-3.2 1.555-2.18 1.907-4.135 1.047-5.806-1.04-2.022-3.588-3.003-7.795-3.003-2.468 0-5.498.326-9.02.963-4.915-5.22-10.045-12.843-13.666-20.325 3.591-15.13 1.794-17.272 1.002-18.283C60.219 19.744 59.029 18 57.676 18c-.57 0-2.117.258-2.73.462-1.55.516-2.38 1.71-3.045 3.266-1.9 4.443.706 12.017 3.387 17.855-2.291 9.12-6.135 20.034-10.175 28.893-10.18 4.666-15.587 9.246-16.076 13.622-.177 1.591.199 3.927 2.995 6.026a4.31 4.31 0 0 0 2.597.876c2.35 0 4.725-1.8 7.478-5.658z"/></g><g><path fill="#cc4b4c" d="M111.087 150H3.913C1.752 150 0 148.228 0 146.041V104h115v42.041c0 2.187-1.752 3.959-3.913 3.959z"/></g><g><g><path fill="#fff" d="M28.42 118.722h3.31c1.128 0 2.037.174 2.723.522.686.348 1.22.78 1.601 1.297.38.517.63 1.058.754 1.622.12.561.183 1.062.183 1.495 0 1.08-.135 1.987-.404 2.72-.27.733-.624 1.303-1.066 1.711a4.047 4.047 0 0 1-1.453.883 4.898 4.898 0 0 1-1.6.272H28.42zm-.005 23.282v-9.588h3.277c1.421 0 2.725-.203 3.901-.612 1.177-.409 2.184-.986 3.018-1.73.835-.743 1.486-1.663 1.952-2.757.466-1.094.7-2.312.7-3.66 0-1.275-.277-2.422-.83-3.443a8.505 8.505 0 0 0-2.172-2.612 9.367 9.367 0 0 0-3.037-1.622 11.163 11.163 0 0 0-3.422-.54H24v26.564z"/></g><g><path fill="#fff" d="M55.255 138.832h-4.377V118.72h2.575c2.109 0 3.825.271 5.149.812 1.323.54 2.372 1.25 3.145 2.127a6.969 6.969 0 0 1 1.563 2.937c.269 1.081.403 2.175.403 3.28 0 3.556-.662 6.272-1.985 8.146-1.324 1.875-3.481 2.81-6.473 2.81zm12.259-15.483a11.578 11.578 0 0 0-2.558-4.018c-1.141-1.176-2.58-2.122-4.308-2.829-1.728-.706-3.734-1.062-6.017-1.062H46.46v26.564h10.268c.345 0 .873-.042 1.584-.121.71-.085 1.496-.277 2.355-.578.86-.303 1.748-.751 2.668-1.352.921-.601 1.748-1.424 2.485-2.47.738-1.047 1.344-2.344 1.823-3.894.48-1.55.719-3.42.719-5.605a13.06 13.06 0 0 0-.848-4.635z"/></g><g><path fill="#fff" d="M79.25 118.72v8.362h11.338v2.956H79.251v11.966H74.76V115.44h16.967v3.28z"/></g></g></g></g></svg>