<svg xmlns="http://www.w3.org/2000/svg" width="26" height="26" viewBox="0 0 26 26"><g><g><g><path fill="#bec4ca" d="M1.52 10.01a1 1 0 0 0-1.004 1.178l1.496 8.974a1 1 0 1 0 1.973-.328L2.489 10.86a1 1 0 0 0-.97-.85zm22-4a1 1 0 0 0-1.004 1.178l1.496 8.974a1 1 0 1 0 1.973-.328L24.489 6.86a1 1 0 0 0-.97-.85zm-6.295-3.992l3.174 20.127-11.627 1.834L5.598 3.852l2.385-.377.156.113c.379.276.852.39 1.316.317l3.8-.598c.463-.073.88-.328 1.155-.707l.114-.154zm-5.699-.23a.444.444 0 0 1 .137.875l-1.754.275A.444.444 0 0 1 9.4 2.57a.44.44 0 0 1 .368-.506zm1.74-.276a.444.444 0 0 1 .139.875.442.442 0 0 1-.506-.37.44.44 0 0 1 .367-.505zm4.158-1.51a1.82 1.82 0 0 0-.373.02l-3.4.535-6.207.977v.001l-2.295.362a1.875 1.875 0 0 0-1.547 2.129l3.217 20.402a1.874 1.874 0 0 0 2.127 1.547L20.848 24.1a1.875 1.875 0 0 0 1.547-2.129L19.178 1.569A1.877 1.877 0 0 0 17.424.002z"/></g></g></g></svg>