<svg xmlns="http://www.w3.org/2000/svg" width="62" height="71" viewBox="0 0 62 71"><defs><mask id="wsjbb" width="2" height="2" x="-1" y="-1"><path fill="#fff" d="M13 14h36v47H13z"/><path d="M31 14c-8.8 0-17.985 6.988-18 17-.018 11.981 18 30 18 30s18.019-17.994 18-30c-.016-9.997-9.2-17-18-17z"/></mask><filter id="wsjba" width="86" height="98" x="-12" y="-12" filterUnits="userSpaceOnUse"><feOffset dy="-1" in="SourceGraphic" result="FeOffset1034Out"/><feGaussianBlur in="FeOffset1034Out" result="FeGaussianBlur1035Out" stdDeviation="6 6"/></filter></defs><g><g><g><g filter="url(#wsjba)"><path fill="none" d="M31 14c-8.8 0-17.985 6.988-18 17-.018 11.981 18 30 18 30s18.019-17.994 18-30c-.016-9.997-9.2-17-18-17z" mask="url(&quot;#wsjbb&quot;)"/><path fill-opacity=".5" d="M31 14c-8.8 0-17.985 6.988-18 17-.018 11.981 18 30 18 30s18.019-17.994 18-30c-.016-9.997-9.2-17-18-17z"/></g><path fill="#fff" d="M31 14c-8.8 0-17.985 6.988-18 17-.018 11.981 18 30 18 30s18.019-17.994 18-30c-.016-9.997-9.2-17-18-17z"/></g><g><path fill="#0af" d="M31 39a8 8 0 1 1 0-16 8 8 0 0 1 0 16z"/></g></g></g></svg>