<svg xmlns="http://www.w3.org/2000/svg" width="27" height="30" viewBox="0 0 27 30"><g><g><path fill="#0af" d="M9.45 19.09v2.728h6.75v-2.727zm-4.05 0v2.728h2.7v-2.727zM13.5 15v2.727h2.7V15zm-4.05 0v2.727h2.7V15zM5.4 15v2.727h2.7V15zm16.2-1.364v1.636c-1.35.409-2.7 1.637-2.7 3.819 0 2.59 2.16 3.41 3.51 3.955 1.62.682 1.89.818 1.89 1.5 0 .681-.27 1.363-1.35 1.363s-1.35-.682-1.35-1.364h-2.7c0 1.364.81 3.274 2.7 3.82V30h2.7v-1.635c1.89-.546 2.7-2.456 2.7-3.82 0-2.59-2.16-3.41-3.51-3.955-1.62-.681-1.89-.817-1.89-1.5 0-1.09.675-1.363 1.35-1.363 1.08 0 1.35.682 1.35 1.364H27c0-1.364-.81-3.274-2.7-3.82v-1.635zm-8.1-2.727v2.727h2.7V10.91zm-4.05 0v2.727h2.7V10.91zm-4.05 0v2.727h2.7V10.91zM2.7 2.727h16.2v2.718H2.7zM2.7 0C1.208 0 0 1.22 0 2.727v21.818c0 1.507 1.208 2.728 2.7 2.728h14.077a7.086 7.086 0 0 1-.577-2.728H2.7V8.182h16.2v2.727h2.7V2.727C21.6 1.22 20.392 0 18.9 0z"/></g></g></svg>