<svg xmlns="http://www.w3.org/2000/svg" width="128" height="75" viewBox="0 0 128 75"><g><g><path fill="#0af" d="M125.904 53.673c-.334.077-1.12 5.385-.841 5.477m-9.664-10.37c-.157.068-.28.22-.368.477-.298.872 1.032 2.442 1.483 3.097 1.331 1.932 2.812 3.73 3.938 5.8.314.576.579 1.899 1.19 2.255 1.107.65 1.053-.44 1.603-1.09.09-.104.76.55.762-.378.003-.487-.906-.857-1.22-1.05-.545-.337-2.699-1.1-2.026-2.166.418-.663 1.691.402 1.539-.847-.105-.838-1.986-1.84-2.56-2.36-.666-.604-3.238-4.22-4.34-3.738zm9.679-4.262c-.21-.006-.44.07-.687.249.522.255.975 1.933 1.115 2.594.17.805-.049 1.621.1 2.43.117.652.43 1.268.567 1.92.135.643.367 2.545 1.18.962.37-.72-.404-2.51-.916-3.027.613-1.015.107-5.087-1.36-5.128zM5.228 18.943c-1.099.007-.002 2.492.748 3.027 1.516 1.08 1.043-2.343-.13-2.868-.254-.113-.46-.16-.617-.159zm45.973-1.409c-2.008.115-3.858.833-5.79 2.18-1.254.875-2.937 2.155-2.226 3.924.446 1.109 2.32 2.083 2.41.199.344-2.748 3.89-3.699 6.178-3.928 1.14-.115 2.677.317 3.72-.264 1.483-.828.624-1.395-.449-1.673-1.375-.355-2.638-.507-3.843-.438zm18.804-1.573c-1.15.005-2.932 2.244-1.43 2.897 1.423.617 3.481-1.458 1.873-2.748a.69.69 0 0 0-.443-.15zm22.548-2.066c-2.06-.411-8.897 2.44-6.607 4.75.95-.36 1.882.401 2.838-.075.907-.452 1.147-1.708 1.897-2.35.515-.441 2.692-1.017 2.424-1.937-.058-.203-.258-.33-.552-.388zM66.968 12.59c-1.047.174-1.95 1.863-1.952 2.664-.005 1.545 1.004 1.7 2.25 1.294 1.573-.512 1.53-.968.947-2.24-.345-.747.126-1.43-.792-1.693a1.014 1.014 0 0 0-.453-.025zM52.704 8.085c-.894.087-.856 1.13-.552 1.897.443 1.116 2.438 2.462 3.564 2.743 1.025.255 3.385-.214 3.416-1.618.043-1.95-2.9-1.215-3.993-1.628-.67-.253-1.329-1.25-1.992-1.37a1.625 1.625 0 0 0-.443-.024zm46.983-3.316c-1.115.06-1.066 2.322-.473 3.042 1.229.488 1.936-2.521 1.026-2.923a1.216 1.216 0 0 0-.553-.119zM110.759.463c-1.669-.077-2.865 1.491-4.022 3.017-.197.262-.368.492-.493.637-.393.456-.98.848-1.658 1.31-.803.545-1.709 1.164-2.51 2.04-1.554 1.698-2.05 3.676-2.489 5.417-.31 1.236-.58 2.301-1 2.888-.087.028-.357.054-.553.074-.88.087-2.359.233-3.575 1.549-.754.815-1.104 1.588-1.339 2.106-.04.005-.088.007-.14.01-.26.015-.511.02-.76.025-1.334.028-3.35.07-5.044 1.807-1.377 1.41-1.32 2.932-1.22 3.908-.038.066-.074.133-.11.199-2.327-2.523-4.54-2.045-6.024-1.155-.69.413-1.12.844-1.533 1.265a9.93 9.93 0 0 1-.622.119 3.705 3.705 0 0 0-.428-2.644c-.992-1.725-2.803-1.917-3.675-2.01-.089-.011-.18-.018-.243-.02-.013-.011-.03-.018-.045-.03-.423-.352-1.129-.944-2.166-1.066-1.629-.194-2.885.538-3.724 2.24-.173.186-.587.293-1.25.448-.859.202-1.932.449-2.972 1.18-.9.635-1.328 1.438-1.583 1.917a3.704 3.704 0 0 0-.05.105c-.007 0-.02.005-.03.005-.262.048-.54.104-.85.194-.83.237-1.413.665-1.933 1.07-.089 0-.174-.007-.258-.01-.082-.002-.163-.002-.25-.005a3.475 3.475 0 0 0-.438-.966c-.374-.58-1.274-1.562-3.066-1.598-2.328.003-3.716 1.5-4.491 3.181-.647-.662-1.495-1.078-2.693-.965a3.715 3.715 0 0 0-1.658.577c-.064-.061-.135-.13-.214-.209-.755-.737-1.892-1.852-4.247-1.942l-1-.03c-.533-.015-1.035-.029-1.514-.054 1.463-2.623.632-7.278.199-8.28-.711-1.636-1.758-2.633-3.112-2.957-1.363-.326-2.755.093-4.152 1.25-.63.525-1.458.957-2.33 1.414-1.083.566-2.306 1.205-3.405 2.16-.461.4-.797.753-1.08 1.05-.02.021-.045.043-.065.066a7.147 7.147 0 0 1-.413-.085l-.264-.075c-.688-.211-2.781-.845-4.356.931-.02.023-.045.05-.065.075-1.183-.247-2.615-.207-4.47.856-2.175 1.244-2.61 3.28-2.898 4.625-.102.48-.196.929-.344 1.26l-.224.533c-.033.074-.064.16-.105.254-.553-.125-1.43-.195-2.31.353-.79.5-1.278 1.306-1.443 2.395-.176 1.131.27 2.01.597 2.579-.005.007-.01.022-.015.03-.217.361-.49.81-.677 1.379-.632 1.921-.225 3.364.244 4.68.036.094.062.182.09.263-.47-.097-1.063-.176-1.723-.08-.953.138-1.627.588-2.2 1.016-.049-.01-.097-.022-.14-.03-.522-.12-1.758-.393-2.887.473-1.234.946-1.3 2.465-1.33 3.196-.028.622-.058 2.792.638 4.66.293.793.72 1.405 1.065 1.897.155.222.318.437.438.692.26.561.47 1.306.692 2.096.158.561.31 1.11.458 1.519.043.214.062.527.09.87.153 1.829.413 4.889 3.166 5.358 3.123.533 4.265-2.923 4.645-4.058l.135-.383c.107-.265.256-.63.378-.861.028.01.051.017.08.025.606.183 1.878.561 3.3-.145 2.261-1.126 2.403-3.461 2.485-4.79.005-.086.014-.169.02-.248.683.257 1.522.311 2.643-.214.194-.054.301-.06.309-.07.247.179.707.981 1.12 1.718.805 1.417 1.864 2.174 2.718 2.778.607.425.963.686 1.21 1.06l.154.244c.515.808 1.379 2.168 3.43 2.51.63.104 1.81.302 2.858-.489.778-.59 1.019-1.372 1.12-1.991.327.013.675-.032 1.011-.154a2.534 2.534 0 0 0 1.235-.966c.471.196.912.368 1.274.473.8.232 1.548.285 2.206.333.273.018.537.037.776.075-.002.02-.007.04-.01.06-.03.15-.047.3-.05.453a2.55 2.55 0 0 0 1.614 2.41c.135.183.266.377.363.527.174.441.473.842.886 1.14h.005c.961.683 1.973.694 2.793.513.033.709.065 1.317.185 1.832l.074.334c.21.968.552 2.586 2.086 3.649a2.625 2.625 0 0 0 1.718.443c.464.199 1.08.469 1.314.642.283.21.53.524.837.926.57.745 1.343 1.768 2.768 2.505 2.78 1.445 4.77.465 6.223-.254.3-.15.621-.31.98-.458.419-.171.451-.187 1.51.343.45.227.932.47 1.473.682.782.304 3.176 1.24 5.098-.373.777-.653 1.217-1.366 1.324-2.156l.13.105c.382.308.774.606 1.2.851 1.508.862 2.662.793 3.564.737.191-.013.398-.03.632-.03.472-.028 1.232.219 1.977.453 1.356.423 3.047.949 4.934.518 1.577-.36 2.61-1.247 3.365-1.897.742-.64.957-.704 1.23-.737 1.843.049 5.663.141 6.611-4.496.112-.542.433-2.452-.169-4.127a.737.737 0 0 1-.03-.08c.467-.06 1.047-.04 1.314.09.526.298 1.042.781 1.643 1.34 1.15 1.07 2.578 2.399 4.85 3.156 1.54.512 3.697.278 5.356-.448-.005.01-.014.014-.02.025-.471.7-1.253 1.873-1 3.838.219 1.968.627 5.636 3.61 5.636l.01.01c2.306-.005 5.53-4.027 5.56-4.068 1.349-1.787 1.568-3.941 1.603-5.81.092-4.67-.576-8.67-1.996-11.883-1.784-4.058-3.833-6.29-6.084-6.627-.782-.117-2.231-.086-3.58 1.245.202-1.221.508-2.592.648-3.221.117-.523.208-.957.259-1.23.32-1.746.821-2.986 1.573-3.903.24-.293.686-.63 1.16-.986.92-.69 2.065-1.549 2.763-2.912 1.086-2.121.33-3.901-.124-4.964-.057-.135-.116-.273-.17-.408.296-.105.63-.247.961-.458.224.318.448.634.677.95.439.602.878 1.2 1.245 1.843.257.45.414 1.054.592 1.747.37 1.45.88 3.434 2.818 4.87.061.048 6.656 4.495 8.917 1.737 1.46-1.797-.034-3.688-.598-4.401-.168-.21-.363-.429-.478-.638-.262-.634-.6-1.125-.876-1.523-.117-.168-.244-.334-.333-.523-.072-.148-.136-.424-.205-.712-.132-.563-.304-1.262-.706-1.991-1.255-2.254-3.388-3.01-4.665-3.46-.923-.33-1.982-1.568-1.887-2.674.053-.632.106-1.063.154-1.359 1.733-.675 2.162-2.17 2.2-3.36.054-1.609-.76-3.096-1.413-4.292-.169-.306-.331-.596-.453-.861.043-.064.09-.136.13-.19.31-.448 1.133-1.64.537-3.086-.28-.67-.935-1.53-2.485-1.812a8.878 8.878 0 0 0-1.03-.09c-.23-.01-.719-.036-1.175-.09.028-.02.057-.041.085-.064 2.64-2.154 1.79-4.323 1.035-5.437-.392-.576-.892-.844-1.26-1.04-.027-.018-.06-.032-.094-.05-.24-1.208-1.082-1.896-1.867-2.146a2.847 2.847 0 0 0-.742-.14z"/></g></g></svg>