<svg xmlns="http://www.w3.org/2000/svg" width="23" height="30" viewBox="0 0 23 30"><g><g><path fill="#bec4ca" d="M21.186 19.2c0 5.309-4.33 9.6-9.685 9.6s-9.684-4.291-9.684-9.6v-4.8h19.369zM11.445 2.981a.714.714 0 0 0-.076.019c-.019.005-.038.012-.057.019a.536.536 0 0 0-.057.018.73.73 0 0 0-.113.075.575.575 0 0 0-.076.057.573.573 0 0 0-.075.093L8.645 5.57a.605.605 0 0 0 0 .862c.241.24.63.24.87 0l1.381-1.369v5.475L9.516 9.17A.613.613 0 0 0 8.947 9a.6.6 0 0 0-.303 1.031l2.421 2.4a.607.607 0 0 0 .87 0l2.421-2.4a.605.605 0 0 0 0-.862.617.617 0 0 0-.87 0l-1.38 1.368V5.062l1.38 1.37c.242.238.63.238.87 0a.605.605 0 0 0 0-.863l-2.345-2.307A.603.603 0 0 0 11.615 3a.593.593 0 0 0-.17-.018zM11.5 1.2c5.355 0 9.685 4.291 9.685 9.6v3.6H1.817v-3.6c0-5.309 4.33-9.6 9.684-9.6zm0-1.2C5.491 0 .607 4.842.607 10.8v4.013a.61.61 0 0 0 0 .356V19.2C.607 25.158 5.49 30 11.5 30s10.895-4.842 10.895-10.8v-4.088a.605.605 0 0 0 0-.243V10.8c0-5.958-4.885-10.8-10.895-10.8z"/></g></g></svg>