<svg xmlns="http://www.w3.org/2000/svg" width="137" height="154" viewBox="0 0 137 154"><g><g><path fill="#0af" d="M92.91 45.719l-1.665 2.579-25.484 38.59-16.858-14.805-2.255-2.006-4.214 4.49 2.352 2.1 19.407 17.195 2.744 2.388 2.058-3.057 27.542-41.647 1.667-2.58zM69.112 6.016c5.1 0 11.013 3.417 20.742 8.404 9.244 4.734 22.244 10.543 41.095 14.974C129.81 113.224 73 144.67 69.014 146.771c-1.926-.93-15.35-7.62-30.143-25.02C23.28 103.406 7.844 73.905 7.274 29.393c18.852-4.431 31.852-10.24 41.096-14.974 9.728-4.987 15.64-8.404 20.741-8.404zM68.5 0c-7.638 0-14.084 4.19-23.644 9.082-9.56 4.89-22.392 10.796-42.423 15.168L0 24.83v2.415c0 47.364 16.724 79.016 33.472 98.64 16.748 19.625 33.763 27.439 33.763 27.439l1.362.676 1.363-.676S137 118.93 137 27.244V24.83l-2.433-.58c-20.031-4.371-32.863-10.276-42.423-15.167C82.584 4.19 76.138 0 68.5 0z"/></g></g></svg>