<svg xmlns="http://www.w3.org/2000/svg" width="70" height="74" viewBox="0 0 70 74"><g><g><path fill="#00699e" d="M52.008 56.087c7.027 1.553 13.043 7.249 14.054 13.68H50.915l4.703-5.886c.192-.218.321-.484.383-.763a1.162 1.162 0 0 0 0-.218 1.736 1.736 0 0 0-.71-1.526l-3.938-2.78zm-34.061-.164l.711 2.673-3.94 2.782c-.39.28-.643.709-.704 1.186-.062.47.075.948.376 1.323l4.706 5.89H3.883c.964-5.304 6.054-11.672 14.064-13.854zm24.873-2.616c-.013.061-.034.102-.054.163-.63 2.255-1.504 4.933-2.352 7.522a366.384 366.384 0 0 1-1.695 5.07l-1.969-6.76 1.586-3.924c.718-.225 1.627-.531 2.57-.981.322-.15.663-.307.985-.49.184-.103.362-.212.547-.328.13-.081.252-.184.382-.272zm-15.64 0c.622.443 1.278.79 1.914 1.09.943.45 1.852.756 2.57.981l1.586 3.924-1.969 6.76a366.384 366.384 0 0 1-1.695-5.07c-.848-2.589-1.723-5.267-2.352-7.522-.02-.061-.04-.102-.054-.163zm19.518-1.145c.99.96 1.748 1.88 2.13 2.344l-1.201 4.36c-.171.702.109 1.445.71 1.854l3.387 2.398-5.3 6.65h-5.299c.656-1.874 1.564-4.45 2.623-7.686.853-2.623 1.7-5.341 2.349-7.685.232-.845.423-1.526.6-2.235zm-23.51-.436c.198.818.43 1.663.71 2.67.65 2.345 1.498 5.063 2.352 7.686 1.06 3.236 1.969 5.812 2.625 7.686H23.57l-5.304-6.65 3.39-2.398a1.745 1.745 0 0 0 .711-1.854l-1.258-4.742c.725-.994 1.456-1.819 2.079-2.398zM37.46 3.597l1.203 2.399c.294.606.91.988 1.586.98 2.434 0 4.115.812 5.414 2.072 1.299 1.26 2.215 3.066 2.734 5.07.52 2.002.63 4.148.438 5.995-.191 1.846-.773 3.38-1.203 3.924a1.736 1.736 0 0 0-.294 1.574c.164.538.574.967 1.114 1.151-.007.014-.034.035 0 .11.123.3.287.92.219 1.744-.157 1.696-.581 2.616-.875 2.997-.288.375-.439.33-.386.328a1.742 1.742 0 0 0-1.692 1.471c-.226 1.485-.916 3.318-1.64 4.797-.363.742-.719 1.39-1.04 1.853-.321.463-.663.75-.492.654a1.757 1.757 0 0 0-.875 1.472c0 2.37.17 3.876.328 6.322v.328c0 .176-.014.36-.11.544-.095.191-.26.368-.492.6-.458.45-1.182.879-1.968 1.254-.704.333-1.374.585-1.914.763-.09.027-.192.081-.274.109-.342.102-.71.19-.82.218h-2.844c-.294-.075-1.6-.423-3.008-1.09-.786-.375-1.51-.804-1.968-1.254-.458-.45-.602-.797-.602-1.145a1.79 1.79 0 0 0-.11-.708c.151-2.255.274-3.673.274-6.105a1.74 1.74 0 0 0-.871-1.524c.12.068-.22-.156-.55-.602a12.42 12.42 0 0 1-1.095-1.798c-.731-1.438-1.387-3.284-1.53-4.797a1.749 1.749 0 0 0-1.587-1.58c.062.013.02 0-.11 0a.996.996 0 0 1-.273-.273c-.307-.402-.745-1.39-.984-2.998v-.054c-.007-.028.007-.028 0-.055-.027-1.322.793-2.057.656-1.962a1.736 1.736 0 0 0 .602-2.126c-2.147-4.837-1.839-10.015.765-13.953 2.475-3.748 7.144-6.439 14.274-6.705zM27.293 40.5a3 3 0 0 1-.004-.002l.004.002zM38.5 0c-8.675 0-14.964 3.393-18.266 8.394-3.103 4.701-3.404 10.676-1.312 16.188-.773.954-1.422 2.194-1.258 4.143v.109c.294 2.125.937 3.624 1.75 4.687.397.518.984.532 1.477.818.294 1.887.854 3.802 1.64 5.341.445.872.889 1.642 1.367 2.29.212.286.493.47.711.708-.02 1.492-.109 2.834-.218 4.252h-.055a1.704 1.704 0 0 0-.875.218s-2.974 1.866-5.414 5.287C7.226 54.928 0 63.588 0 71.512c0 .96.786 1.744 1.75 1.744h29.148c.335.102.705.102 1.04 0h6.234c.335.102.704.102 1.039 0H68.25A1.75 1.75 0 0 0 70 71.512c0-9.552-8.647-17.251-18.21-18.914-.452-.6-2.305-3.004-4.923-4.905a.825.825 0 0 0-.11-.11c-.088-.06-.184-.102-.273-.163a1.764 1.764 0 0 0-1.093-.381 76.246 76.246 0 0 1-.164-4.306c.191-.232.471-.389.656-.654.465-.661.943-1.472 1.367-2.344.752-1.54 1.34-3.352 1.695-5.124.56-.286 1.203-.306 1.64-.872.842-1.097 1.334-2.657 1.532-4.796.11-1.268.02-2.412-.383-3.38-.13-.306-.348-.592-.547-.872.568-1.22.93-2.616 1.094-4.197.24-2.262.144-4.783-.492-7.249-.636-2.466-1.818-4.865-3.719-6.704-1.64-1.588-3.944-2.562-6.617-2.835L40.086.981A1.74 1.74 0 0 0 38.5.001z"/></g></g></svg>