<svg xmlns="http://www.w3.org/2000/svg" width="65" height="75" viewBox="0 0 65 75"><g><g><path fill="#00699e" d="M48.312 58.89c6.513 1.464 12.111 6.797 13.05 12.799H47.259l4.387-5.499a1.626 1.626 0 0 0-.324-2.342l-3.637-2.603zm-31.65-.102l.654 2.457-3.637 2.603a1.626 1.626 0 0 0-.324 2.342l4.387 5.499H3.637c.895-4.952 5.612-10.858 13.026-12.9zm23.068-2.456c-.02.044-.02.076-.038.127-.578 2.1-1.365 4.627-2.158 7.045a238.476 238.476 0 0 1-1.6 4.76l-1.809-6.35 1.454-3.648c.672-.21 1.53-.509 2.412-.929a12.488 12.488 0 0 0 1.739-1.005zm-14.46 0c.572.394 1.164.731 1.742 1.005.884.42 1.743.72 2.417.93l1.456 3.646-1.812 6.352a238.277 238.277 0 0 1-1.603-4.76c-.795-2.42-1.583-4.946-2.162-7.046-.019-.051-.019-.083-.038-.127zm18.067-1.006a29.588 29.588 0 0 1 1.984 2.113l-1.071 4.054c-.178.656.076 1.35.627 1.744l3.146 2.266-4.934 6.186h-4.882a410.119 410.119 0 0 0 2.416-7.173c.792-2.45 1.591-5.002 2.2-7.185.203-.758.355-1.369.514-2.005zm-21.81-.484c.177.758.386 1.553.64 2.489.609 2.183 1.408 4.735 2.2 7.185a410.133 410.133 0 0 0 2.416 7.173h-4.882l-4.934-6.186 3.146-2.266a1.624 1.624 0 0 0 .627-1.744l-1.173-4.417c.698-.96 1.37-1.7 1.96-2.234zm23.211-27.838c-.228.541-.476 1.006-.742 1.808l-.407 1.236 1.105.674c.152.096.419.3.597.554.17.255.304.535.234 1.114-.37 3.056-2.008 3.48-1.786 3.465l-1.33.107-.14 1.337c-.159 1.484-.641 3.266-1.206 4.667a11.5 11.5 0 0 1-.844 1.725c-.234.378-.499.57-.389.518l-.824.43v7.183a1.706 1.706 0 0 0-.025.4c-.02.294-.146.58-.54.968-.425.427-1.117.866-1.847 1.216-1.352.643-2.64.955-2.844 1h-2.5a14.859 14.859 0 0 1-2.844-1c-.73-.35-1.422-.79-1.847-1.216-.426-.42-.559-.72-.559-1.044 0-.095-.006-.184-.025-.28.012-2.196.025-4.406.025-6.24v-.986l-.855-.451c.187.098-.103-.093-.364-.498a11.505 11.505 0 0 1-.857-1.731c-.565-1.401-1.053-3.177-1.212-4.654l-.14-1.344-1.337-.107c.234.015-1.409-.404-1.773-3.465-.07-.573.057-.846.241-1.101.178-.261.45-.471.616-.567l1.028-.63-.298-1.171c-.229-.885-.425-1.407-.59-1.891 3.04.35 7.064.668 12.047.668 5.091 0 9.18-.33 12.232-.694zm-1 8.85h.01-.01zM39.83 44.21l.052-.027-.052.027zm-14.685-.02a2.412 2.412 0 0 1-.015-.007zm-3.91-8.334a.4.4 0 0 1-.008-.001zm9.869-32.596h2.792c.026 0 .229.114.229.369v.91a1.477 1.477 0 0 0 0 .528v9.598a1.64 1.64 0 0 0 .806 1.432c.508.292 1.13.292 1.638 0 .508-.3.812-.847.806-1.432v-7.81c2.488.471 4.424 1.68 5.738 3.64 1.613 2.407 2.387 5.614 2.387 8.166 0 .484.21 1.12.584 1.522.374.4.755.54 1.016.63.507.178.723.216.857.292.133.07.228.109.412.548.095.229.127.967.203 1.457-.38.077-.977.204-1.739.331a1.6 1.6 0 0 0-.35.057c-2.557.414-7.032.942-13.977.942-6.74 0-11.114-.496-13.717-.91a1.64 1.64 0 0 0-.432-.057 43.54 43.54 0 0 1-1.923-.363c.07-.483.102-1.203.197-1.432.184-.439.285-.477.425-.553.133-.083.356-.128.87-.312.254-.096.628-.242.996-.637.375-.394.578-1.03.578-1.514 0-2.553.762-5.76 2.361-8.172 1.308-1.96 3.25-3.17 5.764-3.64v7.815a1.64 1.64 0 0 0 .806 1.432c.508.292 1.13.292 1.638 0 .508-.3.812-.847.806-1.432V5.085a1.513 1.513 0 0 0 0-.534v-.923c0-.255.21-.37.229-.37zm0-3.259c-1.867 0-3.244 1.547-3.384 3.38-3.815.483-6.747 2.583-8.556 5.301-1.905 2.87-2.698 6.244-2.812 9.248-.26.076-.457.101-.908.356-.673.382-1.384 1.12-1.81 2.132C13.21 21.43 13 22.702 13 24.44v1.273l1.231.306s1.118.229 2.71.503c.102.432.21.82.325 1.17.114.357.24.796.361 1.178-.215.21-.393.261-.603.566-.552.802-.952 1.986-.793 3.348.387 3.22 1.834 4.805 3.44 5.582.248 1.655.654 3.367 1.25 4.824a13.8 13.8 0 0 0 1.118 2.234c.184.293.495.484.711.738l-.019 4.188h-.14a1.593 1.593 0 0 0-.831.216s-2.717 1.75-4.983 4.933C6.703 57.808 0 65.904 0 73.318c0 .898.73 1.63 1.625 1.63h27.073c.266.07.552.07.812 0h5.98c.266.07.546.07.812 0h27.073A1.63 1.63 0 0 0 65 73.317c0-8.93-8.023-16.134-16.91-17.674-.42-.573-2.177-2.851-4.653-4.64a1.627 1.627 0 0 0-1.18-.521c.006-1.47 0-3.004 0-4.328.209-.248.526-.44.71-.732.407-.65.775-1.4 1.111-2.24.584-1.458.99-3.163 1.238-4.818 1.6-.777 3.047-2.361 3.434-5.582.159-1.35-.229-2.533-.768-3.335-.203-.299-.38-.35-.597-.56.286-.649.622-1.24.902-2.406 1.46-.254 2.488-.464 2.488-.464L52 25.712V24.44c0-1.75-.21-3.03-.635-4.047-.425-1.019-1.142-1.75-1.822-2.132-.444-.249-.634-.274-.895-.344-.12-3.01-.926-6.377-2.837-9.235-1.815-2.718-4.742-4.811-8.531-5.295C37.146 1.546 35.763 0 33.896 0z"/></g></g></svg>