<svg xmlns="http://www.w3.org/2000/svg" width="76" height="75" viewBox="0 0 76 75"><g><g><path fill="#0af" d="M19.905 50.28l4.462 5.402a1.564 1.564 0 0 0 2.424-.018l3.065-3.809 1.184.959S28.3 57.52 27.511 62.5H3.88c1.148-6.207 6.685-8.398 12.045-10.522 1.386-.55 2.735-1.093 3.98-1.697zm35.345-3.405v7.813h-7.816v3.124h7.816v7.813h3.126v-7.813h7.816v-3.124h-7.816v-7.813zm-30.038-1.257l3.906 2.166-3.57 4.432-2.921-3.54c1.13-.837 2.023-1.825 2.585-3.058zm31.6-4.993c8.633 0 15.629 6.995 15.629 15.625 0 8.63-6.996 15.625-15.628 15.625S41.185 64.88 41.185 56.25c0-8.63 6.996-15.625 15.628-15.625zm.001-3.125c-10.329 0-18.753 8.429-18.753 18.75S46.484 75 56.813 75c10.328 0 18.752-8.429 18.752-18.75S67.141 37.5 56.813 37.5zM31.816 3.125c2.955 0 5.086.745 5.837 2.039l.384.653.745.103c2.155.306 3.651 1.19 4.567 2.71 2.008 3.308.983 9.339-.5 13.495l-.495 1.288 1.24.623c.14.097.512.634.42 1.757-.213 2.314-.946 2.93-1.105 2.96H41.56l-.195 1.343c-.428 3.003-2.229 6.086-2.82 6.519l-.788.446v.909c0 1.593.018 2.96.067 4.407l-6.008 3.332-6.087-3.375c.03-.922.025-1.794.007-2.68-.007-.537-.019-1.092-.019-1.69l-.097-.879-.666-.464c-.617-.421-2.558-3.54-2.833-6.457l-.024-1.404H20.68c-.225-.086-.921-.824-1.22-2.954-.104-1.306.561-1.85.561-1.85l.928-.616-.275-1.068c-1.819-7.166-1.569-12.14.763-15.204 1.905-2.503 5.41-3.833 10.38-3.943zM31.787 0c-6.006.134-10.321 1.874-12.836 5.176-2.839 3.735-3.333 9.302-1.514 17.004-.641.83-1.227 2.155-1.074 3.967.457 3.382 1.745 4.773 2.795 5.341.525 2.814 2.063 5.798 3.443 7.208l.018 1.02c.03 1.495.049 2.789-.146 4.449-.855 2.197-4.029 3.455-7.697 4.907C8.678 51.49 1.09 54.498.566 63.983L.48 65.625h36.606c-.3-.616-.556-1.257-.8-1.904-.458-5.518-3.687-10.907-3.687-10.907l3.388-2.967a8.363 8.363 0 0 0-1.465-2.063l2.906-1.61c.231-.446.494-.874.756-1.3.324-.532.672-1.045 1.032-1.539.085-.11.159-.226.244-.336.452-.592.934-1.165 1.44-1.709-.012-.854-.018-1.69-.018-2.612 1.355-1.428 2.796-4.419 3.394-7.129 1.123-.53 2.527-1.91 2.85-5.48.147-1.759-.335-3.053-1-3.883 1.031-3.235 2.783-10.412-.098-15.173-1.312-2.167-3.363-3.528-6.11-4.071C38.41 1.038 35.566 0 31.788 0z"/></g></g></svg>