<svg xmlns="http://www.w3.org/2000/svg" width="75" height="75" viewBox="0 0 75 75"><g><g><path fill="#0af" d="M68.326 35.869h3.311c.02.541.102 1.044.102 1.63-.006 10.605-4.955 20.63-13.349 27.106-14.986 11.56-36.436 8.77-47.996-6.216l-1.12-1.477-1.325 1.324-3.057 3.007v-10.7h10.7l-2.956 3.006-.968.968.764 1.12A30.934 30.934 0 0 0 37.5 68.478c1.16 0 2.312-.076 3.465-.203 16.362-1.828 28.208-16.17 27.36-32.405zm-3.465-3.26l.204 1.833c1.707 15.235-9.222 28.915-24.457 30.622-1.032.115-2.07.153-3.108.153-8.42 0-16.279-3.91-21.501-10.445l4.738-4.688 2.752-2.802H1.63V69.14l2.802-2.751L9.07 61.7c12.877 15.107 35.468 17.706 51.358 5.452A37.457 37.457 0 0 0 75 37.499c0-1.095.013-2.241-.153-3.464l-.203-1.427zM37.347 3.31C47.633 3.28 57.83 7.827 64.607 16.61l1.12 1.478 1.325-1.325 3.057-3.006v10.7h-10.7l2.955-3.006 1.02-.968-.867-1.121C56.702 11.38 47.474 6.648 37.602 6.623 20.514 6.578 6.567 20.412 6.522 37.499c-.006.548.025 1.083.05 1.63H3.364c-.02-.54-.102-1.044-.102-1.63.006-10.604 4.955-20.628 13.35-27.106 5.623-4.337 12.12-6.617 18.698-7.03.688-.045 1.35-.052 2.038-.052zm-.102-3.26c-.713 0-1.426.006-2.14.05a37.414 37.414 0 0 0-20.533 7.745A37.457 37.457 0 0 0 0 37.499c0 1.096-.013 2.242.153 3.465l.204 1.427h9.732l-.153-1.784a28.134 28.134 0 0 1-.153-3.108C9.82 22.17 22.22 9.846 37.55 9.884c8.375.019 16.222 3.866 21.45 10.343l-4.738 4.687-2.751 2.803H73.37V5.859L70.567 8.61l-4.636 4.688C58.524 4.61 47.958.006 37.245.05z"/></g></g></svg>