<svg xmlns="http://www.w3.org/2000/svg" width="39" height="74" viewBox="0 0 39 74"><g><g><path fill="#0af" d="M25.536 9.717l-4.739 22.44c-.106.474.006.967.306 1.34.305.38.76.599 1.24.605h11.474l-19.305 30.12L19.1 42.43a1.587 1.587 0 0 0-.306-1.34 1.616 1.616 0 0 0-1.24-.605H4.585zM28.521.592a1.593 1.593 0 0 0-1.097.698L.296 41.183a1.587 1.587 0 0 0-.093 1.633 1.58 1.58 0 0 0 1.39.86h14.012L9.621 72.052c-.15.748.25 1.496.954 1.783a1.599 1.599 0 0 0 1.939-.586l25.531-39.894c.306-.492.325-1.11.044-1.62a1.592 1.592 0 0 0-1.39-.823H24.282l5.984-28.375A1.596 1.596 0 0 0 28.521.591z"/></g></g></svg>