<svg xmlns="http://www.w3.org/2000/svg" width="76" height="75" viewBox="0 0 76 75"><g><g><path fill="#0af" d="M74.71 62.997c.339.341.526.806.52 1.289V75H64.586c-.64.01-1.234-.33-1.557-.885a1.796 1.796 0 0 1 0-1.8 1.772 1.772 0 0 1 1.557-.886h7.096v-7.143a1.78 1.78 0 0 1 1.746-1.81c.48-.008.942.18 1.281.521zm-70.908 0c.34.341.528.806.521 1.289v7.143h7.096c.64-.01 1.235.329 1.557.885a1.796 1.796 0 0 1 0 1.8 1.772 1.772 0 0 1-1.557.886H.775V64.286a1.78 1.78 0 0 1 1.746-1.81c.48-.008.942.18 1.281.521zm16.471-7.64v5.357h35.459v-5.357h3.545v8.929h-42.55v-8.929zm28.37-14.285v3.571h-21.28v-3.571zm0-7.143V37.5h-21.28V33.93zM45.086 25h8.139l-8.139-8.189zM20.273 48.204h35.46V28.567H41.548V14.286H20.272zm23.321-37.49h.46l.337.339c.125.096.236.209.332.335l13.874 13.975c.126.097.24.21.335.338l.343.345v.457c.032.193.032.39 0 .583v21.128h14.182a1.77 1.77 0 0 1 1.556.886 1.797 1.797 0 0 1 0 1.8 1.77 1.77 0 0 1-1.556.886H57.783a1.76 1.76 0 0 1-.578 0H18.783a1.76 1.76 0 0 1-.578 0H2.548A1.77 1.77 0 0 1 .992 50.9a1.797 1.797 0 0 1 0-1.8 1.77 1.77 0 0 1 1.556-.886H16.73v-37.5h26.307a1.76 1.76 0 0 1 .256-.024c.1 0 .202.008.301.024zM75.23 0v10.714a1.788 1.788 0 0 1-.88 1.568 1.764 1.764 0 0 1-1.788 0 1.788 1.788 0 0 1-.88-1.568V3.572h-7.096c-.64.009-1.235-.33-1.557-.886a1.796 1.796 0 0 1 0-1.8A1.772 1.772 0 0 1 64.586 0zM11.419 0c.64-.009 1.235.33 1.557.886a1.796 1.796 0 0 1 0 1.8 1.772 1.772 0 0 1-1.557.886H4.323v7.142a1.788 1.788 0 0 1-.88 1.568 1.764 1.764 0 0 1-1.788 0 1.788 1.788 0 0 1-.88-1.568V0z"/></g></g></svg>