<svg xmlns="http://www.w3.org/2000/svg" width="76" height="75" viewBox="0 0 76 75"><g><g><path fill="#0af" d="M67.113 52.266l-.937 1.172-8.25 10.5-.985 1.266-1.172-1.078-6.75-6-1.125-.985 1.97-2.25 1.124.985 5.578 4.968 7.266-9.28.937-1.173zm-24.61 4.735c0 8.302 6.698 15 15 15 8.303 0 15-6.698 15-15 0-8.303-6.697-15-15-15-8.302 0-15 6.697-15 15zm33 0c0 9.925-8.073 18-18 18-9.925 0-18-8.075-18-18 0-9.926 8.075-18 18-18 9.927 0 18 8.074 18 18zM30.364.61c3.276 0 6.111.768 7.688 2.812 2.425.493 4.347 1.688 5.53 3.329 1.296 1.787 1.847 3.937 2.016 6.093.311 3.95-.626 7.793-1.359 10.172.68.838 1.23 1.922 1.031 3.563-.222 1.845-.732 3.158-1.453 4.078-.386.492-.89.55-1.36.797-.257 1.564-.72 3.14-1.359 4.453-.369.75-.761 1.447-1.171 2.016-.182.251-.463.398-.657.609-.011 1.851-.017 3.392.141 5.344.31.761.727 1.406 1.36 1.78l-1.548 2.579c-1.394-.826-2.238-2.127-2.718-3.422l-.094-.187v-.188c-.229-2.514-.14-4.3-.14-6.469v-.89l.785-.416c-.113.058.165-.152.433-.522.276-.38.586-.926.89-1.547.604-1.242 1.126-2.83 1.266-4.125l.141-1.218 1.266-.094c.011 0 .152.017.421-.328.27-.346.622-1.108.797-2.578.147-1.2-.437-1.647-.426-1.644l-1.027-.606.375-1.172c.65-1.963 1.688-6.153 1.407-9.75-.141-1.8-.61-3.428-1.454-4.594-.843-1.166-2.039-2.004-4.125-2.297l-.703-.094-.375-.609c-.556-.979-2.513-1.863-5.531-1.875h-.047c-6.234.129-9.223 2.232-10.687 5.578-1.471 3.358-1.225 8.297.187 13.734l.281 1.079-.98.607c.034-.02-.57.422-.426 1.643.176 1.47.527 2.232.797 2.578.27.345.41.328.422.328l1.266.094.14 1.218c.135 1.284.645 2.883 1.266 4.125.31.621.656 1.166.937 1.547.282.381.604.586.469.516l.797.422v.89c0 2.174.088 3.955-.14 6.47l-.094.374c-.856 2.303-2.877 3.738-5.063 4.828-2.186 1.09-4.67 1.893-7.031 2.907-2.362 1.013-4.541 2.226-6.14 3.843-1.272 1.283-2.063 2.989-2.485 5.11h33.14l.985 3H.41l.094-1.594c.222-3.733 1.664-6.563 3.703-8.625 2.039-2.063 4.617-3.375 7.125-4.453 2.508-1.078 4.986-1.957 6.89-2.907 1.846-.92 2.983-1.869 3.47-3.046.157-1.952.152-3.493.14-5.344-.2-.211-.469-.358-.656-.61a13.68 13.68 0 0 1-1.22-2.015c-.655-1.313-1.095-2.883-1.358-4.453-.487-.246-1.008-.293-1.407-.797-.72-.92-1.23-2.233-1.453-4.078-.205-1.694.363-2.819 1.078-3.657-1.33-5.472-1.74-10.763.094-14.953C18.832 3.57 23.308.74 30.316.61z"/></g></g></svg>