<svg xmlns="http://www.w3.org/2000/svg" width="75" height="75" viewBox="0 0 75 75"><g><g><path fill="#0af" d="M42 54c0 6.645 5.355 12 12 12s12-5.355 12-12c0-6.644-5.355-12-12-12s-12 5.356-12 12zm27 0c0 3.592-1.26 6.885-3.375 9.47l8.953 8.952-2.156 2.157-8.953-8.953A14.884 14.884 0 0 1 54 69c-8.268 0-15-6.733-15-15 0-8.268 6.732-15 15-15s15 6.732 15 15zM37.687 3.33c2.567.51 4.524 1.816 5.813 3.89 3.076 4.952 1.29 12.686.422 15.657.656.826 1.137 2.068.937 3.703-.392 3.293-1.71 4.658-2.765 5.203-.504 2.601-1.887 5.514-3.235 6.89v.704c-.011 1.517-.052 2.847.094 4.546.117.276.276.54.469.797-.463.463-1.254 1.817-1.688 2.578-.685-.685-1.271-1.488-1.64-2.484L36 44.438c-.176-1.957-.152-3.469-.14-5.062v-2.297l.796-.422c.604-.422 2.332-3.469 2.625-6.188l.094-1.218 1.266-.094c.193-.012.937-.55 1.218-2.906.147-1.213-.416-1.635-.422-1.641l-.984-.656.328-1.125c1.149-3.463 2.49-10.307.188-14.016-.92-1.482-2.356-2.344-4.36-2.625l-.703-.094-.375-.609c-.668-1.178-2.76-1.922-5.578-1.922-4.53.082-7.793 1.389-9.656 3.844-2.39 3.152-2.666 8.508-.844 15.515l.281 1.079-.984.609c-.006 0-.568.434-.422 1.64.281 2.356 1.026 2.89 1.219 2.907l1.266.094.14 1.218c.287 2.707 2.016 5.743 2.672 6.188l.797.422v2.297c.012 1.6.035 3.1-.14 5.062l-.095.375c-1.289 3.469-5.173 4.992-9.28 6.61C9.75 53.45 4.417 55.547 3.28 61.5h33.985s.586 1.5 2.156 3H0l.094-1.594c.545-9.1 7.828-11.947 13.687-14.25 3.522-1.389 6.58-2.625 7.5-4.734.147-1.706.153-3.024.14-4.547v-.703c-1.382-1.377-2.817-4.29-3.327-6.891-1.055-.545-2.367-1.91-2.766-5.203-.2-1.67.31-2.924.985-3.75-1.834-7.612-1.307-13.424 1.593-17.25 2.45-3.223 6.48-4.87 12-4.969 3.645 0 6.364.932 7.782 2.719z"/></g></g></svg>