<?xml version="1.0" encoding="UTF-8"?>
<svg width="471px" height="376px" viewBox="0 0 471 376" version="1.1" xmlns="http://www.w3.org/2000/svg" xmlns:xlink="http://www.w3.org/1999/xlink">
    <!-- Generator: Sketch 52.6 (67491) - http://www.bohemiancoding.com/sketch -->
    <title>Asset2</title>
    <desc>Created with Sketch.</desc>
    <defs>
        <polygon id="path-1" points="0.05652 0.581 471 0.581 471 1.581 0.05652 1.581"></polygon>
    </defs>
    <g id="Assets" stroke="none" stroke-width="1" fill="none" fill-rule="evenodd">
        <g id="Специалисты-НРС" transform="translate(-1084.000000, -490.000000)">
            <g id="About">
                <g id="Asset2" transform="translate(1084.000000, 485.000000)">
                    <rect id="Rectangle" stroke="#979797" fill="#D8D8D8" opacity="0" x="11.5" y="0.5" width="429" height="359"></rect>
                    <g id="Group-2" transform="translate(0.000000, 5.000000)">
                        <g id="Group-10">
                            <g id="Group-4">
                                <g id="Group-3" transform="translate(0.000000, 307.000000)">
                                    <mask id="mask-2" fill="white">
                                        <use xlink:href="#path-1"></use>
                                    </mask>
                                    <g id="Clip-2"></g>
                                    <polygon id="Fill-1" fill="#C3D7E6" mask="url(#mask-2)" points="0.05652 1.206 471 1.206 471 0.956 0.05652 0.956"></polygon>
                                </g>
                                <polygon id="Fill-4" fill="#C3D7E6" points="49 319.625 103 319.625 103 319.375 49 319.375"></polygon>
                                <polygon id="Fill-5" fill="#C3D7E6" points="197 313.625 222 313.625 222 313.375 197 313.375"></polygon>
                                <polygon id="Fill-6" fill="#C3D7E6" points="231 313.625 279 313.625 279 313.375 231 313.375"></polygon>
                                <polygon id="Fill-7" fill="#C3D7E6" points="359 316.625 371 316.625 371 316.375 359 316.375"></polygon>
                                <polygon id="Fill-8" fill="#C3D7E6" points="272 316.625 319 316.625 319 316.375 272 316.375"></polygon>
                                <polygon id="Fill-9" fill="#C3D7E6" points="112 319.625 121 319.625 121 319.375 112 319.375"></polygon>
                                <polygon id="Fill-10" fill="#C3D7E6" points="379 316.625 420 316.625 420 316.375 379 316.375"></polygon>
                                <path d="M41.3866435,0.235109441 C38.5461044,0.235109441 36.2359252,2.53730109 36.2359252,5.36801875 L36.2359252,260.631981 C36.2359252,263.462699 38.5461044,265.764891 41.3866435,265.764891 L223.6143,265.764891 C226.452952,265.764891 228.764075,263.462699 228.764075,260.631981 L228.764075,5.36801875 C228.764075,2.53730109 226.452952,0.235109441 223.6143,0.235109441 L41.3866435,0.235109441 Z M223.6143,266 L41.3866435,266 C38.4168174,266 36,263.592479 36,260.631981 L36,5.36801875 C36,2.40846111 38.4168174,0 41.3866435,0 L223.6143,0 C226.583183,0 229,2.40846111 229,5.36801875 L229,260.631981 C229,263.592479 226.583183,266 223.6143,266 Z" id="Fill-11" fill="#C3D7E6"></path>
                                <path d="M245.3857,0.235109441 C242.546104,0.235109441 240.235925,2.53730109 240.235925,5.36801875 L240.235925,260.631981 C240.235925,263.462699 242.546104,265.764891 245.3857,265.764891 L427.613357,265.764891 C430.452952,265.764891 432.764075,263.462699 432.764075,260.631981 L432.764075,5.36801875 C432.764075,2.53730109 430.452952,0.235109441 427.613357,0.235109441 L245.3857,0.235109441 Z M427.613357,266 L245.3857,266 C242.415874,266 240,263.592479 240,260.631981 L240,5.36801875 C240,2.40846111 242.415874,0 245.3857,0 L427.613357,0 C430.583183,0 433,2.40846111 433,5.36801875 L433,260.631981 C433,263.592479 430.583183,266 427.613357,266 Z" id="Fill-12" fill="#C3D7E6"></path>
                                <path d="M72.0756135,76.1929434 C67.9617611,67.3181468 71.2266185,61 81.2806057,61 C87.584865,61 95.4031654,63.4869401 103.01582,67.535754 C103.875192,65.2277982 106.297658,63.8439668 110.194545,63.8439668 C117.052537,63.8439668 126.505625,68.1188661 133.922067,74.148754 C135.716277,72.8044875 138.312315,71.9811595 141.649808,71.8483343 C148.21254,71.5760897 156.161963,74.0319431 163.073725,78.0270617 C163.671795,77.3582256 164.698135,76.9390254 166.115014,76.8768519 C169.897758,76.7214182 175.017198,79.1998801 177.560409,82.4102937 C177.718888,82.6118866 177.859444,82.8059433 178,83 L70.0785886,83 C69.7559705,80.2031344 70.4276199,77.8631498 72.0756135,76.1929434" id="Fill-13" fill="#EFF5F8"></path>
                                <path d="M194.482908,34.7807917 C194.810441,34.7448352 195.143622,34.726857 195.481508,34.726857 C195.170916,31.2457026 196.965761,29.023971 200.797334,29.023971 C203.562543,29.023971 206.955523,30.1840404 210.413446,32.1474531 C209.424258,25.3914209 212.593236,21 219.767907,21 C225.555268,21 232.883353,23.855701 240.121084,28.514903 C240.754503,25.8645324 242.887234,24.2748778 246.470334,24.2748778 C252.764054,24.2748778 261.708158,29.1838827 268.879064,36.110235 C268.879064,36.110235 268.881888,36.1196972 268.888476,36.110235 C270.437671,34.5659991 272.766168,33.6112601 275.825968,33.4598644 C281.81945,33.1466646 289.260477,35.9673553 295.859142,40.5641066 C296.360795,39.7872575 297.275629,39.30563 298.582938,39.2431793 C301.860153,39.0738054 306.376911,41.6087368 309,45 L189.206612,45 C186.395285,39.8591705 188.635311,35.3608264 194.482908,34.7807917" id="Fill-14" fill="#EFF5F8"></path>
                                <path d="M355.13921,19.6678011 C352.504946,14.0201535 354.595781,10 361.036872,10 C365.076328,10 370.084915,11.581715 374.961647,14.1584251 C375.51261,12.6897564 377.064726,11.8096763 379.560543,11.8096763 C383.954122,11.8096763 390.010952,14.5293293 394.76148,18.3673006 C395.910498,17.5124458 397.57469,16.9873874 399.712616,16.9033033 C403.91689,16.7304638 409.01024,18.2934935 413.437725,20.8356356 C413.821045,20.4105439 414.478434,20.1424091 415.386346,20.1031698 C417.808701,20.0050717 421.089052,21.5821154 422.718397,23.6244244 C422.820113,23.7533534 422.909586,23.8766767 423,24 L351.868277,24 C349.620158,21.9987988 352.104673,19.768702 355.13921,19.6678011" id="Fill-15" fill="#EFF5F8"></path>
                                <polygon id="Fill-16" fill="#D8E7EF" points="84 307 116 307 116 205 84 205"></polygon>
                                <polygon id="Fill-17" fill="#EFF5F8" points="105 308 158 308 158 170 105 170"></polygon>
                                <polygon id="Fill-18" fill="#D8E7EF" points="158 308 185 308 185 170 158 170"></polygon>
                                <polygon id="Fill-19" fill="#EFF5F8" points="112 170 158 170 158 156 112 156"></polygon>
                                <polygon id="Fill-20" fill="#D8E7EF" points="112 169 158 169 158 166 112 166"></polygon>
                                <polygon id="Fill-21" fill="#D8E7EF" points="158 170 178 170 178 156 158 156"></polygon>
                                <polygon id="Fill-22" fill="#EFF5F8" points="120 156 158 156 158 142 120 142"></polygon>
                                <polygon id="Fill-23" fill="#D8E7EF" points="120 156 158 156 158 153 120 153"></polygon>
                                <polygon id="Fill-24" fill="#D8E7EF" points="158 156 171 156 171 142 158 142"></polygon>
                                <polygon id="Fill-25" fill="#D8E7EF" points="144 142 147 142 147 123 144 123"></polygon>
                                <polygon id="Fill-26" fill="#EFF5F8" points="177 308 215 308 215 194 177 194"></polygon>
                                <polygon id="Fill-27" fill="#D8E7EF" points="215 308 235 308 235 194 215 194"></polygon>
                                <polyline id="Fill-28" fill="#EFF5F8" points="225 226 254 251.102659 254 308 225 308 225 226"></polyline>
                                <polygon id="Fill-29" fill="#D8E7EF" points="254 308 269 308 269 251 254 251"></polygon>
                                <polyline id="Fill-30" fill="#D8E7EF" points="269 251 253.966542 251 225 226 240.033458 226 269 251"></polyline>
                                <path d="M406,308 C406,308 406.673636,301.398591 414,298 C410.996669,302.785473 411.651005,308 411.651005,308 L406,308" id="Fill-31" fill="#D8E7EF"></path>
                                <path d="M134,308 C134,308 133.326364,301.398591 126,298 C129.003331,302.785473 128.348995,308 128.348995,308 L134,308" id="Fill-32" fill="#D8E7EF"></path>
                                <path d="M67,308 C67,308 66.4947801,295.598934 61,292 C63.2529523,297.06854 62.7610816,308 62.7610816,308 L67,308" id="Fill-33" fill="#D8E7EF"></path>
                                <path d="M65,308 C65,308 65.5042794,301.023624 71,299 C68.7466621,301.850348 69.2386169,308 69.2386169,308 L65,308" id="Fill-34" fill="#D8E7EF"></path>
                                <path d="M139,308 C139,308 138.479391,296.260596 129,292 C133.237156,298.022766 132.993944,308 132.993944,308 L139,308" id="Fill-35" fill="#D8E7EF"></path>
                                <path d="M341.885583,290.114417 L363.114417,290.114417 L363.114417,268.885583 L341.885583,268.885583 L341.885583,290.114417 Z M364.057209,292 L340.942791,292 C340.422371,292 340,291.577629 340,291.057209 L340,267.942791 C340,267.421428 340.422371,267 340.942791,267 L364.057209,267 C364.578572,267 365,267.421428 365,267.942791 L365,291.057209 C365,291.577629 364.578572,292 364.057209,292 Z" id="Fill-36" fill="#C3D7E6"></path>
                                <path d="M341.885583,267.114417 L363.114417,267.114417 L363.114417,245.885583 L341.885583,245.885583 L341.885583,267.114417 Z M364.057209,269 L340.942791,269 C340.422371,269 340,268.578572 340,268.057209 L340,244.942791 C340,244.422371 340.422371,244 340.942791,244 L364.057209,244 C364.578572,244 365,244.422371 365,244.942791 L365,268.057209 C365,268.578572 364.578572,269 364.057209,269 Z" id="Fill-37" fill="#C3D7E6"></path>
                                <path d="M364.056964,292 C363.815607,292 363.57425,291.907607 363.390404,291.723765 L340.275769,268.609565 C339.908077,268.240938 339.908077,267.645099 340.275769,267.276471 C340.644404,266.907843 341.241197,266.907843 341.608889,267.276471 L364.723524,290.389727 C365.092159,290.758355 365.092159,291.355137 364.723524,291.723765 C364.539678,291.907607 364.298321,292 364.056964,292" id="Fill-38" fill="#C3D7E6"></path>
                                <path d="M364.056964,269 C363.815607,269 363.57425,268.907605 363.390404,268.723757 L340.275769,245.608904 C339.908077,245.241208 339.908077,244.64441 340.275769,244.275772 C340.644404,243.908076 341.241197,243.908076 341.608889,244.275772 L364.723524,267.390625 C365.092159,267.759263 365.092159,268.355119 364.723524,268.723757 C364.539678,268.907605 364.298321,269 364.056964,269" id="Fill-39" fill="#C3D7E6"></path>
                                <path d="M341.885583,244.114275 L363.114417,244.114275 L363.114417,222.885725 L341.885583,222.885725 L341.885583,244.114275 Z M364.057209,246 L340.942791,246 C340.422371,246 340,245.57854 340,245.057137 L340,221.942863 C340,221.42146 340.422371,221 340.942791,221 L364.057209,221 C364.578572,221 365,221.42146 365,221.942863 L365,245.057137 C365,245.57854 364.578572,246 364.057209,246 Z" id="Fill-40" fill="#C3D7E6"></path>
                                <path d="M341.885583,221.114417 L363.114417,221.114417 L363.114417,199.885583 L341.885583,199.885583 L341.885583,221.114417 Z M364.057209,223 L340.942791,223 C340.422371,223 340,222.577629 340,222.057209 L340,198.942791 C340,198.421428 340.422371,198 340.942791,198 L364.057209,198 C364.578572,198 365,198.421428 365,198.942791 L365,222.057209 C365,222.577629 364.578572,223 364.057209,223 Z" id="Fill-41" fill="#C3D7E6"></path>
                                <path d="M364.056964,246 C363.815607,246 363.57425,245.908543 363.390404,245.723744 L340.275769,222.609687 C339.908077,222.241031 339.908077,221.644205 340.275769,221.276492 C340.644404,220.907836 341.241197,220.907836 341.608889,221.276492 L364.723524,244.390549 C365.092159,244.759205 365.092159,245.356031 364.723524,245.723744 C364.539678,245.908543 364.298321,246 364.056964,246" id="Fill-42" fill="#C3D7E6"></path>
                                <path d="M364.056964,223 C363.815607,223 363.57425,222.907607 363.390404,222.723765 L340.275769,199.609565 C339.908077,199.24188 339.908077,198.645099 340.275769,198.276471 C340.644404,197.907843 341.241197,197.907843 341.608889,198.276471 L364.723524,221.39067 C365.092159,221.758355 365.092159,222.355137 364.723524,222.723765 C364.539678,222.907607 364.298321,223 364.056964,223" id="Fill-43" fill="#C3D7E6"></path>
                                <path d="M341.885583,198.114346 L363.114417,198.114346 L363.114417,176.885654 L341.885583,176.885654 L341.885583,198.114346 Z M364.057209,200 L340.942791,200 C340.422371,200 340,199.578556 340,199.057173 L340,175.942827 C340,175.422386 340.422371,175 340.942791,175 L364.057209,175 C364.578572,175 365,175.422386 365,175.942827 L365,199.057173 C365,199.578556 364.578572,200 364.057209,200 Z" id="Fill-44" fill="#C3D7E6"></path>
                                <path d="M341.885583,175.114417 L363.114417,175.114417 L363.114417,153.885583 L341.885583,153.885583 L341.885583,175.114417 Z M364.057209,177 L340.942791,177 C340.422371,177 340,176.577629 340,176.057209 L340,152.942791 C340,152.422371 340.422371,152 340.942791,152 L364.057209,152 C364.578572,152 365,152.422371 365,152.942791 L365,176.057209 C365,176.577629 364.578572,177 364.057209,177 Z" id="Fill-45" fill="#C3D7E6"></path>
                                <path d="M364.056964,200 C363.815607,200 363.57425,199.907604 363.390404,199.723754 L340.275769,176.609626 C339.908077,176.240984 339.908077,175.645123 340.275769,175.276481 C340.644404,174.90784 341.241197,174.90784 341.608889,175.276481 L364.723524,198.39061 C365.092159,198.759251 365.092159,199.356055 364.723524,199.723754 C364.539678,199.907604 364.298321,200 364.056964,200" id="Fill-46" fill="#C3D7E6"></path>
                                <path d="M318.885725,98.1143461 L340.114275,98.1143461 L340.114275,76.8847111 L318.885725,76.8847111 L318.885725,98.1143461 Z M341.057137,100 L317.942863,100 C317.42146,100 317,99.5776135 317,99.057173 L317,75.942827 C317,75.4214437 317.42146,75 317.942863,75 L341.057137,75 C341.57854,75 342,75.4214437 342,75.942827 L342,99.057173 C342,99.5776135 341.57854,100 341.057137,100 Z" id="Fill-47" fill="#C3D7E6"></path>
                                <path d="M364.057209,100 L340.942791,100 C340.422371,100 340,99.5786256 340,99.0594321 C340,98.5392981 340.422371,98.1188643 340.942791,98.1188643 L363.114417,98.1188643 L363.114417,52.9405679 C363.114417,52.4213744 363.535845,52 364.057209,52 C364.578572,52 365,52.4213744 365,52.9405679 L365,99.0594321 C365,99.5786256 364.578572,100 364.057209,100" id="Fill-48" fill="#C3D7E6"></path>
                                <path d="M340.941697,100 C340.800279,100 340.656975,99.9680206 340.521214,99.9002995 C340.055477,99.6679785 339.86692,99.1036361 340.099788,98.6380536 L363.213152,52.519989 C363.446963,52.055347 364.011693,51.8672329 364.478372,52.0995539 C364.944109,52.3318748 365.133609,52.8971579 364.899798,53.3617998 L341.786434,99.4798644 C341.620504,99.8090641 341.288643,100 340.941697,100" id="Fill-49" fill="#C3D7E6"></path>
                                <path d="M295.885583,98.1143461 L317.114417,98.1143461 L317.114417,76.8847111 L295.885583,76.8847111 L295.885583,98.1143461 Z M318.057209,100 L294.942791,100 C294.421428,100 294,99.5776135 294,99.057173 L294,75.942827 C294,75.4214437 294.421428,75 294.942791,75 L318.057209,75 C318.577629,75 319,75.4214437 319,75.942827 L319,99.057173 C319,99.5776135 318.577629,100 318.057209,100 Z" id="Fill-50" fill="#C3D7E6"></path>
                                <path d="M317.94308,100 C317.701712,100 317.460344,99.9076038 317.276489,99.7237543 C316.907837,99.3551124 316.907837,98.7583086 317.276489,98.3906095 L340.390328,75.2764814 C340.758981,74.9078395 341.355801,74.9078395 341.723511,75.2764814 C342.092163,75.6441805 342.092163,76.2409843 341.723511,76.6096262 L318.609672,99.7237543 C318.424874,99.9076038 318.184449,100 317.94308,100" id="Fill-51" fill="#C3D7E6"></path>
                                <path d="M364.885583,98.1143461 L386.114417,98.1143461 L386.114417,76.8847111 L364.885583,76.8847111 L364.885583,98.1143461 Z M387.057209,100 L363.942791,100 C363.421428,100 363,99.5776135 363,99.057173 L363,75.942827 C363,75.4214437 363.421428,75 363.942791,75 L387.057209,75 C387.577629,75 388,75.4214437 388,75.942827 L388,99.057173 C388,99.5776135 387.577629,100 387.057209,100 Z" id="Fill-52" fill="#C3D7E6"></path>
                                <path d="M363.943036,100 C363.701679,100 363.460322,99.9076038 363.276476,99.7237543 C362.907841,99.3551124 362.907841,98.7583086 363.276476,98.3906095 L386.390168,75.2764814 C386.758803,74.9078395 387.355596,74.9078395 387.724231,75.2764814 C388.091923,75.6441805 388.091923,76.2409843 387.724231,76.6096262 L364.609596,99.7237543 C364.42575,99.9076038 364.184393,100 363.943036,100" id="Fill-53" fill="#C3D7E6"></path>
                                <path d="M224.943354,100 C224.701735,100 224.461059,99.9078223 224.276069,99.7244074 C223.907977,99.356637 223.907977,98.761244 224.276069,98.3944142 L247.41585,75.3349296 C247.547042,75.2032471 247.715043,75.1138912 247.898145,75.0772082 L363.593274,52.0177235 C363.903793,51.9575258 364.222806,52.0525253 364.445549,52.2745044 L410.723223,98.3944142 C411.092259,98.761244 411.092259,99.356637 410.723223,99.7244074 C410.355131,100.091237 409.757689,100.091237 409.388653,99.7244074 L363.467745,53.9609808 L248.548441,76.8662088 L225.610639,99.7244074 C225.426593,99.9078223 225.184973,100 224.943354,100" id="Fill-54" fill="#C3D7E6"></path>
                                <path d="M294.943036,100 C294.701679,100 294.460322,99.9076038 294.276476,99.7237543 C293.907841,99.3551124 293.907841,98.7583086 294.276476,98.3906095 L317.391111,75.2764814 C317.758803,74.9078395 318.355596,74.9078395 318.724231,75.2764814 C319.091923,75.6441805 319.091923,76.2409843 318.724231,76.6096262 L295.609596,99.7237543 C295.42575,99.9076038 295.184393,100 294.943036,100" id="Fill-55" fill="#C3D7E6"></path>
                                <path d="M272.885583,98.1143461 L294.114417,98.1143461 L294.114417,76.8847111 L272.885583,76.8847111 L272.885583,98.1143461 Z M295.057209,100 L271.942791,100 C271.422371,100 271,99.5776135 271,99.057173 L271,75.942827 C271,75.4214437 271.422371,75 271.942791,75 L295.057209,75 C295.578572,75 296,75.4214437 296,75.942827 L296,99.057173 C296,99.5776135 295.578572,100 295.057209,100 Z" id="Fill-56" fill="#C3D7E6"></path>
                                <path d="M248.885725,98.1143461 L270.114275,98.1143461 L270.114275,76.8847111 L248.885725,76.8847111 L248.885725,98.1143461 Z M271.057137,100 L247.942863,100 C247.42146,100 247,99.5776135 247,99.057173 L247,75.942827 C247,75.4214437 247.42146,75 247.942863,75 L271.057137,75 C271.57854,75 272,75.4214437 272,75.942827 L272,99.057173 C272,99.5776135 271.57854,100 271.057137,100 Z" id="Fill-57" fill="#C3D7E6"></path>
                                <path d="M271.942329,100 C271.701915,100 271.460558,99.9076038 271.275769,99.7237543 C270.908077,99.3551124 270.908077,98.7583086 271.275769,98.3906095 L294.390404,75.2764814 C294.759039,74.9078395 295.355832,74.9078395 295.723524,75.2764814 C296.092159,75.6441805 296.092159,76.2409843 295.723524,76.6096262 L272.609832,99.7237543 C272.425043,99.9076038 272.183686,100 271.942329,100" id="Fill-58" fill="#C3D7E6"></path>
                                <path d="M247.943072,100 C247.701706,100 247.46034,99.9076038 247.276487,99.7237543 C246.907838,99.3551124 246.907838,98.7583086 247.276487,98.3906095 L270.390108,75.2764814 C270.758757,74.9078395 271.355572,74.9078395 271.724221,75.2764814 C272.091926,75.6441805 272.091926,76.2409843 271.724221,76.6096262 L248.609657,99.7237543 C248.425804,99.9076038 248.184438,100 247.943072,100" id="Fill-59" fill="#C3D7E6"></path>
                                <path d="M248.057209,100 L224.942791,100 C224.422371,100 224,99.5776135 224,99.057173 C224,98.5357897 224.422371,98.1143461 224.942791,98.1143461 L247.114417,98.1143461 L247.114417,75.942827 C247.114417,75.4214437 247.535845,75 248.057209,75 C248.578572,75 249,75.4214437 249,75.942827 L249,99.057173 C249,99.5776135 248.578572,100 248.057209,100" id="Fill-60" fill="#C3D7E6"></path>
                                <path d="M364.056964,177 C363.815607,177 363.57425,176.907605 363.390404,176.723757 L340.275769,153.608904 C339.908077,153.241208 339.908077,152.64441 340.275769,152.275772 C340.644404,151.908076 341.241197,151.908076 341.608889,152.275772 L364.723524,175.390625 C365.092159,175.759263 365.092159,176.355119 364.723524,176.723757 C364.539678,176.907605 364.298321,177 364.056964,177" id="Fill-61" fill="#C3D7E6"></path>
                                <path d="M341.885583,152.114346 L363.114417,152.114346 L363.114417,130.885654 L341.885583,130.885654 L341.885583,152.114346 Z M364.057209,154 L340.942791,154 C340.422371,154 340,153.578556 340,153.057173 L340,129.942827 C340,129.422386 340.422371,129 340.942791,129 L364.057209,129 C364.578572,129 365,129.422386 365,129.942827 L365,153.057173 C365,153.578556 364.578572,154 364.057209,154 Z" id="Fill-62" fill="#C3D7E6"></path>
                                <path d="M341.885583,129.114346 L363.114417,129.114346 L363.114417,107.885654 L341.885583,107.885654 L341.885583,129.114346 Z M364.057209,131 L340.942791,131 C340.422371,131 340,130.578556 340,130.057173 L340,106.942827 C340,106.422386 340.422371,106 340.942791,106 L364.057209,106 C364.578572,106 365,106.422386 365,106.942827 L365,130.057173 C365,130.578556 364.578572,131 364.057209,131 Z" id="Fill-63" fill="#C3D7E6"></path>
                                <path d="M364.056964,154 C363.815607,154 363.57425,153.908544 363.390404,153.723746 L340.275769,130.608965 C339.908077,130.241255 339.908077,129.644434 340.275769,129.275782 C340.644404,128.908073 341.241197,128.908073 341.608889,129.275782 L364.723524,152.390564 C365.092159,152.759216 365.092159,153.356037 364.723524,153.723746 C364.539678,153.908544 364.298321,154 364.056964,154" id="Fill-64" fill="#C3D7E6"></path>
                                <path d="M364.056964,131 C363.815607,131 363.57425,130.908544 363.390404,130.723746 L340.275769,107.608965 C339.908077,107.241255 339.908077,106.644434 340.275769,106.275782 C340.644404,105.908073 341.241197,105.908073 341.608889,106.275782 L364.723524,129.390564 C365.092159,129.759216 365.092159,130.356037 364.723524,130.723746 C364.539678,130.908544 364.298321,131 364.056964,131" id="Fill-65" fill="#C3D7E6"></path>
                                <polyline id="Fill-66" fill="#C3D7E6" points="410 99 225 99 248.125707 107 410 107 410 99"></polyline>
                                <path d="M248.239882,106.068193 L409.112346,106.068193 L409.112346,99.9318072 L230.640342,99.9318072 L248.239882,106.068193 Z M410.056173,108 L248.083207,108 C247.979386,108 247.876509,107.982614 247.779295,107.948807 L224.63949,99.8796484 C224.202499,99.7270356 223.937283,99.2740269 224.012789,98.8074954 C224.088296,98.3419299 224.481871,98 224.943403,98 L410.056173,98 C410.578109,98 411,98.4317589 411,98.9659036 L411,107.034096 C411,107.567275 410.578109,108 410.056173,108 Z" id="Fill-67" fill="#C3D7E6"></path>
                                <polygon id="Fill-68" fill="#C3D7E6" points="324 139 341 139 341 103 324 103"></polygon>
                                <polygon id="Fill-69" fill="#EFF5F8" points="316 139 324 139 324 103 316 103"></polygon>
                                <polygon id="Fill-70" fill="#C3D7E6" points="343 307 377 307 377 291 343 291"></polygon>
                                <polygon id="Fill-71" fill="#EFF5F8" points="328 307 344 307 344 291 328 291"></polygon>
                                <path d="M387,140 C386.447,140 386,139.57343 386,139.047834 L386,102.952166 C386,102.42657 386.447,102 387,102 C387.552,102 388,102.42657 388,102.952166 L388,139.047834 C388,139.57343 387.552,140 387,140" id="Fill-72" fill="#C3D7E6"></path>
                                <path d="M387.000455,139.818457 C386.348538,139.818457 385.818457,140.348538 385.818457,140.999545 C385.818457,141.651462 386.348538,142.181543 387.000455,142.181543 C387.651462,142.181543 388.181543,141.651462 388.181543,140.999545 C388.181543,140.348538 387.651462,139.818457 387.000455,139.818457 Z M387.000455,144 C385.345658,144 384,142.654342 384,140.999545 C384,139.345658 385.345658,138 387.000455,138 C388.654342,138 390,139.345658 390,140.999545 C390,142.654342 388.654342,144 387.000455,144 Z" id="Fill-73" fill="#C3D7E6"></path>
                                <path d="M251,158 C250.447,158 250,157.580531 250,157.063686 L250,102.936314 C250,102.419469 250.447,102 251,102 C251.553,102 252,102.419469 252,102.936314 L252,157.063686 C252,157.580531 251.553,158 251,158" id="Fill-74" fill="#C3D7E6"></path>
                                <path d="M260.037258,164 C259.562626,164 259.168865,163.64351 259.088957,163.175867 C258.38423,162.006259 252.113892,158.15296 250.966304,158.001752 C249.885145,158.15296 243.61577,162.006259 242.911043,163.175867 C242.831135,163.64351 242.436411,164 241.962742,164 C241.430346,164 241,163.551383 241,162.998623 C241,160.748529 249.736883,156 251,156 C252.262155,156 261,160.748529 261,162.998623 C261,163.551383 260.568692,164 260.037258,164" id="Fill-75" fill="#C3D7E6"></path>
                                <path d="M261.745902,209.742148 C256.084026,215.404024 246.910343,215.404024 241.252221,209.746841 C235.593161,204.088719 235.593161,194.914097 241.255975,189.252221 C246.914097,183.594099 256.08778,183.594099 261.745902,189.252221 C267.404024,194.910343 267.404024,204.084026 261.745902,209.742148 Z M270.425005,232.191631 L284.191631,218.425943 L281.257929,212.823192 C281.258867,212.823192 281.258867,212.822254 281.258867,212.822254 C281.513197,212.260102 281.746879,211.695134 281.966485,211.120782 C281.966485,211.120782 281.966485,211.119843 281.967423,211.119843 L288,209.23349 L288,189.765572 L281.963669,187.87828 L281.963669,187.877341 C281.744064,187.303927 281.513197,186.736145 281.258867,186.173992 L284.191631,180.574057 L270.425005,166.807431 L264.825069,169.739256 C264.825069,169.739256 264.825069,169.739256 264.824131,169.739256 C264.262917,169.484926 263.694196,169.254059 263.120782,169.035392 L261.23349,163 L241.765572,163 L239.87828,169.035392 C239.302051,169.251244 238.737083,169.484926 238.175869,169.739256 C238.175869,169.739256 238.174931,169.740194 238.173992,169.740194 L232.573118,166.807431 L218.806492,180.574057 L221.740194,186.175869 C221.486803,186.736145 221.253121,187.305804 221.035392,187.87828 L215,189.765572 L215,209.23349 L221.034454,211.120782 C221.253121,211.695134 221.483988,212.263855 221.738317,212.825069 C221.738317,212.825069 221.738317,212.826008 221.739256,212.826008 L218.806492,218.425943 L232.573118,232.191631 L238.173054,229.259806 C238.735206,229.515074 239.302989,229.745002 239.877341,229.963669 L239.87828,229.964608 L241.765572,235.999062 L261.23349,236 L263.120782,229.962731 C263.693257,229.745002 264.262917,229.51132 264.822254,229.257929 L270.425005,232.191631 Z" id="Fill-76" fill="#C3D7E6"></path>
                                <path d="M418,339.500464 C418,345.299642 336.292025,350 235.5,350 C134.707975,350 53,345.299642 53,339.500464 C53,333.701285 134.707975,329 235.5,329 C336.292025,329 418,333.701285 418,339.500464" id="Fill-77" fill="#EAF1F6"></path>
                                <path d="M165.949071,102 L154.050214,102 C152.942501,102 151.918677,102.574039 151.363867,103.503964 L145.415392,113.496498 C144.861536,114.427347 144.861536,115.573577 145.415392,116.504426 L151.363867,126.496036 C151.918677,127.426885 152.942501,128 154.050214,128 L165.949071,128 C167.056784,128 168.080608,127.426885 168.634464,126.496036 L174.583893,116.504426 C175.138702,115.573577 175.138702,114.427347 174.583893,113.496498 L168.634464,103.503964 C168.080608,102.574039 167.056784,102 165.949071,102" id="Fill-78" fill="#91B4D4"></path>
                                <path d="M100.299818,58.3596659 L99.6402188,57.700123 L111.340401,46 L112,46.6595429 L100.299818,58.3596659 Z M90.6595988,68 L90,67.3404571 L95.6369111,61.7040241 L96.2965099,62.363567 L90.6595988,68 Z" id="Fill-79" fill="#91B4D4"></path>
                                <path d="M191.754682,114.994815 C191.754682,132.546213 177.538095,146.762883 159.999057,146.762883 C142.460019,146.762883 128.243433,132.546213 128.243433,114.994815 C128.243433,97.4556731 142.460019,83.2380602 159.999057,83.2380602 C177.538095,83.2380602 191.754682,97.4556731 191.754682,114.994815 Z M240,136.335376 L240,93.6646239 L226.771475,89.5294482 C226.771475,89.5275625 226.771475,89.5266197 226.770533,89.5256769 C226.293472,88.2604225 225.779642,87.0215668 225.229986,85.7921393 C225.229043,85.7911965 225.229043,85.7911965 225.2281,85.7902537 L231.655215,73.517663 L201.481621,43.3448337 L189.203446,49.7748151 C189.202503,49.7748151 189.202503,49.7738723 189.202503,49.7738723 C187.974026,49.2242126 186.735177,48.7009517 185.46993,48.2248313 L181.335722,35 L138.664278,35 L134.53007,48.2238885 C134.53007,48.2238885 134.529127,48.2238885 134.528184,48.2238885 C133.262937,48.7009517 132.025032,49.2242126 130.795611,49.7738723 L118.518379,43.3448337 L88.3447845,73.517663 L94.7756709,85.7968534 C94.2165863,87.0253381 93.7027565,88.2623081 93.2275818,89.5256769 C93.226639,89.5266197 93.226639,89.5285053 93.2256962,89.5294482 L80,93.6646239 L80,136.335376 L93.2294674,140.471495 C93.7046421,141.733921 94.2260144,142.978433 94.7747281,144.203147 L88.3447845,156.482337 L118.518379,186.655166 L130.794668,180.227071 C130.794668,180.227071 130.794668,180.227071 130.795611,180.227071 C132.024089,180.777673 133.262937,181.300934 134.528184,181.777997 C134.529127,181.777997 134.53007,181.777997 134.531012,181.77894 L138.664278,195 L181.335722,195 L185.46993,181.777997 C186.735177,181.300934 187.973083,180.777673 189.202503,180.227071 C189.203446,180.227071 189.203446,180.227071 189.204389,180.226128 L201.481621,186.655166 L231.655215,156.482337 L225.224329,144.201261 C225.773043,142.976548 226.292529,141.732978 226.768647,140.472437 L240,136.335376 Z" id="Fill-80" fill="#C3D7E6"></path>
                                <path d="M219.155829,65.1238087 C219.095417,65.1238087 219.035005,65.1002101 218.988752,65.0549009 L200.456451,46.5224871 L188.942316,52.5514448 C188.880017,52.5844828 188.802614,52.5882586 188.736538,52.5571085 L187.482991,51.9964069 C186.190742,51.4168265 185.024037,50.9325843 183.918688,50.5153619 L182.626439,50.0292318 C182.558475,50.0037453 182.505615,49.9480527 182.483904,49.878201 L178.607158,37.471971 L140.393786,37.471971 L137.056027,48.1517311 C137.016382,48.2763314 136.886119,48.3461831 136.759631,48.3065376 C136.635032,48.2678359 136.566124,48.1356841 136.604826,48.0110837 L139.995445,37.1661338 C140.025651,37.0679638 140.117213,37 140.221046,37 L178.779898,37 C178.883731,37 178.974349,37.0679638 179.005499,37.1661338 L182.90018,49.6280564 L184.08482,50.074541 C185.199609,50.4936512 186.37481,50.9816693 187.675554,51.5659694 L188.825268,52.0804178 L200.391319,46.0240857 C200.483825,45.9778326 200.59521,45.9938796 200.667893,46.0665631 L219.321961,64.7207454 C219.414467,64.8132517 219.414467,64.9623946 219.321961,65.0549009 C219.276652,65.1002101 219.216241,65.1238087 219.155829,65.1238087 Z M91.2335846,73.7344478 C91.1731727,73.7344478 91.1127608,73.7117932 91.0665079,73.66554 C90.9749461,73.5739776 90.9749461,73.4238909 91.0665079,73.3323285 L118.332107,46.0665631 C118.403846,45.9938796 118.515231,45.9759447 118.608681,46.0240857 L130.172844,52.0804178 L131.323502,51.5650254 C132.434515,51.066624 133.453022,50.6380744 134.438492,50.2557778 C134.559316,50.2076368 134.69713,50.268993 134.743383,50.3898176 C134.791524,50.5115861 134.731112,50.6484577 134.609344,50.6956548 C133.631426,51.0751195 132.619527,51.4998934 131.517009,51.995463 L130.261574,52.5571085 C130.195498,52.5873146 130.119983,52.5835389 130.055796,52.5514448 L118.543549,46.5224871 L91.4006614,73.66554 C91.3544085,73.7117932 91.2939966,73.7344478 91.2335846,73.7344478 Z M221.975366,84.7936725 C221.938553,84.7936725 221.900795,84.7851771 221.86587,84.7672422 C221.750709,84.7058859 221.705401,84.5642946 221.765812,84.4481898 L227.476627,73.5428276 L222.92119,68.9883073 C222.829629,68.895801 222.829629,68.7466581 222.92119,68.6541518 C223.013696,68.5616455 223.162838,68.5616455 223.255344,68.6541518 L227.932548,73.3323285 C228.006175,73.405012 228.023166,73.5163972 227.975025,73.6089035 L222.18492,84.6671843 C222.142443,84.7474194 222.060321,84.7936725 221.975366,84.7936725 Z M95.3132772,90.1873573 C95.2859031,90.1873573 95.257585,90.1826376 95.2302108,90.1722542 C95.1084431,90.126001 95.0470872,89.9900734 95.0923961,89.8683049 C95.5492613,88.6581712 96.0297249,87.5027862 96.560217,86.3379617 C96.6140214,86.219025 96.7546679,86.1680521 96.87266,86.2209129 C96.9915959,86.2747176 97.0435124,86.4153649 96.989708,86.5333577 C96.4629916,87.6887427 95.9872477,88.8346883 95.5341583,90.0344387 C95.4992327,90.1297768 95.4086148,90.1873573 95.3132772,90.1873573 Z M95.2991182,139.239305 C95.2037806,139.239305 95.1131627,139.18078 95.0782371,139.086386 L94.6308113,137.901739 L82.1651888,134.005146 C82.0670195,133.97494 82,133.883377 82,133.780488 L82,95.2204561 C82,95.1175665 82.0670195,95.0260041 82.1651888,94.994854 L94.0852161,91.2691148 C94.2126475,91.2294693 94.3429107,91.3002649 94.3816121,91.4239213 C94.4203135,91.5485217 94.3504622,91.6806735 94.2258626,91.7203191 L82.4719681,95.3941415 L82.4719681,133.606802 L94.8818983,137.48546 C94.9508057,137.507171 95.0064979,137.560032 95.0319842,137.627052 L95.5199993,138.920252 C95.5653082,139.042021 95.5039524,139.177948 95.3821846,139.224201 C95.3548104,139.234585 95.3264923,139.239305 95.2991182,139.239305 Z M159.499056,149.368746 C140.276738,149.368746 124.637602,133.724795 124.637602,114.494808 C124.637602,114.364544 124.743322,114.258823 124.873586,114.258823 C125.003849,114.258823 125.10957,114.364544 125.10957,114.494808 C125.10957,133.464267 140.537264,148.896775 159.499056,148.896775 C178.461792,148.896775 193.888542,133.464267 193.888542,114.494808 C193.888542,95.531957 178.461792,80.1041686 159.499056,80.1041686 C159.368793,80.1041686 159.263072,79.999391 159.263072,79.8681831 C159.263072,79.7379191 159.368793,79.6321976 159.499056,79.6321976 C178.722318,79.6321976 194.360511,95.271429 194.360511,114.494808 C194.360511,133.724795 178.722318,149.368746 159.499056,149.368746 Z M134.522502,178.762157 C134.494184,178.762157 134.465866,178.757437 134.437548,178.74611 C133.478509,178.375141 132.460001,177.946591 131.321614,177.435919 C131.202678,177.383058 131.149818,177.243354 131.202678,177.124418 C131.255539,177.006425 131.395241,176.950732 131.514177,177.005481 C132.645013,177.512378 133.656913,177.937152 134.6084,178.306233 C134.730168,178.35343 134.79058,178.489358 134.742439,178.611126 C134.70657,178.704577 134.61784,178.762157 134.522502,178.762157 Z M118.499184,183.002345 C118.438772,183.002345 118.37836,182.97969 118.332107,182.933437 L91.0665079,155.668615 C90.9938248,155.595932 90.976834,155.483603 91.0240308,155.39204 L97.1331864,143.725861 C97.1945422,143.611644 97.3380205,143.568223 97.4522368,143.625803 C97.5673971,143.687159 97.6117621,143.829695 97.5513501,143.944856 L91.5233731,155.458116 L118.666261,182.599281 C118.757822,182.691788 118.757822,182.840931 118.666261,182.933437 C118.620008,182.97969 118.559596,183.002345 118.499184,183.002345 Z M200.50176,183.002345 C200.441348,183.002345 200.380936,182.97969 200.334683,182.933437 C200.242178,182.840931 200.242178,182.691788 200.334683,182.599281 L227.476627,155.458116 L221.447706,143.943912 C221.414668,143.879724 221.41278,143.804208 221.441098,143.738132 L222.000853,142.484577 C222.573822,141.202704 223.057117,140.037879 223.477169,138.921196 L223.96424,137.628939 C223.989726,137.560976 224.045419,137.508115 224.114326,137.486404 L236.528032,133.606802 L236.528032,95.3941415 L224.28801,91.5674005 C224.163411,91.5286989 224.094503,91.396547 224.133205,91.2719467 C224.171906,91.1473463 224.303113,91.0774946 224.428657,91.1171402 L236.833867,94.994854 C236.932981,95.0260041 237,95.1175665 237,95.2204561 L237,133.780488 C237,133.883377 236.932981,133.97494 236.833867,134.005146 L224.365413,137.902683 L223.918931,139.08733 C223.495104,140.212509 223.008977,141.386773 222.432231,142.677141 L221.919674,143.825919 L227.975025,155.39204 C228.023166,155.483603 228.006175,155.595932 227.932548,155.668615 L200.668837,182.933437 C200.622584,182.97969 200.562172,183.002345 200.50176,183.002345 Z M178.779898,192 L140.221046,192 C140.117213,192 140.025651,191.93298 139.995445,191.833866 L136.269728,179.91943 C136.231027,179.79483 136.300878,179.662678 136.425478,179.623976 C136.551021,179.586218 136.682228,179.654182 136.72093,179.778783 L140.393786,191.528029 L178.607158,191.528029 L182.483904,179.124631 C182.505615,179.055723 182.558475,179.00003 182.626439,178.974544 L183.917744,178.48747 C185.008934,178.075911 186.175639,177.591669 187.482991,177.005481 L188.740314,176.442892 C188.857362,176.388143 188.998953,176.442892 189.051813,176.561828 C189.105617,176.680765 189.051813,176.820468 188.932877,176.874273 L187.675554,177.435919 C186.359707,178.025882 185.184506,178.514844 184.083876,178.928291 L182.90018,179.375719 L179.005499,191.833866 C178.974349,191.93298 178.883731,192 178.779898,192 Z" id="Fill-81" fill="#FFFFFE"></path>
                                <path d="M295.403093,122 C298.380199,125.772156 301.162195,129.574626 303.883278,133.490773 C306.580567,137.415445 309.196005,141.403586 311.649643,145.572662 C312.266384,146.607115 312.857427,147.68325 313.456085,148.741387 C314.485889,150.613255 314.818054,152.397972 314.943686,153.941127 C315.161639,157.046383 314.715264,159.644832 314.148966,162.159919 C312.946893,167.151253 311.124272,171.610203 308.800073,176 L303.901362,174.120553 C304.822666,169.715599 305.66307,165.134447 305.99809,160.872535 C306.140854,158.763841 306.150372,156.646621 305.813448,155.087362 C305.643083,154.314364 305.400384,153.774402 305.232875,153.616202 C304.600906,152.676479 303.990827,151.735808 303.331257,150.799874 C300.754842,147.042874 298.025193,143.307663 295.270798,139.585713 L287,128.428391 L295.403093,122" id="Fill-82" fill="#E88274"></path>
                                <path d="M303.52365,173.557067 L301,177.77942 L309.812837,179 C309.812837,179 310.719567,175.412774 308.541518,173 L303.52365,173.557067" id="Fill-83" fill="#E88274"></path>
                                <polyline id="Fill-84" fill="#E88274" points="299 184.23459 306.231115 185 309 179.355474 300.311429 178 299 184.23459"></polyline>
                                <path d="M323.457341,210.631915 L326.047983,196.832961 C326.673083,193.504381 329.901985,191.295346 333.224887,191.918046 L355,195.998937 C352.017378,186.016955 343.686153,178.016717 332.729507,175.963592 C324.877682,174.491841 317.173437,176.358062 311.079414,180.558234 L212.266554,122.117427 C213.476335,107.60279 203.521729,94.2415104 188.88216,91.4980618 C177.926453,89.4449367 167.259327,93.8864869 160.859803,102.110258 L182.634916,106.19021 C185.957818,106.81291 188.166819,110.040055 187.541719,113.368634 L184.952017,127.168528 C184.326917,130.497108 181.097075,132.704264 177.776053,132.081564 L156,128.001612 C158.982622,137.983595 167.313847,145.983832 178.269553,148.036958 C186.221958,149.527493 194.017383,147.591769 200.147127,143.278892 L298.761646,201.602297 C297.399585,216.224004 307.384271,229.741194 322.11784,232.501548 C333.073547,234.555613 343.739733,230.114062 350.140197,221.890291 L328.365084,217.810339 C325.043122,217.187639 322.833181,213.960495 323.457341,210.631915" id="Fill-85" fill="#045077"></path>
                                <path d="M292.067428,190.572987 L211.511431,143.205016 C210.047464,142.34501 209.563571,140.469143 210.430232,139.015769 L213.715415,133.500835 C214.582076,132.047461 216.470396,131.566759 217.933418,132.426766 L298.489414,179.794736 C299.951491,180.655682 300.43633,182.531548 299.570614,183.984922 L296.284485,189.499856 C295.418769,190.95323 293.529505,191.432994 292.067428,190.572987" id="Fill-86" fill="#216B92"></path>
                                <path d="M260.986001,93.1013482 C260.922821,93.6512551 260.652552,94.0510168 260.383687,93.9947123 C260.114822,93.9374695 259.949853,93.4476206 260.013735,92.8977137 C260.077617,92.3487451 260.347885,91.9489834 260.61675,92.0052879 C260.885615,92.0615924 261.050584,92.5523796 260.986001,93.1013482" id="Fill-87" fill="#151F35"></path>
                                <path d="M261,94 C261,94 259.441776,96.859813 258,98.1232205 C258.741413,99.1420683 260.274504,98.9922643 260.274504,98.9922643 L261,94" id="Fill-88" fill="#E05B58"></path>
                                <path d="M263.691379,90 C263.612535,90 263.534578,89.9589299 263.474338,89.8779976 C262.494555,88.5577144 261.384547,88.870572 261.373916,88.8729879 C261.202056,88.9261375 261.042597,88.7787682 261.007162,88.5516747 C260.970841,88.3245812 261.076261,88.1011114 261.24192,88.0527937 C261.303046,88.0346745 262.697421,87.6469244 263.908419,89.2800652 C264.029785,89.4431376 264.030671,89.7100934 263.910191,89.8743738 C263.850837,89.9577219 263.771108,90 263.691379,90" id="Fill-89" fill="#151F35"></path>
                                <path d="M280.454056,99 C279.469509,104.095099 278.487765,113.431057 282,116.831897 C282,116.831897 280.6278,122 271.299826,122 C261.041484,122 266.397643,116.831897 266.397643,116.831897 C271.995734,115.475164 271.851882,111.259904 270.876676,107.300631 L280.454056,99" id="Fill-90" fill="#E88274"></path>
                                <path d="M286,121 C285.882996,120.840586 285.800904,120.656792 285.74712,120.455181 C284.95451,117.469459 281.618945,115.129831 277.296391,115.015428 C272.736055,114.895399 267.602964,115.439281 264.557079,117.93926 C263.221909,119.034525 264.706165,120.640851 264.706165,120.640851 L286,121" id="Fill-91" fill="#6FA0C9"></path>
                                <path d="M321.515815,307.482793 C320.808855,307.71143 319.666436,308.193987 319.37378,308.812846 C319.305023,308.957942 319.290038,309.099741 319.32706,309.247036 C319.412566,309.588893 319.546553,309.608679 319.588865,309.614175 C320.028731,309.685624 320.963117,308.495172 321.515815,307.482793 Z M319.62148,310 C319.598561,310 319.577405,309.997802 319.554486,309.994504 C319.383476,309.970321 319.154287,309.840614 319.034404,309.360256 C318.970055,309.108535 318.996499,308.859013 319.109331,308.619383 C319.602087,307.576227 321.725611,307.025519 321.815524,307.002435 C321.876347,306.991443 321.936289,307.017824 321.971549,307.078281 C322.006808,307.139837 322.009453,307.22118 321.978601,307.287133 C321.644514,308.000524 320.439508,310 319.62148,310 Z" id="Fill-92" fill="#4968A3"></path>
                                <path d="M319.805835,306.402574 C319.771855,306.402574 319.737875,306.406061 319.705514,306.411874 C319.551796,306.438614 319.436103,306.531623 319.351153,306.694389 C319.241124,306.905984 319.289666,307.005968 319.31151,307.048985 C319.542087,307.515192 320.775067,307.71051 321.534758,307.537281 C321.148845,307.135018 320.368928,306.402574 319.805835,306.402574 Z M320.892379,308 C320.159386,308 319.334163,307.794218 319.080933,307.282669 C319.010547,307.139668 318.922361,306.84204 319.125431,306.451403 C319.257304,306.199117 319.440957,306.051465 319.671534,306.009611 C320.559862,305.864285 321.892355,307.414044 321.948178,307.481476 C321.987822,307.529143 322.007239,307.60355 321.99753,307.675632 C321.987822,307.750039 321.950606,307.808169 321.902063,307.831422 C321.666632,307.939544 321.293663,308 320.892379,308 Z" id="Fill-93" fill="#4968A3"></path>
                                <path d="M249.948031,331.391142 C249.843394,331.391142 249.745618,331.405819 249.65985,331.436303 C249.521763,331.484851 249.425702,331.575173 249.36738,331.710655 C249.261027,331.955653 249.299623,332.07533 249.338219,332.145329 C249.630689,332.680486 251.225122,332.692906 252.395001,332.476133 C251.811777,332.080975 250.683923,331.391142 249.948031,331.391142 Z M250.947232,333 C250.138437,333 249.357088,332.853227 249.096352,332.374521 C249.003722,332.207426 248.931677,331.922912 249.107502,331.516463 C249.206135,331.288401 249.365664,331.133725 249.580943,331.056951 C250.63332,330.675341 252.831562,332.333876 252.92505,332.403876 C252.979084,332.444521 253.008245,332.52581 252.997953,332.605971 C252.988518,332.686132 252.941346,332.750486 252.88045,332.767421 C252.478197,332.871291 251.701136,333 250.947232,333 Z" id="Fill-94" fill="#4968A3"></path>
                                <path d="M251.862981,330.313735 C251.826039,330.313735 251.788011,330.315539 251.749982,330.318245 C251.409898,330.347111 251.388167,330.458061 251.381648,330.494143 C251.293639,330.944259 252.590958,332.07 253.574269,332.560708 C253.472135,332.039331 253.186377,330.97132 252.520333,330.518498 C252.319325,330.380486 252.103105,330.313735 251.862981,330.313735 Z M253.811133,333 C253.785056,333 253.758979,332.99549 253.733989,332.986469 C252.770235,332.626557 250.862286,331.194123 251.007881,330.444531 C251.04265,330.268633 251.192591,330.049439 251.711954,330.006141 C252.096586,329.97457 252.450795,330.064773 252.761543,330.27585 C253.776364,330.967712 253.99041,332.75194 253.999103,332.827711 C254.005622,332.883637 253.976286,332.937759 253.921959,332.970233 C253.889363,332.990078 253.851334,333 253.811133,333 Z" id="Fill-95" fill="#4968A3"></path>
                                <polyline id="Fill-96" fill="#E88274" points="261 332 253.724842 332 253 316 260.275158 316 261 332"></polyline>
                                <polyline id="Fill-97" fill="#E88274" points="328 303.022338 322.345939 307 309 296.977662 314.654061 293 328 303.022338"></polyline>
                                <path d="M321.89627,306.767632 L327.326128,301.184685 C327.523785,300.98218 327.837375,300.940929 328.081595,301.087183 L333.513354,304.345074 C334.076866,304.68352 334.166191,305.459788 333.701508,305.921049 C331.771504,307.837346 330.733806,308.674553 328.346721,311.129925 C326.876649,312.639336 322.877902,317.946652 320.84907,320.03264 C318.86395,322.072689 316.464512,320.410461 317.105946,319.378249 C319.981471,314.745012 321.344162,310.150214 321.421134,307.866409 C321.433488,307.454836 321.606437,307.063889 321.89627,306.767632" id="Fill-98" fill="#183049"></path>
                                <path d="M253.55395,332 L261.038204,332 C261.319027,332 261.561598,332.199234 261.622241,332.479885 L262.975041,338.734674 C263.116852,339.383142 262.636375,339.998084 261.989829,339.98659 C259.289826,339.939655 255.389095,339.77682 251.994964,339.77682 C248.02706,339.77682 244.599343,340 239.946641,340 C237.132815,340 236.35099,337.079502 237.529326,336.814176 C242.891082,335.610153 247.268558,335.480843 251.902601,332.547893 C252.405469,332.228927 252.96245,332 253.55395,332" id="Fill-99" fill="#183049"></path>
                                <path d="M285.47411,131.076625 C286.445319,132.807689 287.481589,134.482612 288.509374,136.045249 C290.283009,138.749452 291.998183,141.088729 293.234353,142.698152 C294.337571,144.148503 295.044762,145 295.044762,145 L309,135.558679 C309,135.558679 300.551424,119.165027 293.979261,118.117031 C287.245859,117.059678 281.089525,123.310226 285.47411,131.076625" id="Fill-100" fill="#00AAFF"></path>
                                <path d="M288,136.555891 C289.876871,139.175227 291.691878,141.441088 293,143 C292.850329,139.882175 292.141888,134.833837 289.477749,131 C288.498902,131.870091 288.110756,134.117825 288,136.555891" id="Fill-101" fill="#4385F5"></path>
                                <path d="M252.000019,140.724775 C252.000019,143.080984 252.056307,145.672814 252.187645,148.528539 C252.525371,156.294603 253.368748,165.97391 254.983266,178 L291.841368,178 C292.095601,172.316824 288.540096,144.579533 294,117.79415 C294,117.79415 287.677019,116.521797 281.654238,116.229627 C276.943899,116.003431 270.124648,115.852634 265.987505,116.229627 C260.526663,116.738568 255.386661,118.152294 255.386661,118.152294 C255.386661,118.152294 251.990638,122.007051 252.000019,140.724775" id="Fill-102" fill="#00AAFF"></path>
                                <path d="M252,141.137327 C252,143.511322 252.058594,146.122717 252.195313,149 C256.697266,144.726808 257,136 257,136 L252,141.137327" id="Fill-103" fill="#4385F5"></path>
                                <path d="M260,130.329395 C259.160682,131.732608 258.442075,132.71345 257.64708,133.744976 C256.868118,134.754914 256.079724,135.71886 255.276242,136.666851 C253.682481,138.569401 251.982155,140.351811 250.240334,142.106062 C246.711425,145.572328 242.952412,148.842425 238.506855,151.646974 C237.382735,152.336848 236.212405,152.995748 234.963801,153.597394 L234.489445,153.819843 L234.251795,153.92966 C234.182952,153.963449 234.093362,154.003809 233.957563,154.056371 C233.480377,154.244092 232.976786,154.444953 232.526007,154.5482 L231.830976,154.724657 L231.173667,154.838228 C230.725716,154.921764 230.318317,154.947107 229.903373,154.976203 C226.641349,155.129196 224.035691,154.521919 221.52811,153.802009 C216.5535,152.298365 212.224882,150.1499 208,147.503036 L210.234095,142.82691 C214.568371,144.049911 219.099746,145.217535 223.307653,145.791022 C225.384258,146.05477 227.496699,146.179604 228.931085,145.872681 C229.099891,145.831382 229.279071,145.803224 229.404498,145.753478 L229.61197,145.694346 L229.763801,145.623012 C229.886398,145.587345 229.91469,145.529152 229.983533,145.500994 L230.55691,145.179052 C231.393399,144.694733 232.236489,144.137202 233.073921,143.535556 C236.441567,141.102694 239.683787,138.034397 242.737396,134.821555 C244.277403,133.218419 245.753283,131.541133 247.195212,129.866663 C247.91099,129.025674 248.60885,128.17436 249.264273,127.327738 C249.898005,126.500828 250.585491,125.598829 250.967428,125 L260,130.329395" id="Fill-104" fill="#E88274"></path>
                                <path d="M211,144.409421 L206.231801,139 L203,146.892266 C203,146.892266 207.105841,148.723004 210.302524,147.6774 L211,144.409421" id="Fill-105" fill="#E88274"></path>
                                <polyline id="Fill-106" fill="#E88274" points="199.274137 138 198 144.259343 202.88701 147 206 139.160575 199.274137 138"></polyline>
                                <path d="M264.923898,126.468281 C264.108918,133.046588 249.317251,147 249.317251,147 L236,136.297034 C236,136.297034 241.266173,128.197824 247.660278,122.577752 C257.305924,114.099969 265.901875,118.571103 264.923898,126.468281" id="Fill-107" fill="#00AAFF"></path>
                                <path d="M253,170.818431 C266.401609,170.818431 269.467919,155.563798 270.166644,149.017321 C269.655748,145.017221 267.409312,132.202158 258.641448,117.835071 C258.332469,117.329387 258.615152,116.66869 259.195544,116.560937 L262.137887,116.013664 C262.477858,115.951281 262.825342,116.106294 263.008475,116.401197 C271.079493,129.391124 273.714736,140.415028 274.577811,146.085301 C275.350728,146.085301 276.166845,146.085301 276.973572,146.085301 C279.439768,140.695753 284.857699,128.423236 284.410666,116.918224 C284.391883,116.405923 284.81262,115.99287 285.320698,116.041075 L288.476228,116.346376 C288.89133,116.386074 289.22097,116.722567 289.238814,117.141291 C289.699935,128.23514 283.474338,143.610759 281.077638,148.491788 C281.901269,166.591482 291.896596,169.715379 291.896596,169.715379 C291.896596,169.715379 292.366169,175.465994 291.303995,183.183578 C270.129078,186.646802 259.57402,184.533328 253.53907,182.019087 C254.078139,177.466989 253.234786,174.28449 253,170.818431" id="Fill-108" fill="#2557B7"></path>
                                <polyline id="Fill-109" fill="#E16F62" points="253 317 253.339806 325 260 325 259.659288 317 253 317"></polyline>
                                <polyline id="Fill-110" fill="#E16F62" points="315.41408 293 310 296.917122 316.586828 302 322 298.082878 315.41408 293"></polyline>
                                <path d="M280.765978,94.5303369 C279.265024,101.257316 278.732458,105.270828 274.700859,108.220494 C268.63574,112.656332 260.630013,108.231832 260.062965,101.197793 C259.553388,94.8666858 262.093611,84.9283306 269.263133,83.2664267 C276.327292,81.6290877 282.266932,87.8033582 280.765978,94.5303369" id="Fill-111" fill="#E88274"></path>
                                <path d="M286.404707,84.1349712 C292.271714,84.2965183 289.853568,87.4414301 286.920065,89.1687418 C286.920065,89.1687418 290.302277,90.8195815 288.559072,94.7664936 C285.911879,100.762856 280.845601,107.347097 275.667616,106.985766 C269.232683,106.537449 267.400299,99.4026098 267.632164,92.3700517 C264.238687,89.1085201 263.668883,87.3133395 263.136628,83.3979721 C262.079628,75.6217236 266.905593,71.3498055 286.404707,84.1349712" id="Fill-112" fill="#183049"></path>
                                <path d="M278.148548,71.5020951 C286.572851,73.6922549 291.658225,82.4221146 289.506575,91 L259,83.0694477 C261.15165,74.4906004 269.724245,69.3119353 278.148548,71.5020951" id="Fill-113" fill="#91B4D4"></path>
                                <path d="M284.206918,91 C284.094118,91 283.979438,90.9857736 283.865698,90.9563722 C283.132499,90.7676347 282.688819,90.0136331 282.876819,89.2729095 C283.743498,85.8462329 283.108059,82.2431484 281.08612,79.1294537 C279.039741,75.9759249 275.824943,73.7015904 272.032045,72.7247078 C271.298846,72.5359703 270.855166,71.7819687 271.043166,71.0412451 C271.231166,70.3014699 271.976585,69.8557079 272.711665,70.0425486 C277.168202,71.191097 280.95828,73.8789468 283.381599,77.6129146 C285.829357,81.3848196 286.594517,85.7694101 285.535137,89.9576757 C285.376277,90.5836394 284.818858,91 284.206918,91" id="Fill-114" fill="#6FA0C9"></path>
                                <path d="M255.101312,82.8492811 L291.173572,91.955009 C291.954078,92.1521637 292.755472,91.6827478 292.954872,90.9110282 C293.153321,90.1393086 292.678561,89.3478736 291.898056,89.1507189 L255.825796,80.044991 C255.04624,79.8478363 254.244845,80.3172522 254.045446,81.0889718 C253.846047,81.8606914 254.321756,82.6521264 255.101312,82.8492811" id="Fill-115" fill="#6FA0C9"></path>
                                <path d="M270.984433,93.8614671 C270.829643,95.5991893 270.01246,97.2090035 269.058646,98.2477996 C267.62317,99.8091914 266.210177,98.75395 266.027716,96.7832524 C265.863414,95.008985 266.412527,92.0588772 268.133369,91.2302157 C269.828269,90.4152587 271.159976,91.8752378 270.984433,93.8614671" id="Fill-116" fill="#E88274"></path>
                                <path d="M268.033381,178 C268.033381,178 267.240436,227.282716 273.383891,246.603486 C283.11617,277.208295 312.494412,302 312.494412,302 L323,294.356339 C323,294.356339 298.546807,273.414271 294.059374,247.635649 C290.027322,224.47561 291.741318,196.916389 291.741318,178 C283.183495,178 268.033381,178 268.033381,178" id="Fill-117" fill="#2557B7"></path>
                                <path d="M274.775033,187.020488 C276.053462,195.958962 271.53524,220.849099 269.970567,229 C268.332263,213.759998 268.028532,195.683786 268,185.815408 C271.314345,183.500134 274.185979,182.902338 274.775033,187.020488" id="Fill-118" fill="#185092"></path>
                                <path d="M308.00032,299.476433 C307.956745,299.506716 312.372051,302 312.372051,302 L324,293.870443 L320.123701,291 L308.00032,299.476433" id="Fill-119" fill="#6FA0C9"></path>
                                <path d="M254.358393,178 C254.358393,178 243.801657,222.247874 243.05844,243.384961 C242.224587,267.089179 250.589834,323 250.589834,323 L262.463181,323 C262.463181,323 263.925763,266.654248 264.453362,245.063361 C265.029617,221.52519 279,178 279,178 L254.358393,178" id="Fill-120" fill="#2557B7"></path>
                                <path d="M249.002915,318 C248.949387,318 249.650789,323 249.650789,323 L263.621612,323 L264,318.53803 L249.002915,318" id="Fill-121" fill="#6FA0C9"></path>
                            </g>
                            <g id="Group-8" transform="translate(0.000000, 63.000000)">
                                <polyline id="Fill-298" fill="#E88274" points="14.203 305.201 21.55 305.201 22.336 288.189 14.99 288.189 14.203 305.201"></polyline>
                                <path d="M21.804,304.35 L13.781,304.35 C13.48,304.35 13.228,304.559 13.173,304.852 L11.957,311.383 C11.83,312.059 12.367,312.701 13.061,312.689 C15.952,312.64 20.128,312.47 23.766,312.47 C28.019,312.47 28.617,312.702 33.604,312.702 C36.621,312.702 37.349,309.653 36.076,309.377 C30.284,308.12 28.67,307.985 23.594,304.924 C23.042,304.591 22.438,304.35 21.804,304.35" id="Fill-299" fill="#183049"></path>
                                <polyline id="Fill-300" fill="#E16F62" points="22.335 288.193 21.931 296.963 14.581 296.963 14.985 288.193 22.335 288.193"></polyline>
                                <path d="M63.444,60.677 C63.301,62.984 63.142,65.513 63.073,67.934 C63.013,70.38 62.945,72.818 62.984,75.231 C63.002,77.638 63.1,80.032 63.307,82.335 C63.497,84.636 63.852,86.876 64.363,88.769 C64.609,89.72 64.938,90.534 65.229,91.09 C65.262,91.196 65.47,91.504 65.607,91.729 L66.061,92.456 C66.352,92.942 66.704,93.425 67.017,93.917 C68.326,95.872 69.783,97.811 71.278,99.756 C74.296,103.61 77.546,107.501 80.756,111.304 L76.93,115.779 C72.461,112.876 68.371,109.668 64.456,106.047 C62.502,104.238 60.627,102.313 58.818,100.234 C58.369,99.705 57.909,99.203 57.485,98.634 L56.837,97.798 C56.613,97.499 56.429,97.303 56.147,96.852 C55.086,95.248 54.398,93.701 53.867,92.226 C52.809,89.265 52.279,86.458 51.863,83.702 C51.453,80.943 51.271,78.241 51.132,75.553 C51.04,72.87 50.998,70.208 51.1,67.558 C51.196,64.885 51.309,62.321 51.61,59.549 L63.444,60.677" id="Fill-301" fill="#E88274"></path>
                                <path d="M66.04,75.738 L62.92,76.988 L57.67,79.077 L48.35,82.807 C48.35,82.807 44.1,60.698 46.39,53.977 C48.91,46.597 57.811,46.767 62.62,55.178 C67.3,63.378 66.04,75.738 66.04,75.738" id="Fill-302" fill="#00AAFF"></path>
                                <path d="M62.459,77.171 L57.67,79.077 C56.87,75.608 56.13,69.798 58.5,65.448 C61.736,68.155 62.239,73.631 62.459,77.171" id="Fill-303" fill="#4385F5"></path>
                                <path d="M57.7,107.887 L17.49,107.887 C17.2,104.278 18.11,94.497 17.51,81.178 C17.37,78.108 17.15,74.858 16.82,71.448 C16.14,64.358 14.96,56.597 13,48.448 C13,48.448 19.85,47.057 26.4,46.747 C31.53,46.497 38.96,46.338 43.5,46.747 C49.47,47.287 55.16,48.888 55.16,48.888 C55.16,48.888 64.61,65.617 57.7,107.887" id="Fill-304" fill="#00AAFF"></path>
                                <path d="M17.51,81.178 C17.37,78.108 17.15,74.858 16.82,71.448 C18.12,70.637 19.82,70.588 20.17,75.347 C20.49,79.747 18.95,80.968 17.51,81.178" id="Fill-305" fill="#4385F5"></path>
                                <polyline id="Fill-306" fill="#E88274" points="92.172 116.664 86.372 120.28 79.206 118.746 84.907 111.674 92.172 116.664"></polyline>
                                <path d="M78.214,110.598 L84.907,111.674 L79.206,118.746 C79.206,118.746 75.632,118.389 74.66,113.551 L78.214,110.598" id="Fill-307" fill="#E88274"></path>
                                <path d="M27.406,27.499 C28.682,32.998 30.119,43.075 26.403,46.744 C26.403,46.744 28.267,50.432 38.485,50.432 C47.823,50.432 43.496,46.745 43.496,46.745 C37.311,45.281 37.306,40.731 38.221,36.458 L27.406,27.499" id="Fill-308" fill="#E88274"></path>
                                <path d="M31.815,31.154 L38.216,36.453 C37.995,37.464 37.833,38.49 37.797,39.487 C35.848,41.385 32.132,36.576 31.795,34.123 C31.627,32.9 31.636,31.724 31.815,31.154" id="Fill-309" fill="#E16F62"></path>
                                <path d="M49.239,13.508 C51.804,16.691 48.811,26.711 43.509,26.457 C38.208,26.203 44.381,7.48 49.239,13.508" id="Fill-310" fill="#151F35"></path>
                                <path d="M28.496,18.36 C27.922,25.773 27.207,30.069 30.407,34.486 C35.222,41.128 44.802,39.363 47.588,32.35 C50.097,26.038 50.614,14.975 43.799,10.793 C37.084,6.673 29.07,10.947 28.496,18.36" id="Fill-311" fill="#E88274"></path>
                                <path d="M25.823,9.03 L33.831,11.863 C30.316,16.56 35.415,27.616 29.216,25.55 C26.374,24.603 17.106,14.372 25.823,9.03" id="Fill-312" fill="#151F35"></path>
                                <path d="M29.697,10.946 C32.722,13.169 45.011,15.807 52.037,11.891 C50.217,11.502 47.85,10.307 47.85,10.307 C47.85,10.307 53.109,10.057 55.442,6.169 C50.428,6.932 47.049,5.502 45.783,4.946 C48.075,4.446 50.496,2.084 51.151,0.391 C41.439,0.51 20.532,2.474 24.194,9.307 C27.855,16.141 29.697,10.946 29.697,10.946" id="Fill-313" fill="#151F35"></path>
                                <path d="M25.498,10.047 C25.498,10.047 23.079,8.935 21.547,7.215 C21.087,8.364 21.094,11.478 25.498,10.047" id="Fill-314" fill="#151F35"></path>
                                <path d="M24.03,25.861 C24.841,27.73 26.427,29.081 27.979,29.711 C30.312,30.658 31.682,28.672 31.204,26.349 C30.773,24.258 29.041,21.246 26.617,21.286 C24.229,21.326 23.103,23.724 24.03,25.861" id="Fill-315" fill="#E88274"></path>
                                <polyline id="Fill-316" fill="#E88274" points="36.747 305.201 44.094 305.201 45.613 288.189 38.268 288.189 36.747 305.201"></polyline>
                                <path d="M44.428,304.35 L36.405,304.35 C36.105,304.35 35.853,304.559 35.798,304.852 L34.581,311.383 C34.455,312.059 34.992,312.701 35.685,312.689 C38.577,312.64 42.753,312.47 46.391,312.47 C50.644,312.47 54.325,312.702 59.313,312.702 C62.329,312.702 63.057,309.653 61.784,309.377 C55.992,308.12 51.295,307.985 46.219,304.924 C45.667,304.591 45.063,304.35 44.428,304.35" id="Fill-317" fill="#183049"></path>
                                <polyline id="Fill-318" fill="#E16F62" points="45.612 288.193 44.83 296.963 37.48 296.963 38.263 288.193 45.612 288.193"></polyline>
                                <path d="M48.797,304.115 C48.889,304.13 48.965,304.155 49.021,304.195 C49.065,304.227 49.115,304.281 49.106,304.419 C49.09,304.701 48.986,304.898 48.789,305.019 C48.34,305.298 47.358,305.189 46.122,304.736 C47.023,304.384 48.225,304.025 48.797,304.115 Z M47.499,305.476 C48.068,305.566 48.611,305.553 48.983,305.325 C49.278,305.142 49.439,304.848 49.462,304.452 C49.48,304.156 49.341,303.993 49.221,303.907 C48.454,303.358 45.858,304.448 45.564,304.574 L45.462,304.74 L45.578,304.903 C46.082,305.109 46.81,305.368 47.499,305.476 Z" id="Fill-319" fill="#4968A3"></path>
                                <path d="M47.493,302.141 L47.573,302.16 C47.8,302.223 47.807,302.332 47.81,302.378 C47.844,302.882 46.741,303.962 45.902,304.421 C46.066,303.807 46.457,302.596 47.068,302.231 C47.208,302.148 47.348,302.119 47.493,302.141 Z M45.619,304.915 L45.706,304.908 C46.53,304.611 48.222,303.22 48.165,302.366 C48.155,302.212 48.075,301.934 47.658,301.817 C47.386,301.739 47.125,301.777 46.878,301.925 C45.924,302.493 45.484,304.608 45.466,304.698 L45.526,304.871 L45.619,304.915 Z" id="Fill-320" fill="#4968A3"></path>
                                <path d="M34.708,294.857 L46.658,294.857 C46.658,294.857 65.074,224.538 64.718,200.687 C64.374,177.747 57.697,107.887 57.697,107.887 L31.267,107.887 C31.267,107.887 33.325,123.428 35.663,142.597 C37.75,159.517 40.05,179.288 41.367,193.687 C41.75,197.968 42.057,201.767 42.239,204.887 C43.609,228.307 34.708,294.857 34.708,294.857" id="Fill-321" fill="#2557B7"></path>
                                <path d="M35.663,142.597 C37.75,159.517 40.05,179.288 41.367,193.687 C44.155,181.118 50.974,144.577 40.751,126.097 C38.191,129.747 36.628,136.057 35.663,142.597" id="Fill-322" fill="#185092"></path>
                                <path d="M43.436,107.891 C43.436,107.891 42.441,175.257 38.53,196.78 C34.248,220.348 25.727,294.858 25.727,294.858 L11.958,294.858 C11.958,294.858 13.966,222.252 16.055,198.916 C18.322,173.59 17.49,107.891 17.49,107.891 L43.436,107.891" id="Fill-323" fill="#2557B7"></path>
                                <polyline id="Fill-324" fill="#151F35" points="11.437 295.155 26.27 295.155 27.362 289.557 10.928 289.099 11.437 295.155"></polyline>
                                <polyline id="Fill-325" fill="#151F35" points="34.03 295.155 48.864 295.155 49.956 289.557 33.584 289.842 34.03 295.155"></polyline>
                                <path d="M17.215,286.723 L17.194,286.721 L17.083,286.574 C17.174,285.878 18.2,220.72 20.077,199.76 C22.114,177.009 20.839,116.646 20.882,116.139 L21.02,116.027 L21.138,116.169 C21.096,116.676 22.369,177.039 20.333,199.791 C18.456,220.757 17.429,285.92 17.338,286.616 L17.215,286.723" id="Fill-326" fill="#91B4D4"></path>
                                <path d="M39.407,22.434 C39.323,23.031 39.574,23.571 39.967,23.639 C40.36,23.708 40.746,23.28 40.83,22.682 C40.913,22.086 40.663,21.546 40.271,21.477 C39.877,21.409 39.491,21.837 39.407,22.434" id="Fill-327" fill="#151F35"></path>
                                <path d="M46.339,23.265 C46.255,23.863 46.506,24.402 46.898,24.471 C47.291,24.54 47.678,24.112 47.762,23.514 C47.845,22.917 47.594,22.377 47.201,22.308 C46.809,22.24 46.423,22.668 46.339,23.265" id="Fill-328" fill="#151F35"></path>
                                <path d="M43.994,23.475 C43.994,23.475 44.879,27.159 46.149,29.084 C44.948,29.884 43.204,29.117 43.204,29.117 L43.994,23.475" id="Fill-329" fill="#E05B58"></path>
                                <path d="M41.952,31.512 C42.05,31.525 42.138,31.456 42.146,31.359 C42.156,31.262 42.084,31.172 41.986,31.159 C39.336,30.805 38.28,28.797 38.27,28.777 L38.029,28.693 L37.954,28.93 C38,29.02 39.111,31.133 41.952,31.512" id="Fill-330" fill="#151F35"></path>
                                <path d="M37.584,18.121 C37.688,18.149 37.804,18.13 37.893,18.058 C39.113,17.086 40.372,17.5 40.385,17.506 C40.559,17.573 40.772,17.472 40.83,17.286 C40.888,17.1 40.782,16.897 40.594,16.832 C40.527,16.809 38.951,16.287 37.437,17.496 C37.285,17.617 37.265,17.84 37.391,17.995 L37.584,18.121" id="Fill-331" fill="#151F35"></path>
                                <path d="M18.915,47.085 L20.808,46.92 C20.997,46.903 21.175,47.035 21.217,47.222 C27.517,75.59 25.633,105.705 25.633,105.705 L23.539,105.705 C24.13,74.456 19.304,50.791 18.598,47.51 C18.552,47.296 18.699,47.104 18.915,47.085" id="Fill-332" fill="#2557B7"></path>
                                <path d="M23.934,106.381 L25.384,106.381 C25.756,106.381 26.049,106.077 26.035,105.705 C26.022,105.333 25.707,105.029 25.335,105.029 L23.886,105.029 C23.514,105.029 23.22,105.333 23.233,105.705 C23.247,106.077 23.562,106.381 23.934,106.381" id="Fill-333" fill="#151F35"></path>
                                <path d="M25.606,108.145 L25.539,106.248 C25.521,105.761 25.108,105.363 24.622,105.363 C24.136,105.363 23.752,105.761 23.77,106.248 L23.837,108.145 C23.854,108.632 24.268,109.03 24.754,109.03 C25.24,109.03 25.624,108.632 25.606,108.145" id="Fill-334" fill="#151F35"></path>
                                <path d="M49.474,19.672 L49.632,19.662 C49.816,19.607 49.918,19.407 49.857,19.216 C49.256,17.305 47.69,16.807 47.624,16.786 C47.443,16.723 47.244,16.836 47.192,17.027 C47.142,17.217 47.252,17.417 47.438,17.475 C47.49,17.492 48.707,17.893 49.188,19.418 C49.23,19.555 49.345,19.65 49.474,19.672" id="Fill-335" fill="#151F35"></path>
                                <path d="M17.526,60.317 C16.377,65.03 15.225,69.932 14.195,74.698 C13.705,77.091 13.224,79.47 12.85,81.81 C12.503,84.127 12.193,86.462 12.217,88.359 C12.275,92.206 13.673,96.02 16.29,99.496 C17.583,101.23 19.142,102.873 20.868,104.392 C21.729,105.155 22.629,105.899 23.571,106.587 C24.042,106.932 24.521,107.268 25.005,107.589 C25.465,107.908 26.012,108.257 26.388,108.498 L24.206,113.967 C23.408,113.723 22.811,113.52 22.135,113.271 C21.486,113.017 20.848,112.748 20.214,112.465 C18.948,111.897 17.707,111.268 16.493,110.565 C14.082,109.139 11.776,107.435 9.689,105.374 C7.604,103.318 5.746,100.892 4.327,98.133 C2.923,95.376 1.967,92.29 1.63,89.155 C1.337,85.977 1.431,83.224 1.655,80.497 C1.893,77.793 2.225,75.155 2.653,72.552 C3.5,67.331 4.617,62.322 6.053,57.208 L17.526,60.317" id="Fill-336" fill="#E88274"></path>
                                <path d="M13.005,48.444 C5.049,49.87 0.552,71.113 0.552,71.113 L20.209,78.148 C20.209,78.148 21.707,71.193 20.233,61.974 C18.786,52.929 20.546,47.093 13.005,48.444" id="Fill-337" fill="#00AAFF"></path>
                                <path d="M50.762,47.465 L52.653,47.821 C52.812,47.85 52.937,47.976 52.964,48.134 C57.965,76.515 54.646,105.705 54.646,105.705 L52.553,105.705 C54.571,74.813 50.959,51.542 50.342,47.875 C50.301,47.626 50.514,47.419 50.762,47.465" id="Fill-338" fill="#2557B7"></path>
                                <path d="M52.917,106.381 L54.366,106.381 C54.738,106.381 55.046,106.077 55.05,105.705 C55.054,105.333 54.752,105.029 54.381,105.029 L52.931,105.029 C52.559,105.029 52.251,105.333 52.247,105.705 C52.243,106.077 52.545,106.381 52.917,106.381" id="Fill-339" fill="#151F35"></path>
                                <path d="M54.508,108.145 L54.527,106.248 C54.533,105.761 54.139,105.363 53.652,105.363 C53.165,105.363 52.763,105.761 52.758,106.248 L52.738,108.145 C52.733,108.632 53.127,109.03 53.613,109.03 C54.101,109.03 54.503,108.632 54.508,108.145" id="Fill-340" fill="#151F35"></path>
                                <path d="M26.172,304.115 C26.265,304.13 26.34,304.155 26.396,304.195 C26.44,304.227 26.49,304.281 26.481,304.419 C26.466,304.701 26.362,304.898 26.164,305.019 C25.715,305.298 24.733,305.189 23.497,304.736 C24.399,304.384 25.6,304.025 26.172,304.115 Z M24.875,305.476 C25.443,305.566 25.986,305.553 26.358,305.325 C26.654,305.142 26.815,304.848 26.838,304.452 C26.855,304.156 26.716,303.993 26.596,303.907 C25.83,303.358 23.233,304.448 22.94,304.574 L22.838,304.74 L22.953,304.903 C23.457,305.109 24.185,305.368 24.875,305.476 Z" id="Fill-341" fill="#4968A3"></path>
                                <path d="M24.869,302.141 L24.948,302.16 C25.175,302.223 25.182,302.332 25.185,302.378 C25.219,302.882 24.117,303.962 23.277,304.421 C23.441,303.807 23.832,302.596 24.443,302.231 C24.583,302.148 24.723,302.119 24.869,302.141 Z M22.994,304.915 L23.081,304.908 C23.905,304.611 25.598,303.22 25.54,302.366 C25.53,302.212 25.451,301.934 25.034,301.817 C24.761,301.739 24.501,301.777 24.253,301.925 C23.3,302.493 22.859,304.608 22.841,304.698 L22.901,304.871 L22.994,304.915 Z" id="Fill-342" fill="#4968A3"></path>
                                <path d="M20.447,112.521 L22.75,108.337 L29.063,108.557 L33.969,110.598 L37.312,115.518 L28.727,114.993 C28.727,114.993 23.475,116.486 20.447,112.521" id="Fill-343" fill="#E88274"></path>
                                <polyline id="Fill-344" fill="#6FA0C9" points="37.868 50.428 36.363 49.363 33.347 52.37 37.868 50.428"></polyline>
                                <path d="M36.363,49.363 C36.363,49.363 33.91,52.974 33.504,55.585 C30.375,54.307 24.434,51.105 23.494,46.585 C24.68,46.344 26.627,45.085 26.627,45.085 C26.627,45.085 29.833,47.724 36.363,49.363" id="Fill-345" fill="#2557B7"></path>
                                <polyline id="Fill-346" fill="#6FA0C9" points="37.868 50.428 38.429 49.201 42.583 52.37 37.868 50.428"></polyline>
                                <path d="M38.429,49.201 C38.429,49.201 41.115,51.544 41.606,54.953 C44.644,53.676 45.702,49.502 44.797,46.724 C43.084,45.922 41.101,45.526 41.101,45.526 C41.101,45.526 41.518,48.224 38.429,49.201" id="Fill-347" fill="#2557B7"></path>
                                <polyline id="Fill-348" fill="#308AB8" points="110.446 78.992 47.479 76.766 38.372 113.579 101.339 115.805 110.446 78.992"></polyline>
                                <polyline id="Fill-349" fill="#045077" points="112.384 79.061 49.418 76.835 40.311 113.648 103.277 115.873 112.384 79.061"></polyline>
                                <polyline id="Fill-350" fill="#064464" points="103.277 115.873 103.023 117.917 40.054 115.691 40.308 113.647 103.277 115.873"></polyline>
                                <polyline id="Fill-351" fill="#308AB8" points="40.308 113.647 40.054 115.691 15.34 114.818 15.594 112.774 40.308 113.647"></polyline>
                            </g>
                        </g>
                    </g>
                </g>
            </g>
        </g>
    </g>
</svg>