<?xml version="1.0" encoding="UTF-8"?>
<svg width="449px" height="358px" viewBox="0 0 449 358" version="1.1" xmlns="http://www.w3.org/2000/svg" xmlns:xlink="http://www.w3.org/1999/xlink">
    <!-- Generator: Sketch 52.6 (67491) - http://www.bohemiancoding.com/sketch -->
    <title>Group 2</title>
    <desc>Created with Sketch.</desc>
    <g id="Assets" stroke="none" stroke-width="1" fill="none" fill-rule="evenodd">
        <g id="Оформление-СРО" transform="translate(-1103.000000, -489.000000)">
            <g id="About">
                <g id="Group-2" transform="translate(1103.000000, 489.000000)">
                    <g id="Group-3" transform="translate(0.000000, 123.000000)" fill="#F3F5F9">
                        <path d="M224.776,234.053 C167.459,234.053 110.138,222.63 66.407,199.784 C-21.057,154.094 -21.057,80.011 66.405,34.321 C110.137,11.475 167.452,0.053 224.77,0.053 C282.087,0.053 339.405,11.476 383.137,34.322 C470.601,80.014 470.601,154.094 383.137,199.786 C339.406,222.632 282.093,234.054 224.776,234.053" id="Fill-1"></path>
                    </g>
                    <polyline id="Fill-12" fill="#AECFE3" points="41.989 275.862 13.555 259.445 13.555 198.47 41.989 214.887 41.989 275.862"></polyline>
                    <polyline id="Fill-13" fill="#C3E0EC" points="41.989 214.887 82.609 191.434 82.61 252.41 41.989 275.862 41.989 214.887"></polyline>
                    <polyline id="Fill-14" fill="#D9EDF4" points="82.609 191.434 41.989 214.887 13.555 198.47 54.175 175.017 82.609 191.434"></polyline>
                    <polyline id="Fill-15" fill="#AECFE3" points="46.052 217.231 78.548 198.47 79.295 198.901 79.294 221.487 46.798 240.248 46.051 239.816 46.052 217.231"></polyline>
                    <polyline id="Fill-16" fill="#D9EDF4" points="46.799 217.663 79.295 198.901 79.294 221.487 46.798 240.248 46.799 217.663"></polyline>
                    <path d="M59.537,214.137 L65.062,210.945 C65.78,210.531 66.362,210.721 66.362,211.368 C66.362,212.016 65.78,212.877 65.062,213.291 L59.536,216.481 C58.818,216.895 58.237,216.707 58.237,216.059 C58.237,215.411 58.819,214.551 59.537,214.137" id="Fill-17" fill="#AECFE3"></path>
                    <polyline id="Fill-18" fill="#AECFE3" points="45.304 245.809 77.801 227.048 77.799 249.634 78.547 250.065 46.05 268.827 45.303 268.394 45.304 245.809"></polyline>
                    <polyline id="Fill-19" fill="#D9EDF4" points="46.051 246.242 78.548 227.479 78.547 250.065 46.05 268.827 46.051 246.242"></polyline>
                    <path d="M58.789,242.715 L64.315,239.524 C65.033,239.11 65.614,239.3 65.614,239.947 C65.614,240.595 65.033,241.455 64.315,241.87 L58.788,245.06 C58.071,245.474 57.489,245.285 57.49,244.638 C57.49,243.99 58.072,243.129 58.789,242.715" id="Fill-20" fill="#AECFE3"></path>
                    <polyline id="Fill-21" fill="#AECFE3" points="41.988 211.369 13.554 194.952 13.554 133.976 41.988 150.393 41.988 211.369"></polyline>
                    <polyline id="Fill-22" fill="#C3E0EC" points="41.988 150.393 82.608 126.941 82.609 187.917 41.988 211.369 41.988 150.393"></polyline>
                    <polyline id="Fill-23" fill="#D9EDF4" points="82.608 126.941 41.988 150.393 13.554 133.976 54.174 110.524 82.608 126.941"></polyline>
                    <polyline id="Fill-24" fill="#AECFE3" points="46.05 152.738 78.547 133.976 79.294 134.408 79.293 156.993 46.797 175.755 46.049 175.323 46.05 152.738"></polyline>
                    <path d="M59.535,149.643 L65.062,146.452 C65.779,146.038 66.36,146.227 66.36,146.875 C66.36,147.523 65.779,148.384 65.062,148.798 L59.535,151.988 C58.817,152.402 58.236,152.213 58.236,151.566 C58.236,150.918 58.818,150.057 59.535,149.643" id="Fill-25" fill="#AECFE3"></path>
                    <polyline id="Fill-26" fill="#AECFE3" points="45.303 181.316 77.799 162.555 77.798 185.14 78.545 185.572 46.049 204.333 45.302 203.901 45.303 181.316"></polyline>
                    <polyline id="Fill-27" fill="#D9EDF4" points="46.05 181.748 78.546 162.987 78.545 185.572 46.049 204.333 46.05 181.748"></polyline>
                    <path d="M58.788,178.221 L64.314,175.031 C65.031,174.617 65.613,174.806 65.613,175.453 C65.613,176.101 65.031,176.962 64.313,177.376 L58.787,180.567 C58.069,180.981 57.488,180.792 57.488,180.144 C57.489,179.496 58.07,178.636 58.788,178.221" id="Fill-28" fill="#AECFE3"></path>
                    <polyline id="Fill-29" fill="#AECFE3" points="46.05 152.737 78.546 133.975 78.545 156.561 46.049 175.322 46.05 152.737"></polyline>
                    <polyline id="Fill-30" fill="#AECFE3" points="94.795 145.134 77.007 134.867 77.006 154.764 94.794 165.031 94.795 145.134"></polyline>
                    <polyline id="Fill-31" fill="#C3E0EC" points="58.236 178.535 58.236 150.392 65.209 146.353 66.36 148.047 86.67 136.321 86.671 162.118 58.236 178.535"></polyline>
                    <polyline id="Fill-32" fill="#D9EDF4" points="58.236 178.535 60.267 153.91 88.701 137.494 86.671 162.118 58.236 178.535"></polyline>
                    <polyline id="Fill-33" fill="#C3E0EC" points="62.298 163.896 46.795 154.945 46.794 174.843 62.297 183.793 62.298 163.896"></polyline>
                    <polyline id="Fill-34" fill="#D9EDF4" points="62.298 162.118 94.794 143.356 94.793 165.942 62.297 184.703 62.298 162.118"></polyline>
                    <path d="M75.036,158.592 L80.562,155.401 C81.279,154.987 81.861,155.176 81.861,155.824 C81.861,156.471 81.279,157.332 80.561,157.746 L75.035,160.937 C74.317,161.351 73.736,161.162 73.736,160.514 C73.737,159.867 74.318,159.006 75.036,158.592" id="Fill-35" fill="#AECFE3"></path>
                    <polyline id="Fill-36" fill="#AECFE3" points="62.298 162.118 61.215 161.493 61.215 184.078 62.299 184.703 62.298 162.118"></polyline>
                    <polyline id="Fill-37" fill="#C3E0EC" points="61.215 161.493 93.712 142.732 94.794 143.356 62.298 162.118 61.215 161.493"></polyline>
                    <polyline id="Fill-38" fill="#AECFE3" points="377.866 210.916 349.432 194.5 349.432 133.523 377.866 149.94 377.866 210.916"></polyline>
                    <polyline id="Fill-39" fill="#C3E0EC" points="377.866 149.94 418.486 126.488 418.487 187.464 377.866 210.916 377.866 149.94"></polyline>
                    <polyline id="Fill-40" fill="#D9EDF4" points="418.486 126.488 377.866 149.94 349.432 133.523 390.052 110.072 418.486 126.488"></polyline>
                    <polyline id="Fill-41" fill="#AECFE3" points="381.929 152.285 414.425 133.523 415.172 133.955 415.171 156.541 382.675 175.302 381.928 174.87 381.929 152.285"></polyline>
                    <polyline id="Fill-42" fill="#D9EDF4" points="382.676 152.717 415.172 133.955 415.171 156.541 382.675 175.302 382.676 152.717"></polyline>
                    <path d="M395.414,149.19 L400.939,146 C401.657,145.585 402.238,145.775 402.238,146.422 C402.238,147.07 401.657,147.93 400.939,148.345 L395.413,151.535 C394.695,151.95 394.114,151.761 394.114,151.113 C394.114,150.465 394.696,149.604 395.414,149.19" id="Fill-43" fill="#AECFE3"></path>
                    <polyline id="Fill-44" fill="#AECFE3" points="381.182 180.864 413.678 162.102 413.677 184.687 414.424 185.119 381.928 203.881 381.181 203.448 381.182 180.864"></polyline>
                    <polyline id="Fill-45" fill="#D9EDF4" points="381.929 181.296 414.425 162.534 414.424 185.119 381.928 203.881 381.929 181.296"></polyline>
                    <path d="M394.666,177.769 L400.192,174.578 C400.909,174.164 401.491,174.353 401.491,175.001 C401.491,175.648 400.909,176.509 400.192,176.924 L394.665,180.114 C393.947,180.528 393.366,180.339 393.366,179.692 C393.367,179.044 393.948,178.183 394.666,177.769" id="Fill-46" fill="#AECFE3"></path>
                    <path d="M265.402,343.874 C236.968,327.457 210.587,309.609 198.544,288.665 L235.103,267.557 L265.402,343.874" id="Fill-58" fill="#D9EDF4"></path>
                    <polyline id="Fill-59" fill="#13326F" points="106.982 125.768 106.982 280.553 265.402 189.09 265.401 48.376 147.603 116.388 143.541 104.661 106.982 125.768"></polyline>
                    <polyline id="Fill-60" fill="#AECFE3" points="106.982 280.553 115.105 139.839 273.524 48.376 265.402 189.09 106.982 280.553"></polyline>
                    <polyline id="Fill-61" fill="#1E4796" points="106.982 280.553 119.167 142.184 277.587 50.721 265.402 189.09 106.982 280.553"></polyline>
                    <polyline id="Fill-62" fill="#3772D7" points="131.355 139.839 131.355 294.624 289.775 203.161 289.774 62.448 171.976 130.459 167.914 118.732 131.355 139.839"></polyline>
                    <polyline id="Fill-63" fill="#C3E0EC" points="131.355 294.624 139.479 153.91 297.897 62.447 289.775 203.161 131.355 294.624"></polyline>
                    <polyline id="Fill-64" fill="#4385F5" points="131.355 294.624 143.541 156.256 301.96 64.792 289.775 203.161 131.355 294.624"></polyline>
                    <polyline id="Fill-65" fill="#4CC3FF" points="159.788 156.256 159.788 311.041 318.208 219.577 318.207 78.864 200.409 146.875 196.346 135.149 159.788 156.256"></polyline>
                    <g id="Group-69" transform="translate(204.000000, 0.000000)">
                        <path d="M1.428,202.02 C1.029,202.02 0.97,201.559 0.97,201.284 L0.97,69.261 C0.97,68.333 1.648,67.157 2.452,66.694 L116.787,0.682 C116.979,0.572 117.16,0.513 117.311,0.513 C117.71,0.513 117.77,0.974 117.77,1.249 L117.77,133.273 C117.77,134.201 117.091,135.376 116.287,135.84 L1.952,201.851 C1.759,201.962 1.579,202.02 1.428,202.02" id="Fill-66" fill="#FFFFFE"></path>
                        <path d="M117.311,0.013 C117.078,0.013 116.815,0.089 116.537,0.249 L2.202,66.261 C1.245,66.813 0.47,68.156 0.47,69.261 L0.47,201.284 C0.47,202.067 0.86,202.52 1.428,202.52 C1.661,202.52 1.924,202.444 2.202,202.284 L116.537,136.273 C117.494,135.721 118.27,134.377 118.27,133.273 L118.27,1.249 C118.27,0.466 117.879,0.013 117.311,0.013 Z M117.244,1.024 C117.257,1.072 117.27,1.146 117.27,1.249 L117.27,133.273 C117.27,134.017 116.682,135.034 116.037,135.407 L1.702,201.418 C1.609,201.471 1.54,201.497 1.494,201.51 C1.481,201.462 1.47,201.388 1.47,201.284 L1.47,69.261 C1.47,68.516 2.057,67.499 2.702,67.127 L117.037,1.116 C117.13,1.062 117.199,1.036 117.244,1.024 Z" id="Fill-68" fill="#C3E0EC"></path>
                    </g>
                    <polyline id="Fill-70" fill="#D9EDF4" points="216.656 74.296 257.276 50.844 257.276 97.748 216.656 121.201 216.656 74.296"></polyline>
                    <path d="M251.184,62.57 L251.184,76.641 L249.911,77.352 C249.911,77.352 249.911,75.422 249.911,73.041 C249.911,70.66 247.973,69.85 245.581,71.23 L228.352,81.178 C225.96,82.558 224.021,85.607 224.021,87.988 L224.021,92.299 L222.749,93.058 L222.749,78.987 L251.184,62.57" id="Fill-71" fill="#FFFFFE"></path>
                    <path d="M243.349,98.433 C241.265,99.636 239.575,98.373 239.575,95.612 L239.575,73.042 L234.357,75.882 L234.357,98.624 C234.357,101.386 232.669,104.599 230.585,105.803 L226.812,107.981 L226.812,109.474 L247.122,97.748 L247.122,96.255 C247.122,96.255 245.433,97.23 243.349,98.433" id="Fill-72" fill="#FFFFFE"></path>
                    <path d="M265.4,48.499 C265.401,49.794 266.564,50.173 267.999,49.344 L307.485,26.547 C308.92,25.719 310.083,23.997 310.083,22.701 C310.083,21.407 308.92,21.028 307.485,21.856 L267.999,44.654 C266.563,45.482 265.4,47.204 265.4,48.499" id="Fill-73" fill="#AECFE3"></path>
                    <path d="M265.4,62.57 C265.401,63.865 266.564,64.244 267.999,63.416 L307.485,40.618 C308.92,39.79 310.083,38.068 310.083,36.773 C310.083,35.478 308.92,35.099 307.485,35.928 L267.999,58.725 C266.563,59.553 265.4,61.275 265.4,62.57" id="Fill-74" fill="#AECFE3"></path>
                    <path d="M265.4,76.641 C265.401,77.937 266.564,78.315 267.999,77.487 L307.485,54.69 C308.92,53.861 310.083,52.139 310.083,50.844 C310.083,49.549 308.92,49.171 307.485,49.999 L267.999,72.796 C266.563,73.625 265.4,75.346 265.4,76.641" id="Fill-75" fill="#AECFE3"></path>
                    <path d="M265.4,90.713 C265.401,92.008 266.564,92.386 267.999,91.558 L307.485,68.761 C308.92,67.932 310.083,66.211 310.083,64.915 C310.083,63.62 308.92,63.241 307.485,64.07 L267.999,86.867 C266.563,87.696 265.4,89.418 265.4,90.713" id="Fill-76" fill="#AECFE3"></path>
                    <path d="M216.656,132.931 C216.656,134.227 217.82,134.605 219.254,133.777 L307.485,82.833 C308.92,82.004 310.083,80.282 310.083,78.987 C310.083,77.692 308.92,77.313 307.485,78.142 L219.254,129.086 C217.819,129.914 216.656,131.636 216.656,132.931" id="Fill-77" fill="#AECFE3"></path>
                    <path d="M216.656,147.003 C216.656,148.298 217.82,148.677 219.254,147.848 L307.485,96.904 C308.92,96.076 310.083,94.354 310.083,93.058 C310.083,91.763 308.92,91.385 307.485,92.213 L219.254,143.157 C217.819,143.986 216.656,145.707 216.656,147.003" id="Fill-78" fill="#AECFE3"></path>
                    <path d="M216.656,161.074 C216.656,162.369 217.82,162.748 219.254,161.919 L307.485,110.975 C308.92,110.147 310.083,108.425 310.083,107.13 C310.083,105.834 308.92,105.456 307.485,106.284 L219.254,157.229 C217.819,158.057 216.656,159.779 216.656,161.074" id="Fill-79" fill="#AECFE3"></path>
                    <polyline id="Fill-80" fill="#00AAFF" points="159.789 311.041 188.223 186.744 346.642 95.281 318.208 219.577 159.789 311.041"></polyline>
                    <polyline id="Fill-81" fill="#099EE8" points="198.544 196.479 198.544 288.665 235.103 267.557 235.104 175.373 198.544 196.479"></polyline>
                    <path d="M265.436,343.277 C262.329,340.963 232.351,318.046 217.111,285.316 C200.889,250.476 200.903,209.841 200.909,194.544 L200.909,194.068 L309.584,131.325 C309.578,146.761 309.6,187.454 325.88,222.417 C340.766,254.387 369.598,277.041 374.17,280.5 L265.436,343.277" id="Fill-82" fill="#FFFFFE"></path>
                    <path d="M310.084,130.459 L200.409,193.779 C200.409,208.165 200.105,249.977 216.658,285.527 C232.905,320.422 265.402,343.874 265.402,343.874 L375.078,280.554 C375.078,280.554 342.581,257.1 326.333,222.206 C309.78,186.657 310.084,144.845 310.084,130.459 Z M309.084,132.191 C309.085,148.269 309.396,188.202 325.427,222.629 C339.813,253.523 367.174,275.745 373.271,280.442 L265.472,342.68 C261.258,339.504 232.404,316.976 217.564,285.104 C201.389,250.366 201.403,209.811 201.409,194.544 L201.409,194.357 L309.084,132.191 Z" id="Fill-83" fill="#C3E0EC"></path>
                    <path d="M297.682,151.69 L262.996,171.716 C261.561,172.545 260.429,174.243 260.477,175.511 C260.525,176.778 261.736,177.134 263.172,176.305 L297.857,156.279 C299.292,155.451 300.407,153.752 300.359,152.485 C300.311,151.218 299.116,150.862 297.682,151.69" id="Fill-84" fill="#AECFE3"></path>
                    <path d="M298.42,165.335 L263.734,185.361 C262.299,186.189 261.213,187.862 261.319,189.096 C261.426,190.33 262.686,190.657 264.12,189.829 L298.807,169.803 C300.241,168.974 301.308,167.304 301.201,166.07 C301.096,164.837 299.854,164.507 298.42,165.335" id="Fill-85" fill="#AECFE3"></path>
                    <path d="M299.806,178.607 L265.12,198.633 C263.685,199.461 262.648,201.104 262.819,202.301 C262.99,203.498 264.302,203.796 265.736,202.967 L300.423,182.941 C301.857,182.112 302.873,180.471 302.702,179.275 C302.531,178.078 301.24,177.778 299.806,178.607" id="Fill-86" fill="#AECFE3"></path>
                    <path d="M301.885,191.477 L267.199,211.503 C265.764,212.332 264.781,213.945 265.017,215.104 C265.252,216.264 266.617,216.529 268.053,215.701 L302.738,195.675 C304.173,194.846 305.134,193.238 304.898,192.079 C304.663,190.92 303.319,190.649 301.885,191.477" id="Fill-87" fill="#AECFE3"></path>
                    <path d="M304.705,203.92 L270.02,223.946 C268.585,224.774 267.658,226.355 267.966,227.472 C268.272,228.591 269.697,228.823 271.132,227.994 L305.817,207.968 C307.253,207.139 308.154,205.565 307.848,204.447 C307.54,203.329 306.141,203.092 304.705,203.92" id="Fill-88" fill="#AECFE3"></path>
                    <path d="M308.315,215.908 L223.777,264.716 C222.343,265.545 221.479,267.09 221.867,268.161 C222.255,269.232 223.745,269.425 225.18,268.596 L309.718,219.789 C311.152,218.96 311.989,217.424 311.602,216.352 C311.213,215.281 309.75,215.079 308.315,215.908" id="Fill-89" fill="#AECFE3"></path>
                    <path d="M312.82,227.357 L228.282,276.166 C226.848,276.994 226.061,278.497 226.535,279.518 C227.009,280.54 228.564,280.693 229.999,279.865 L314.537,231.056 C315.973,230.228 316.743,228.732 316.27,227.711 C315.795,226.689 314.255,226.529 312.82,227.357" id="Fill-90" fill="#AECFE3"></path>
                    <path d="M318.334,238.271 L233.796,287.079 C232.361,287.907 231.646,289.37 232.215,290.337 C232.783,291.304 234.422,291.408 235.857,290.58 L320.395,241.771 C321.83,240.943 322.518,239.496 321.949,238.528 C321.38,237.561 319.769,237.442 318.334,238.271" id="Fill-91" fill="#AECFE3"></path>
                    <path d="M324.842,248.584 L240.304,297.391 C238.869,298.22 238.226,299.643 238.88,300.561 C239.535,301.478 241.239,301.542 242.674,300.714 L327.212,251.905 C328.646,251.077 329.269,249.67 328.614,248.753 C327.959,247.836 326.276,247.755 324.842,248.584" id="Fill-92" fill="#AECFE3"></path>
                    <path d="M332.219,258.393 L247.681,307.202 C246.246,308.03 245.665,309.419 246.396,310.292 C247.126,311.165 248.89,311.194 250.325,310.365 L334.863,261.557 C336.298,260.729 336.86,259.357 336.13,258.484 C335.399,257.61 333.653,257.565 332.219,258.393" id="Fill-93" fill="#AECFE3"></path>
                    <path d="M340.391,267.741 L255.854,316.55 C254.418,317.378 253.895,318.733 254.695,319.566 C255.495,320.399 257.314,320.395 258.75,319.567 L343.288,270.76 C344.723,269.93 345.229,268.592 344.43,267.759 C343.629,266.926 341.826,266.913 340.391,267.741" id="Fill-94" fill="#AECFE3"></path>
                    <path d="M349.328,276.665 L264.79,325.472 C263.355,326.301 262.888,327.625 263.757,328.419 C264.625,329.213 266.501,329.176 267.936,328.346 L352.474,279.539 C353.908,278.711 354.359,277.404 353.49,276.61 C352.622,275.816 350.763,275.836 349.328,276.665" id="Fill-95" fill="#AECFE3"></path>
                    <path d="M250.428,178.973 L210.545,201.999 C210.989,216.443 212.637,237.292 218.682,258.277 L258.563,235.251 C252.519,214.265 250.871,193.418 250.428,178.973" id="Fill-96" fill="#D9EDF4"></path>
                    <path d="M226.812,198.799 C226.812,196.563 226.083,194.843 224.862,193.733 L210.545,201.999 C210.663,205.815 210.868,210.089 211.212,214.683 C212.783,214.941 214.636,214.658 216.629,213.729 C222.253,211.106 226.812,204.422 226.812,198.799" id="Fill-97" fill="#AECFE3"></path>
                    <path d="M255.182,221.453 L255.181,221.452 C252.521,218.096 247.11,207.75 244.799,203.241 C244.389,202.44 243.218,202.552 242.951,203.41 C238.957,216.229 238.624,229.662 238.624,229.662 C235.418,227.125 233.112,224.601 230.158,220.239 C229.729,219.606 228.763,219.775 228.57,220.514 C224.209,237.307 226.396,253.823 226.396,253.823 L258.563,235.251 C257.23,230.621 256.121,226.003 255.182,221.453" id="Fill-98" fill="#AECFE3"></path>
                </g>
            </g>
        </g>
    </g>
</svg>