<?xml version="1.0" encoding="UTF-8"?>
<svg width="538px" height="331px" viewBox="0 0 538 331" version="1.1" xmlns="http://www.w3.org/2000/svg" xmlns:xlink="http://www.w3.org/1999/xlink">
    <!-- Generator: Sketch 52.6 (67491) - http://www.bohemiancoding.com/sketch -->
    <title>asset3</title>
    <desc>Created with Sketch.</desc>
    <g id="Assets" stroke="none" stroke-width="1" fill="none" fill-rule="evenodd">
        <g id="Лицензирование" transform="translate(-1059.000000, -488.000000)">
            <g id="About">
                <g id="asset3" transform="translate(1058.500000, 488.000000)">
                    <path d="M502.027248,278.107987 C497.966223,267.652795 494.93402,256.556017 491.620525,244.835414 C489.387903,236.936577 485.788685,228.098671 477.984474,225.608917 C470.392894,223.186874 462.217686,228.206342 457.54867,234.675485 C452.878547,241.144628 450.52632,248.989074 446.531742,255.898891 C439.293439,268.420923 426.471364,273.669054 415.875268,262.659967 C400.73862,246.934444 393.925578,225.499026 384.327295,206.31804 C377.358102,192.392955 371.52737,176.091336 362.747494,163.257392 C349.359512,143.686792 331.002395,127 306.59084,127 C291.116419,129.349893 277.482583,143.087386 268.254189,160.254813 C259.026902,177.422239 253.644688,197.839778 249.057623,218.207365 C240.715191,255.248425 234.603166,293.148633 228.5,331 L536.5,327.399125 C535.276266,327.413555 527.723446,317.296917 526.277115,315.893863 C514.450639,304.425232 507.35409,291.81773 502.027248,278.107987" id="Fill-4" fill="#F3F5F9"></path>
                    <path d="M174.5,329 C167.282217,301.586999 160.025719,274.160658 151.541367,247.611436 C146.758272,232.641507 141.479612,217.728274 134.146787,205.752109 C126.813963,193.775944 117.099546,184.939173 107.348626,185.000315 C92.3201514,187.922931 82.6267522,202.835052 76.2684664,219.349109 C72.1004043,230.179128 70.0794252,243.298104 67.1303664,254.742885 C63.0673908,270.506555 60.9369004,287.654271 53.1328457,301.449151 C47.6694544,311.105232 39.2713844,308.641742 33.6110942,299.966165 C30.4872599,295.179256 28.2837621,289.484102 24.7871474,285.112963 C21.2894265,280.742936 15.774045,277.897026 11.3338642,280.650666 C6.76979192,283.482124 5.40477371,290.646923 4.79084737,296.932381 C3.87936033,306.260516 3.08070299,315.078389 1.58736864,323.530518 C1.26104743,325.371465 0.899328667,327.192403 0.5,329 L174.5,329" id="Fill-15" fill="#F3F5F9"></path>
                    <path d="M307.004052,328 L97.995948,328 C92.1986835,328 87.5,323.307666 87.5,317.518236 L87.5,34.4817641 C87.5,28.6923338 92.1986835,24 97.995948,24 L307.004052,24 C312.800206,24 317.5,28.6923338 317.5,34.4817641 L317.5,317.518236 C317.5,323.307666 312.800206,328 307.004052,328" id="Fill-24" fill="#D9EDF4"></path>
                    <path d="M87.5,98 L87.5,317.515546 C87.5,323.306462 92.1986835,328 97.995948,328 L307.004052,328 C312.800206,328 317.5,323.306462 317.5,317.515546 L317.5,274.191861 L87.5,98" id="Fill-25" fill="#AECFE3"></path>
                    <path d="M300.216963,314 L105.784147,314 C103.417993,314 101.5,312.081661 101.5,309.715082 L101.5,42.2849183 C101.5,39.9183386 103.417993,38 105.784147,38 L300.216963,38 C302.582007,38 304.5,39.9183386 304.5,42.2849183 L304.5,309.715082 C304.5,312.081661 302.582007,314 300.216963,314" id="Fill-26" fill="#FFFFFE"></path>
                    <path d="M219.881612,18.3460085 C219.896008,18.0593348 219.925908,17.7759945 219.925908,17.4848762 C219.925908,7.8290822 212.123229,0 202.5,0 C192.875663,0 185.074092,7.8290822 185.074092,17.4848762 C185.074092,17.7759945 185.103992,18.0593348 185.11728,18.3460085 L159.5,18.3460085 L159.5,45 L245.5,45 L245.5,18.3460085 L219.881612,18.3460085" id="Fill-27" fill="#AECFE3"></path>
                    <polyline id="Fill-28" fill="#D9EDF4" points="159.5 18 159.5 45 245.5 45 159.5 18"></polyline>
                    <path d="M212.5,17 C212.5,22.522861 208.022861,27 202.5,27 C196.977139,27 192.5,22.522861 192.5,17 C192.5,11.477139 196.977139,7 202.5,7 C208.022861,7 212.5,11.477139 212.5,17" id="Fill-29" fill="#8EADBF"></path>
                    <path d="M195.416966,10 C191.527678,13.8892885 191.527678,20.1948721 195.416966,24.0830336 C199.305128,27.9723221 205.610712,27.9723221 209.5,24.0830336 L195.416966,10" id="Fill-30" fill="#C9DEEB"></path>
                    <polygon id="Fill-31" fill="#ABCCE0" points="159.5 47 245.5 47 245.5 45 159.5 45"></polygon>
                    <polyline id="Fill-32" fill="#AECFE3" points="156.941799 114.441799 156.941799 113.883599 124.616401 113.883599 124.616401 82.1164012 156.383599 82.1164012 156.383599 114.441799 156.941799 114.441799 156.941799 113.883599 156.941799 114.441799 157.5 114.441799 157.5 81 123.5 81 123.5 115 157.5 115 157.5 114.441799 156.941799 114.441799"></polyline>
                    <polyline id="Fill-33" fill="#EEEFED" points="132.5 102.003175 143.935665 111 165.5 90.1815212 162.440791 87 143.640324 105.151567 135.223092 98.5290112 132.5 102.003175"></polyline>
                    <polyline id="Fill-34" fill="#00AAFF" points="130.5 99.0031749 141.935665 108 163.5 87.1815212 160.440791 84 141.640324 102.151567 133.223092 95.5290112 130.5 99.0031749"></polyline>
                    <path d="M279.24186,91 L172.757031,91 C172.062502,91 171.5,90.3280423 171.5,89.5 C171.5,88.6719577 172.062502,88 172.757031,88 L279.24186,88 C279.937498,88 280.5,88.6719577 280.5,89.5 C280.5,90.3280423 279.937498,91 279.24186,91" id="Fill-35" fill="#AECFE3"></path>
                    <path d="M279.24186,97 L172.757031,97 C172.062502,97 171.5,96.3277459 171.5,95.4993383 C171.5,94.6709307 172.062502,94 172.757031,94 L279.24186,94 C279.937498,94 280.5,94.6709307 280.5,95.4993383 C280.5,96.3277459 279.937498,97 279.24186,97" id="Fill-36" fill="#AECFE3"></path>
                    <path d="M279.24186,102 L172.757031,102 C172.062502,102 171.5,101.329069 171.5,100.500662 C171.5,99.6709307 172.062502,99 172.757031,99 L279.24186,99 C279.937498,99 280.5,99.6709307 280.5,100.500662 C280.5,101.329069 279.937498,102 279.24186,102" id="Fill-37" fill="#AECFE3"></path>
                    <path d="M279.24186,108 L172.757031,108 C172.062502,108 171.5,107.329069 171.5,106.500662 C171.5,105.672254 172.062502,105 172.757031,105 L279.24186,105 C279.937498,105 280.5,105.672254 280.5,106.500662 C280.5,107.329069 279.937498,108 279.24186,108" id="Fill-38" fill="#AECFE3"></path>
                    <polyline id="Fill-39" fill="#AECFE3" points="156.941799 167.441781 156.941799 166.883562 124.616401 166.883562 124.616401 135.116438 156.383599 135.116438 156.383599 167.441781 156.941799 167.441781 156.941799 166.883562 156.941799 167.441781 157.5 167.441781 157.5 134 123.5 134 123.5 168 157.5 168 157.5 167.441781 156.941799 167.441781"></polyline>
                    <polyline id="Fill-40" fill="#EEEFED" points="132.5 154.003865 143.935665 163 165.5 142.180563 162.440791 139 143.640324 157.151298 135.223092 150.528437 132.5 154.003865"></polyline>
                    <polyline id="Fill-41" fill="#00AAFF" points="130.5 152.003865 141.935665 161 163.5 140.180563 160.440791 137 141.640324 155.151298 133.223092 148.528437 130.5 152.003865"></polyline>
                    <path d="M279.24186,144 L172.757031,144 C172.062502,144 171.5,143.329069 171.5,142.500662 C171.5,141.672254 172.062502,141 172.757031,141 L279.24186,141 C279.937498,141 280.5,141.672254 280.5,142.500662 C280.5,143.329069 279.937498,144 279.24186,144" id="Fill-42" fill="#AECFE3"></path>
                    <path d="M279.24186,149 L172.757031,149 C172.062502,149 171.5,148.328042 171.5,147.5 C171.5,146.671958 172.062502,146 172.757031,146 L279.24186,146 C279.937498,146 280.5,146.671958 280.5,147.5 C280.5,148.328042 279.937498,149 279.24186,149" id="Fill-43" fill="#AECFE3"></path>
                    <path d="M279.24186,155 L172.757031,155 C172.062502,155 171.5,154.328042 171.5,153.5 C171.5,152.671958 172.062502,152 172.757031,152 L279.24186,152 C279.937498,152 280.5,152.671958 280.5,153.5 C280.5,154.328042 279.937498,155 279.24186,155" id="Fill-44" fill="#AECFE3"></path>
                    <path d="M279.24186,161 L172.757031,161 C172.062502,161 171.5,160.327746 171.5,159.499338 C171.5,158.670931 172.062502,158 172.757031,158 L279.24186,158 C279.937498,158 280.5,158.670931 280.5,159.499338 C280.5,160.327746 279.937498,161 279.24186,161" id="Fill-45" fill="#AECFE3"></path>
                    <polyline id="Fill-46" fill="#AECFE3" points="156.941799 219.441799 156.941799 218.883599 124.616401 218.883599 124.616401 187.116401 156.383599 187.116401 156.383599 219.441799 156.941799 219.441799 156.941799 218.883599 156.941799 219.441799 157.5 219.441799 157.5 186 123.5 186 123.5 220 157.5 220 157.5 219.441799 156.941799 219.441799"></polyline>
                    <polyline id="Fill-47" fill="#EEEFED" points="132.5 207.003175 143.935665 216 165.5 195.181521 162.440791 192 143.640324 210.151567 135.223092 203.529011 132.5 207.003175"></polyline>
                    <polyline id="Fill-48" fill="#00AAFF" points="130.5 205.003175 141.935665 214 163.5 193.181521 160.440791 190 141.640324 208.151567 133.223092 201.529011 130.5 205.003175"></polyline>
                    <path d="M279.24186,197 L172.757031,197 C172.062502,197 171.5,196.328042 171.5,195.5 C171.5,194.671958 172.062502,194 172.757031,194 L279.24186,194 C279.937498,194 280.5,194.671958 280.5,195.5 C280.5,196.328042 279.937498,197 279.24186,197" id="Fill-49" fill="#AECFE3"></path>
                    <path d="M279.24186,202 L172.757031,202 C172.062502,202 171.5,201.327746 171.5,200.499338 C171.5,199.670931 172.062502,199 172.757031,199 L279.24186,199 C279.937498,199 280.5,199.670931 280.5,200.499338 C280.5,201.327746 279.937498,202 279.24186,202" id="Fill-50" fill="#AECFE3"></path>
                    <path d="M279.24186,208 L172.757031,208 C172.062502,208 171.5,207.329069 171.5,206.500662 C171.5,205.670931 172.062502,205 172.757031,205 L279.24186,205 C279.937498,205 280.5,205.670931 280.5,206.500662 C280.5,207.329069 279.937498,208 279.24186,208" id="Fill-51" fill="#AECFE3"></path>
                    <path d="M279.24186,213 L172.757031,213 C172.062502,213 171.5,212.329069 171.5,211.500662 C171.5,210.672254 172.062502,210 172.757031,210 L279.24186,210 C279.937498,210 280.5,210.672254 280.5,211.500662 C280.5,212.329069 279.937498,213 279.24186,213" id="Fill-52" fill="#AECFE3"></path>
                    <polyline id="Fill-53" fill="#AECFE3" points="156.941799 272.441781 156.941799 271.883562 124.616401 271.883562 124.616401 240.116438 156.383599 240.116438 156.383599 272.441781 156.941799 272.441781 156.941799 271.883562 156.941799 272.441781 157.5 272.441781 157.5 239 123.5 239 123.5 273 157.5 273 157.5 272.441781 156.941799 272.441781"></polyline>
                    <polyline id="Fill-54" fill="#EEEFED" points="132.5 259.003865 143.935665 268 165.5 247.180563 162.440791 244 143.640324 262.151298 135.223092 255.528437 132.5 259.003865"></polyline>
                    <polyline id="Fill-55" fill="#00AAFF" points="130.5 257.003865 141.935665 266 163.5 245.180563 160.440791 242 141.640324 260.151298 133.223092 253.528437 130.5 257.003865"></polyline>
                    <path d="M279.24186,249 L172.757031,249 C172.062502,249 171.5,248.329069 171.5,247.500662 C171.5,246.672254 172.062502,246 172.757031,246 L279.24186,246 C279.937498,246 280.5,246.672254 280.5,247.500662 C280.5,248.329069 279.937498,249 279.24186,249" id="Fill-56" fill="#AECFE3"></path>
                    <path d="M279.24186,255 L172.757031,255 C172.062502,255 171.5,254.328042 171.5,253.5 C171.5,252.671958 172.062502,252 172.757031,252 L279.24186,252 C279.937498,252 280.5,252.671958 280.5,253.5 C280.5,254.328042 279.937498,255 279.24186,255" id="Fill-57" fill="#AECFE3"></path>
                    <path d="M279.24186,260 L172.757031,260 C172.062502,260 171.5,259.328042 171.5,258.5 C171.5,257.671958 172.062502,257 172.757031,257 L279.24186,257 C279.937498,257 280.5,257.671958 280.5,258.5 C280.5,259.328042 279.937498,260 279.24186,260" id="Fill-58" fill="#AECFE3"></path>
                    <path d="M279.24186,266 L172.757031,266 C172.062502,266 171.5,265.327746 171.5,264.499338 C171.5,263.670931 172.062502,263 172.757031,263 L279.24186,263 C279.937498,263 280.5,263.670931 280.5,264.499338 C280.5,265.327746 279.937498,266 279.24186,266" id="Fill-59" fill="#AECFE3"></path>
                    <path d="M0.932708667,328.8895 L538.067291,328.8895 C538.306945,328.8895 538.5,328.7155 538.5,328.4995 C538.5,328.2845 538.306945,328.1105 538.067291,328.1105 L0.932708667,328.1105 C0.694164146,328.1105 0.5,328.2845 0.5,328.4995 C0.5,328.7155 0.694164146,328.8895 0.932708667,328.8895" id="Fill-60" fill="#1A1C3A"></path>
                    <polygon id="Fill-61" fill="#E46D6D" points="339.5 324 344.5 324 344.5 318 339.5 318"></polygon>
                    <polyline id="Fill-62" fill="#1A1C3A" points="340.350095 323 342.939414 323.806841 345.342234 323 347.5 328 327.5 328 335.018569 325.500548 340.350095 323"></polyline>
                    <polyline id="Fill-63" fill="#E46D6D" points="393.397907 324 398.5 324 396.602093 318 391.5 318 393.397907 324"></polyline>
                    <polyline id="Fill-64" fill="#1A1C3A" points="397.649905 323 395.060586 323.806841 392.657766 323 390.5 328 410.5 328 402.981431 325.500548 397.649905 323"></polyline>
                    <path d="M328.188177,106.836219 C327.48112,107.355043 321.058115,111 321.058115,111 L316.5,105.392965 L317.856909,99 L327.666465,99.5869744 L329.383767,104.359714 C329.791068,105.491893 329.064562,106.193185 328.188177,106.836219" id="Fill-65" fill="#E88479"></path>
                    <path d="M328.066806,99.5250291 L329.5,103.849132 L325.119566,105.65946 C324.285566,106.031071 323.352993,106.100393 322.474691,105.858334 C320.543091,105.32535 319.288216,103.415017 319.529666,101.377404 L319.813204,99 L328.066806,99.5250291" id="Fill-66" fill="#E36666"></path>
                    <path d="M325.5,105.41467 L329.241693,106 L331.290949,102.232814 C331.690325,101.552661 331.500458,100.653593 330.866476,100.225131 C330.232494,99.7954991 329.39446,99.999194 328.995084,100.679348 L325.5,105.41467" id="Fill-67" fill="#E5DBD0"></path>
                    <polyline id="Fill-68" fill="#00AAFF" points="319.5 121 311.398416 122.977295 308.5 145.627113 317.984893 146 319.5 121"></polyline>
                    <path d="M426.288619,139.899363 L412.5,138.156912 L415.655638,113 L429.444257,114.742451 C436.365905,115.617036 441.271203,121.957496 440.39972,128.903782 L440.39972,128.904902 C439.528237,135.851189 433.210267,140.773948 426.288619,139.899363" id="Fill-69" fill="#E88479"></path>
                    <path d="M431.5,139 C435.332808,137.800147 438.471735,134.808036 439.843596,130.870622 C438.471735,134.808036 435.332808,137.800147 431.5,139" id="Fill-70" fill="#CCCEC9"></path>
                    <path d="M427.293568,140 C426.785061,140 426.268997,139.966411 425.751853,139.899232 L422.5,139.474888 L423.196363,133.745681 L426.447136,134.170026 C426.96536,134.237204 427.479265,134.269674 427.988851,134.269674 C433.124663,134.269674 437.680711,130.914107 439.432955,126 C439.524724,126.913628 439.524724,127.850768 439.41784,128.800224 C439.41676,128.805822 439.41676,128.81142 439.415681,128.817019 C439.415681,128.821497 439.414601,128.827095 439.414601,128.831574 C439.412442,128.841651 439.411362,128.852847 439.410283,128.862924 C439.410283,128.865163 439.410283,128.867402 439.409203,128.869642 C439.408123,128.881958 439.407044,128.893154 439.404884,128.90547 C439.292603,129.835893 439.085313,130.730486 438.793812,131.578055 C437.489617,135.388196 434.505513,138.283589 430.861753,139.444658 C429.72598,139.806302 428.526508,140 427.293568,140" id="Fill-71" fill="#E77B6D"></path>
                    <polyline id="Fill-72" fill="#F6BC5F" points="411.353719 138 265.5 119.103108 268.647394 94 414.5 112.896892 411.353719 138"></polyline>
                    <polyline id="Fill-73" fill="#FFEFD2" points="239.5 103.029602 265.366751 119 268.5 94 239.5 103.029602"></polyline>
                    <polyline id="Fill-74" fill="#ECAC51" points="265.654 119 265.654 119 266.346 113 265.654 119"></polyline>
                    <polyline id="Fill-75" fill="#DFCFB6" points="265.723022 119 239.5 103 266.5 112.873598 265.723022 119"></polyline>
                    <polyline id="Fill-76" fill="#1A1C3A" points="248.5 100 239.5 102.528621 247.528212 107 248.5 100"></polyline>
                    <polyline id="Fill-77" fill="#BDE2E6" points="422.398026 139 410.5 137.509672 413.600877 113 425.5 114.490328 422.398026 139"></polyline>
                    <polyline id="Fill-78" fill="#BDE2E6" points="422.876401 140 418.5 139.47393 422.122419 112 426.5 112.52607 422.876401 140"></polyline>
                    <polyline id="Fill-79" fill="#ECAC51" points="410.734512 137 265.5 118.136922 266.266596 112 411.5 130.864195 410.734512 137"></polyline>
                    <polyline id="Fill-80" fill="#A5C5C8" points="418.705747 138 410.5 136.995946 411.294253 131 419.5 132.002962 418.705747 138"></polyline>
                    <path d="M412.849177,119 L413.610795,112.770977 L332.021576,101.935617 C332.021576,101.932203 332.021576,101.92879 332.021576,101.925376 L421.5,113.792837 L415.607138,113.029287 L413.610795,112.770977 L412.849177,119 M329.174078,101.557825 L328.594851,101.481584 L328.591535,101.471342 L329.180711,101.548721 L329.174078,101.557825 M318.458378,100.135414 L317.5,100.007966 L317.5,100 L318.459483,100.127448 L318.458378,100.135414" id="Fill-81" fill="#E4E6E3"></path>
                    <polyline id="Fill-82" fill="#4E8EBF" points="317.5 100 304.5 98.0064226 304.5 98 317.5 99.9910083 317.5 100"></polyline>
                    <path d="M304.5,99 L280.798506,95.7076997 C280.798506,95.7076997 280.798506,95.7064929 280.798506,95.705286 L304.5,98.9939657 L304.5,99 M271.432005,94.4067101 L271.428643,94.4067101 L268.5,94 L271.432005,94.4067101" id="Fill-83" fill="#E4E6E3"></path>
                    <path d="M280.5,95 L271.5,94 L271.50323,94 L280.5,94.9981447 C280.5,94.9990724 280.5,95 280.5,95" id="Fill-84" fill="#4E8EBF"></path>
                    <polyline id="Fill-85" fill="#E78276" points="319.773719 100.131933 318.5 100.005882 318.501091 100 319.774809 100.12605 319.773719 100.131933"></polyline>
                    <polyline id="Fill-86" fill="#E26464" points="328.5 101 319.5 100.006737 319.501126 100 328.496622 100.991338 328.5 101"></polyline>
                    <path d="M332.5,101.67 L329.5,101.338 L329.506988,101.33 L332.5,101.661 C332.5,101.664 332.5,101.667 332.5,101.67" id="Fill-87" fill="#E46B6A"></path>
                    <polyline id="Fill-88" fill="#E78276" points="421.5 113.836 415.5 113.164 421.494378 113.835 421.5 113.836"></polyline>
                    <polyline id="Fill-89" fill="#F5B75B" points="412.73671 119 267.5 100.135805 268.266614 94 271.161355 94.3763681 280.422756 95.5802993 317.178109 100.360286 318.138592 100.48537 319.432529 100.652893 328.288466 101.80545 328.297329 101.806567 328.877828 101.881394 331.731581 102.252178 413.5 112.886531 412.73671 119"></polyline>
                    <polyline id="Fill-90" fill="#B5DCDF" points="420.704699 120 412.5 118.993743 413.291853 113 415.36745 113.248553 421.5 113.984358 420.704699 120"></polyline>
                    <polyline id="Fill-91" fill="#D4D5D0" points="418.9395 138.981 419.0605 138.019 418.9395 138.981"></polyline>
                    <polyline id="Fill-92" fill="#AACDCF" points="418.5915 138 418.5915 138 419.4085 131 418.5915 138"></polyline>
                    <polyline id="Fill-93" fill="#AACDCF" points="422.489888 140 418.5 139.469452 419.509036 131 423.5 131.530548 422.489888 140"></polyline>
                    <polyline id="Fill-94" fill="#97B2B6" points="418.8245 135 419.1755 132 418.8245 135"></polyline>
                    <path d="M371.5,199 L373.634901,193.592543 L380.855379,193.017161 C382.182604,192.872752 383.361718,193.655722 383.489002,194.763613 C383.615129,195.872633 382.641984,196.88914 381.313601,197.033549 L371.5,199" id="Fill-95" fill="#E5DBD0"></path>
                    <path d="M368.266752,193.601608 L371.804442,199 L378.5,197.571716 L370.995545,186 L369.551792,186.995368 C367.439248,188.450922 366.864593,191.408618 368.266752,193.601608" id="Fill-96" fill="#E5DBD0"></path>
                    <polyline id="Fill-97" fill="#00AAFF" points="374.355626 192 397.5 167.826691 385.304049 165 371.5 186.363259 374.355626 192"></polyline>
                    <path d="M388.015502,166.821127 C389.296513,169.57385 392.567895,170.766812 395.320854,169.484754 C398.073813,168.202696 399.266878,164.931595 397.98471,162.178873 C396.702541,159.42615 393.43116,158.233188 390.6782,159.515246 C387.925241,160.797304 386.733333,164.068405 388.015502,166.821127" id="Fill-98" fill="#00AAFF"></path>
                    <path d="M390.283597,169 L397.5,161.308891 L372.306602,131.437332 C370.148194,128.503748 365.893145,128.163444 363.295644,130.715167 C360.69702,133.26689 360.951942,142.294509 363.845914,144.504805 L390.283597,169" id="Fill-99" fill="#00AAFF"></path>
                    <polyline id="Fill-100" fill="#E5DBD0" points="348.5 134.13805 359.079916 135 360.5 118.863056 349.920084 118 348.5 134.13805"></polyline>
                    <path d="M312.700038,142.010252 C310.219342,142.176499 308.344966,144.321407 308.510128,146.800983 C308.676377,149.280558 310.821316,151.155995 313.300925,150.989748 C315.780534,150.823501 317.655997,148.678593 317.489748,146.199017 C317.323499,143.719442 315.178561,141.844005 312.700038,142.010252" id="Fill-101" fill="#00AAFF"></path>
                    <path d="M309.5,142.634912 L314.208536,151 L342.993029,144.535966 C346.520501,143.637062 348.433555,135.062117 347.044795,131.6988 C345.654912,128.335482 341.606514,126.982075 338.473103,128.833751 L309.5,142.634912" id="Fill-102" fill="#00AAFF"></path>
                    <path d="M368.215869,189.545081 L371.345868,135.165094 C372.080425,132.263001 370.110018,129.370934 367.124687,128.968763 L341.476864,128.046332 C338.491534,127.644161 335.816849,129.910133 335.747318,132.902464 L330.5,199 L368.215869,189.545081" id="Fill-103" fill="#00AAFF"></path>
                    <polyline id="Fill-104" fill="#18469D" points="344.617799 190 350.5 208.18986 347.883581 321 337.398937 321 331.5 199.401214 332.304451 190 344.617799 190"></polyline>
                    <polyline id="Fill-105" fill="#2557B7" points="344.5 190 350.194159 212.337161 354.293201 212.337161 390.976472 321 399.5 321 373.673711 204.743745 368.713461 190 344.5 190"></polyline>
                    <path d="M318.723165,98 L318.552553,99.0521325 C318.194382,101.2492 319.705029,103.317686 321.925239,103.671005 L323.660732,103.948294 C325.880942,104.301614 327.971217,102.806714 328.329388,100.609646 L328.5,99.5575139 L318.723165,98" id="Fill-106" fill="#E5DBD0"></path>
                    <polyline id="Fill-107" fill="#2557B7" points="348.324085 129 355.5 129.27663 352.579731 133.798249 352.579731 169.807892 348.372274 179 344.5 167.922588 349.891842 133.503844 348.324085 129"></polyline>
                    <path d="M343.285184,103.038431 C342.708847,102.374544 342.181629,101.667648 341.716629,100.914435 C340.788813,99.4598394 340.153531,97.7350576 340.233214,95.9849114 C340.324904,94.2722604 341.078073,92.4768993 342.446875,91.3994621 C342.967544,90.9792947 343.573353,90.6892579 344.217367,90.521632 C343.900818,90.6694074 343.590818,90.8469585 343.303741,91.0939861 C341.98515,92.2011989 341.47758,93.9932516 341.3717,95.5768748 C341.154481,98.9194666 342.407579,102.096638 344.748951,104.25041 L344.726029,104.379438 C344.214092,103.962579 343.723987,103.523663 343.285184,103.038431 Z M368.432283,105.334464 C368.188868,102.892861 367.292706,100.520735 365.771087,98.6625138 C364.364081,96.9443488 362.456054,95.6606877 360.359189,94.9703339 C359.33095,94.630671 358.357289,94.4476059 357.301761,94.5589889 C355.995177,94.6968391 354.65803,94.8435117 353.413665,94.2832884 C351.659546,93.4991965 350.40099,91.9651994 348.817153,90.9704723 C348.453667,90.7421923 348.048703,90.5547161 347.62409,90.4113518 L347.627365,90.4058378 C345.950746,89.6923252 343.766557,89.9294275 342.189269,91.0399488 C341.397897,91.5770132 340.786629,92.3533856 340.346735,93.195926 C339.915574,94.0373637 339.60994,94.9681283 339.529165,95.9352853 C339.367616,97.8618798 339.88501,99.8105303 340.887052,101.447088 C341.814868,102.914917 343.089797,104.211812 344.603775,105.054352 C344.541557,105.450258 344.492437,105.850575 344.472789,106.259714 C344.149691,112.962543 349.26578,118.659616 355.900212,118.986045 C360.545844,119.214325 365.008095,116.624947 367.156262,112.45746 C368.26091,110.314716 368.67679,107.7893 368.432283,105.334464 Z" id="Fill-108" fill="#075697"></path>
                    <path d="M362.535552,113.084167 C362.304737,114.445348 363.222051,115.735138 364.583151,115.964778 C365.945441,116.194418 367.235154,115.277049 367.46478,113.915867 C367.694407,112.554686 366.777092,111.264896 365.415992,111.035256 C364.054892,110.805616 362.765179,111.721796 362.535552,113.084167" id="Fill-109" fill="#E5DBD0"></path>
                    <path d="M352.495626,100.001054 C347.018186,99.9200787 344.899045,104.53229 344.899045,104.53229 L344.594868,106.155167 L344.352424,107.595851 L344.354668,107.794915 L344.326608,107.748804 L343.649785,111.768322 C342.715926,117.308373 346.236977,122.806813 351.751457,123.828 C357.340017,124.863807 362.672664,121.111957 363.615502,115.517922 L364.444975,110.594182 L364.444975,110.58406 C364.444975,110.58406 366.00627,100.935642 352.495626,100.001054" id="Fill-110" fill="#E5DBD0"></path>
                    <path d="M354.072134,112.996826 C353.486174,112.58279 349.589981,111.769419 349.118808,112.062184 C348.612653,112.378223 348.404943,113.124221 348.540501,113.755074 C348.674966,114.387152 349.090385,114.904083 349.56921,115.26912 C350.655859,116.100866 352.138249,116.234386 353.329845,115.609658 C353.782433,115.372017 354.209878,115.010654 354.405562,114.494948 C354.601246,113.979241 354.494112,113.29694 354.072134,112.996826" id="Fill-111" fill="#FFFFFE"></path>
                    <path d="M355.5,100.534975 C356.781399,100.746438 358.068098,101.121613 359.273185,101.630942 C360.178325,102.012939 361.04849,102.490434 361.784049,103.179393 C364.177266,105.423623 362.0469,110.236098 361.222311,112.744087 C361.020933,113.358011 360.785639,114.08676 361.144939,114.610869 C361.533916,115.178179 362.396661,115.074722 362.900106,114.624511 C363.403551,114.173164 363.666402,113.494438 364.004505,112.891884 C364.341547,112.288193 364.844992,111.698144 365.5,111.651532 L365.118442,100.260984 C365.116322,100.176854 358.449656,100.019962 357.939852,100.001772 C356.906465,99.9642543 355.5,100.534975 355.5,100.534975" id="Fill-112" fill="#075697"></path>
                </g>
            </g>
        </g>
    </g>
</svg>