<?xml version="1.0" encoding="UTF-8"?>
<svg width="500px" height="374px" viewBox="0 0 500 374" version="1.1" xmlns="http://www.w3.org/2000/svg" xmlns:xlink="http://www.w3.org/1999/xlink">
    <!-- Generator: Sketch 52.6 (67491) - http://www.bohemiancoding.com/sketch -->
    <title>Asset6</title>
    <desc>Created with Sketch.</desc>
    <defs>
        <polygon id="path-1" points="0.06 0.581 500 0.581 500 1.581 0.06 1.581"></polygon>
        <linearGradient x1="54.0880868%" y1="22.4203518%" x2="-12.2888297%" y2="278.551831%" id="linearGradient-3">
            <stop stop-color="#FDC000" offset="0%"></stop>
            <stop stop-color="#FEA100" offset="100%"></stop>
        </linearGradient>
    </defs>
    <g id="Assets" stroke="none" stroke-width="1" fill="none" fill-rule="evenodd">
        <g id="сертификация" transform="translate(-1100.000000, -495.000000)">
            <g id="About">
                <g id="Asset6" transform="translate(1100.000000, 495.000000)">
                    <g id="sertifications" transform="translate(250.000000, 187.000000) scale(-1, 1) translate(-250.000000, -187.000000) ">
                        <g id="Group-3" transform="translate(0.000000, 327.000000)">
                            <mask id="mask-2" fill="white">
                                <use xlink:href="#path-1"></use>
                            </mask>
                            <g id="Clip-2"></g>
                            <polygon id="Fill-1" fill="#C3D7E6" mask="url(#mask-2)" points="0.06 1.206 500 1.206 500 0.956 0.06 0.956"></polygon>
                        </g>
                        <polygon id="Fill-4" fill="#C3D7E6" points="79.459 336.224 113.863 336.224 113.863 335.974 79.459 335.974"></polygon>
                        <polygon id="Fill-5" fill="#C3D7E6" points="120.446 336.224 130.725 336.224 130.725 335.974 120.446 335.974"></polygon>
                        <polygon id="Fill-6" fill="#C3D7E6" points="162.085 331.313 181.444 331.313 181.444 331.063 162.085 331.063"></polygon>
                        <polygon id="Fill-7" fill="#C3D7E6" points="387.422 341.773 430.615 341.773 430.615 341.523 387.422 341.523"></polygon>
                        <polygon id="Fill-8" fill="#C3D7E6" points="439.519 341.773 445.852 341.773 445.852 341.523 439.519 341.523"></polygon>
                        <polygon id="Fill-9" fill="#C3D7E6" points="304.667 333.002 398.343 333.002 398.343 332.752 304.667 332.752"></polygon>
                        <path d="M43.915,0.76 C40.905,0.76 38.457,3.208 38.457,6.218 L38.457,277.649 C38.457,280.659 40.905,283.107 43.915,283.107 L237.014,283.107 C240.022,283.107 242.471,280.659 242.471,277.649 L242.471,6.218 C242.471,3.208 240.022,0.76 237.014,0.76 L43.915,0.76 Z M237.014,283.357 L43.915,283.357 C40.768,283.357 38.207,280.797 38.207,277.649 L38.207,6.218 C38.207,3.071 40.768,0.51 43.915,0.51 L237.014,0.51 C240.16,0.51 242.721,3.071 242.721,6.218 L242.721,277.649 C242.721,280.797 240.16,283.357 237.014,283.357 Z" id="Fill-10" fill="#C3D7E6"></path>
                        <polygon id="Fill-12" fill="#EFF5F8" points="348.947 327.956 419.014 327.956 419.014 191.669 348.947 191.669"></polygon>
                        <polygon id="Fill-13" fill="#E0EDF3" points="413.235 327.956 419.014 327.956 419.014 191.669 413.235 191.669"></polygon>
                        <polygon id="Fill-14" fill="#C3D7E6" points="193.013 225.002 354.347 225.002 354.347 195.557 193.013 195.557"></polygon>
                        <path d="M260.291,328.057 L191.125,328.057 C190.572,328.057 190.125,327.61 190.125,327.057 C190.125,326.505 190.572,326.057 191.125,326.057 L260.291,326.057 C270.29,326.057 271.624,323.142 271.624,311.557 L271.624,165.557 C271.624,165.005 272.071,164.557 272.624,164.557 C273.177,164.557 273.624,165.005 273.624,165.557 L273.624,311.557 C273.624,323.937 271.697,328.057 260.291,328.057" id="Fill-15" fill="#C3D7E6"></path>
                        <polygon id="Fill-16" fill="#E0EDF3" points="200.791 201.89 419.014 201.89 419.014 191.669 200.791 191.669"></polygon>
                        <polygon id="Fill-17" fill="#EFF5F8" points="130.725 327.956 200.791 327.956 200.791 191.669 130.725 191.669"></polygon>
                        <polygon id="Fill-18" fill="#E0EDF3" points="195.013 327.956 200.791 327.956 200.791 191.669 195.013 191.669"></polygon>
                        <polygon id="Fill-19" fill="#E0EDF3" points="91.046 327.956 151.176 327.956 151.176 85.254 91.046 85.254"></polygon>
                        <polygon id="Fill-20" fill="#EFF5F8" points="94.347 145.869 147.875 145.869 147.875 92.341 94.347 92.341"></polygon>
                        <path d="M109.263,91.632 L132.958,91.632 C132.958,94.697 130.474,97.182 127.408,97.182 L114.813,97.182 C111.748,97.182 109.263,94.697 109.263,91.632" id="Fill-21" fill="#C3D7E6"></path>
                        <polygon id="Fill-22" fill="#EFF5F8" points="94.347 204.203 147.875 204.203 147.875 150.674 94.347 150.674"></polygon>
                        <polygon id="Fill-23" fill="#EFF5F8" points="94.347 262.536 147.875 262.536 147.875 209.008 94.347 209.008"></polygon>
                        <polygon id="Fill-24" fill="#EFF5F8" points="94.347 320.869 147.875 320.869 147.875 267.341 94.347 267.341"></polygon>
                        <path d="M109.263,149.965 L132.958,149.965 C132.958,153.031 130.474,155.515 127.408,155.515 L114.813,155.515 C111.748,155.515 109.263,153.031 109.263,149.965" id="Fill-25" fill="#C3D7E6"></path>
                        <path d="M109.263,208.299 L132.958,208.299 C132.958,211.364 130.474,213.848 127.408,213.848 L114.813,213.848 C111.748,213.848 109.263,211.364 109.263,208.299" id="Fill-26" fill="#C3D7E6"></path>
                        <path d="M109.263,266.632 L132.958,266.632 C132.958,269.697 130.474,272.182 127.408,272.182 L114.813,272.182 C111.748,272.182 109.263,269.697 109.263,266.632" id="Fill-27" fill="#C3D7E6"></path>
                        <polygon id="Fill-28" fill="#EFF5F8" points="61.013 327.956 91.046 327.956 91.046 85.254 61.013 85.254"></polygon>
                        <polyline id="Fill-29" fill="#D8E7EF" points="264.394 191.669 249.276 191.669 252.954 162.247 268.071 162.247 264.394 191.669"></polyline>
                        <polyline id="Fill-30" fill="#EFF5F8" points="267.735 191.669 252.619 191.669 256.297 162.247 271.413 162.247 267.735 191.669"></polyline>
                        <polyline id="Fill-31" fill="#D8E7EF" points="300.162 191.669 289.234 191.669 287.136 188.335 298.064 188.335 300.162 191.669"></polyline>
                        <polyline id="Fill-32" fill="#EFF5F8" points="358.72 191.669 292.574 191.669 290.477 188.335 349.804 188.335 358.72 191.669"></polyline>
                        <path d="M216.458,183.224 L221.235,183.224 C225.899,183.224 229.68,187.005 229.68,191.669 L208.013,191.669 C208.013,187.005 211.794,183.224 216.458,183.224" id="Fill-33" fill="#D8E7EF"></path>
                        <polyline id="Fill-34" fill="#D8E7EF" points="269.574 176.958 254.458 176.958 256.297 162.247 271.413 162.247 269.574 176.958"></polyline>
                        <path d="M214.029,173.436 L320.959,173.436 C321.851,173.436 322.54,172.655 322.43,171.77 L314.189,105.845 C314.097,105.102 313.466,104.546 312.719,104.546 L205.788,104.546 C204.896,104.546 204.207,105.327 204.317,106.212 L212.558,172.137 C212.65,172.879 213.281,173.436 214.029,173.436" id="Fill-35" fill="#D8E7EF"></path>
                        <path d="M215.618,173.436 L322.548,173.436 C323.439,173.436 324.129,172.655 324.019,171.77 L315.778,105.845 C315.686,105.102 315.055,104.546 314.308,104.546 L207.377,104.546 C206.485,104.546 205.795,105.327 205.906,106.212 L214.146,172.137 C214.239,172.879 214.87,173.436 215.618,173.436" id="Fill-36" fill="#EFF5F8"></path>
                        <path d="M259.323,188.911 L279.041,188.911 C280.396,188.911 281.493,190.009 281.493,191.363 L281.493,191.669 L256.871,191.669 L256.871,191.363 C256.871,190.009 257.97,188.911 259.323,188.911" id="Fill-38" fill="#EFF5F8"></path>
                        <path d="M245.471,188.911 L257.27,188.911 C258.623,188.911 259.721,190.009 259.721,191.363 L259.721,191.669 L243.019,191.669 L243.019,191.363 C243.019,190.009 244.116,188.911 245.471,188.911" id="Fill-39" fill="#D8E7EF"></path>
                        <path d="M116.458,57.844 C116.463,57.83 116.46,57.815 116.464,57.8 C116.695,57.029 116.908,56.248 117.101,55.463 C118.265,56.971 119.396,57.354 120.239,57.354 C120.333,57.354 120.422,57.349 120.509,57.342 C122.178,57.18 123.78,55.561 124.792,53.012 C124.83,52.915 124.825,52.808 124.778,52.716 C124.731,52.624 124.648,52.557 124.548,52.531 C121.297,51.682 118.717,52.946 117.484,53.756 C117.634,53.014 117.763,52.27 117.868,51.527 C118.139,51.575 118.408,51.607 118.667,51.607 C121.394,51.607 123.394,49.178 123.489,49.06 C123.561,48.971 123.586,48.853 123.557,48.743 C123.528,48.632 123.448,48.542 123.342,48.5 C121.718,47.856 120.342,47.8 119.252,48.335 C118.579,48.665 118.035,49.222 117.641,49.963 C117.056,48.207 115.333,44.85 110.547,43.904 C110.442,43.883 110.339,43.908 110.257,43.972 C110.175,44.036 110.125,44.132 110.119,44.236 C109.979,46.711 110.057,49.736 111.914,51.179 C112.619,51.726 113.503,51.999 114.586,51.999 C115.335,51.999 116.185,51.861 117.13,51.599 C116.87,53.374 116.476,55.149 115.984,56.887 C115.017,55.607 112.496,52.741 108.669,51.752 C108.477,51.7 108.281,51.817 108.231,52.008 C107.67,54.137 107.958,55.866 109.063,57.008 C109.974,57.949 111.398,58.43 113.199,58.43 C113.938,58.43 114.742,58.344 115.598,58.181 C115.143,59.639 114.632,61.062 114.087,62.43 C112.976,61.447 109.707,58.951 106.153,59.991 C106.056,60.019 105.974,60.088 105.931,60.18 C105.886,60.272 105.883,60.378 105.921,60.472 C106.89,62.83 107.986,64.138 109.369,64.588 C109.73,64.705 110.108,64.764 110.507,64.764 C111.382,64.764 112.361,64.474 113.484,63.892 C112.716,65.698 111.911,67.385 111.137,68.891 C110.299,67.986 108.018,66.122 103.971,66.987 C103.793,67.025 103.672,67.19 103.688,67.371 C103.818,68.839 104.86,70.238 106.28,70.852 C106.674,71.022 107.244,71.192 107.946,71.192 C108.604,71.192 109.379,71.036 110.234,70.6 C109.446,72.05 108.73,73.262 108.169,74.177 L101.367,74.177 C100.291,72.327 99.044,70.032 97.823,67.445 C98.42,67.62 99.007,67.716 99.57,67.716 C100.775,67.716 101.875,67.318 102.759,66.534 C104.121,65.325 104.711,63.418 104.226,61.787 C104.177,61.621 104.017,61.513 103.843,61.533 C99.879,61.951 97.882,64.585 97.118,65.91 C96.316,64.112 95.544,62.201 94.864,60.223 C95.908,60.764 96.85,61.049 97.693,61.049 C98.1,61.049 98.487,60.987 98.853,60.862 C100.812,60.195 101.996,57.788 102.983,55.287 C103.021,55.193 103.016,55.087 102.97,54.995 C102.925,54.904 102.843,54.836 102.745,54.809 C98.713,53.687 95.446,57.541 94.431,58.916 C93.903,57.257 93.448,55.56 93.097,53.851 C94.005,54.016 94.861,54.102 95.65,54.102 C97.701,54.102 99.317,53.549 100.333,52.469 C101.541,51.188 101.833,49.272 101.181,46.928 C101.128,46.738 100.936,46.627 100.74,46.677 C96.621,47.801 93.916,50.931 92.83,52.411 C92.778,52.106 92.726,51.8 92.682,51.494 C92.67,51.412 92.628,51.344 92.577,51.287 C92.144,49.982 91.386,49.036 90.371,48.555 C89.169,47.986 87.661,48.069 85.887,48.8 C85.781,48.843 85.702,48.934 85.675,49.045 C85.647,49.156 85.674,49.274 85.747,49.362 C85.852,49.489 88.053,52.088 91.012,52.088 C91.318,52.088 91.635,52.048 91.956,51.987 C92.087,52.836 92.246,53.686 92.431,54.532 C91.077,53.66 88.205,52.281 84.61,53.27 C84.511,53.298 84.429,53.366 84.383,53.459 C84.338,53.552 84.334,53.659 84.374,53.754 C85.523,56.542 87.304,58.297 89.137,58.449 C89.217,58.455 89.301,58.459 89.389,58.459 C90.319,58.459 91.577,58.032 92.856,56.315 C93.364,58.275 93.988,60.203 94.683,62.059 C92.952,61.242 89.062,59.825 86.279,61.978 C86.125,62.097 86.094,62.318 86.209,62.474 C88.005,64.925 89.669,66.117 91.296,66.117 C91.311,66.117 91.324,66.117 91.338,66.117 C92.689,66.1 93.981,65.264 95.274,63.585 C96.013,65.428 96.805,67.184 97.6,68.812 C95.871,67.736 93.968,67.906 91.726,69.322 C91.625,69.385 91.562,69.495 91.558,69.615 C91.555,69.734 91.611,69.847 91.708,69.917 C91.833,70.008 93.977,71.527 96.229,71.527 C97.037,71.527 97.857,71.329 98.605,70.805 C99.244,72.034 99.869,73.167 100.45,74.177 L97.359,74.177 L97.359,75.935 L98.484,75.935 L99.412,85.254 L113.097,85.254 L114.025,75.935 L115.15,75.935 L115.15,74.177 L109.011,74.177 C109.694,73.047 110.563,71.539 111.493,69.763 C111.52,69.728 111.539,69.691 111.552,69.65 C111.785,69.202 112.022,68.738 112.26,68.258 C113.245,69.591 114.552,70.325 115.961,70.325 C116.113,70.325 116.266,70.316 116.419,70.3 C118.069,70.116 119.577,68.938 120.084,67.434 C120.14,67.27 120.071,67.09 119.919,67.005 C117.034,65.392 114.377,66.12 112.999,66.732 C113.516,65.634 114.03,64.471 114.524,63.261 C114.558,63.214 114.582,63.16 114.589,63.102 C114.727,62.761 114.863,62.417 114.997,62.07 C116.19,63.571 117.374,64.311 118.603,64.311 C118.604,64.311 118.606,64.311 118.607,64.311 C120.104,64.308 121.617,63.205 123.232,60.936 C123.345,60.778 123.312,60.558 123.156,60.441 C120.614,58.528 117.124,59.833 115.545,60.599 C115.866,59.701 116.168,58.786 116.447,57.858 C116.45,57.853 116.455,57.85 116.458,57.844" id="Fill-40" fill="#C3D7E6"></path>
                        <path d="M361.152,251.224 L405.014,251.224 L405.014,259.812 L357.252,259.812 C356.016,259.812 355.014,258.81 355.014,257.574 L355.014,257.363 C355.014,253.972 357.762,251.224 361.152,251.224" id="Fill-47" fill="#C3D7E6"></path>
                        <path d="M401.262,329.081 C400.798,329.081 400.382,328.757 400.283,328.284 L386.275,260.812 L361.88,260.812 L347.873,328.284 C347.76,328.825 347.228,329.168 346.69,329.06 C346.149,328.948 345.802,328.419 345.914,327.878 L360.087,259.609 C360.184,259.145 360.593,258.812 361.066,258.812 L387.089,258.812 C387.563,258.812 387.972,259.145 388.068,259.609 L402.242,327.878 C402.354,328.419 402.007,328.948 401.466,329.06 C401.397,329.074 401.329,329.081 401.262,329.081" id="Fill-48" fill="#C3D7E6"></path>
                        <path d="M443.889,361.796 C443.889,368.05 357.082,373.119 250,373.119 C142.918,373.119 56.111,368.05 56.111,361.796 C56.111,355.542 142.918,350.472 250,350.472 C357.082,350.472 443.889,355.542 443.889,361.796" id="Fill-50" fill="#F3F5F9"></path>
                        <path d="M267.106,352.512 C266.475,352.512 265.909,352.069 265.778,351.427 L246.773,257.863 L213.692,257.863 L194.687,351.427 C194.538,352.16 193.825,352.635 193.087,352.485 C192.353,352.337 191.879,351.62 192.028,350.886 L211.254,256.237 C211.382,255.604 211.938,255.15 212.583,255.15 L247.882,255.15 C248.527,255.15 249.083,255.604 249.211,256.237 L268.436,350.886 C268.586,351.62 268.111,352.337 267.377,352.485 C267.286,352.504 267.195,352.512 267.106,352.512" id="Fill-51" fill="#285596"></path>
                        <path d="M213.99,352.512 C213.358,352.512 212.793,352.069 212.663,351.427 L193.657,257.863 L160.576,257.863 L141.57,351.427 C141.421,352.16 140.709,352.635 139.971,352.485 C139.237,352.337 138.763,351.62 138.912,350.886 L158.138,256.237 C158.266,255.604 158.822,255.15 159.467,255.15 L194.766,255.15 C195.411,255.15 195.966,255.604 196.095,256.236 L215.321,350.886 C215.47,351.62 214.996,352.337 214.262,352.485 C214.17,352.504 214.08,352.512 213.99,352.512" id="Fill-52" fill="#7CAAC6"></path>
                        <path d="M221.428,256.507 L160.631,256.507 C149.024,256.507 139.549,247.222 139.313,235.618 L137.046,143.219 C136.869,134.519 143.873,127.372 152.574,127.372 L190.687,127.372 C198.583,127.372 205.223,133.298 206.118,141.143 L221.428,256.507" id="Fill-53" fill="#AECFE3"></path>
                        <path d="M247.766,244.857 L188.27,244.857 L188.27,256.507 L253.057,256.507 C254.734,256.507 256.094,255.147 256.094,253.47 L256.094,253.184 C256.094,248.586 252.365,244.857 247.766,244.857" id="Fill-54" fill="#285596"></path>
                        <path d="M244.935,164.916 C245.035,165.364 245.213,166.067 245.366,166.655 L245.854,168.534 C246.191,169.793 246.562,171.057 246.947,172.32 C247.695,174.855 248.514,177.387 249.368,179.915 C250.236,182.438 251.109,184.97 252.069,187.474 C252.543,188.729 253.008,189.99 253.506,191.238 L254.089,192.734 C254.177,192.942 254.323,193.186 254.543,193.452 C255.421,194.561 257.417,195.78 259.61,196.652 C261.816,197.585 264.289,198.276 266.813,198.888 C269.348,199.481 271.958,199.971 274.599,200.374 C277.223,200.819 279.945,201.115 282.549,201.4 L282.643,206.775 C276.907,207.338 271.288,207.401 265.48,206.772 C262.581,206.465 259.663,205.94 256.667,205.064 C255.174,204.607 253.662,204.042 252.131,203.277 C250.608,202.495 249.032,201.538 247.568,200.069 C246.841,199.336 246.147,198.476 245.566,197.481 C245.417,197.238 245.289,196.97 245.154,196.714 L244.892,196.178 L244.429,195.226 C243.81,193.959 243.193,192.688 242.62,191.397 C241.459,188.821 240.333,186.222 239.321,183.571 C238.283,180.929 237.341,178.244 236.483,175.512 C236.068,174.141 235.668,172.763 235.296,171.362 L234.755,169.243 C234.589,168.492 234.444,167.857 234.276,166.954 L244.935,164.916" id="Fill-55" fill="#E88274"></path>
                        <path d="M241.539,153.593 C245.825,154.684 248.824,172.325 248.824,172.325 L237.011,180.359 C237.011,180.359 225.685,162.562 228.982,157.849 C232.416,152.941 235.283,152 241.539,153.593" id="Fill-56" fill="#00AAFF"></path>
                        <path d="M240,157.997 L229.73,166.137 C232.16,172.727 237.01,180.357 237.01,180.357 L245.2,174.787 L240,157.997" id="Fill-57" fill="#4385F5"></path>
                        <path d="M281.017,201.33 L288.395,193.852 L289.364,204.385 C289.364,204.385 283.833,208.128 280.006,206.116 L281.017,201.33" id="Fill-58" fill="#E88274"></path>
                        <polyline id="Fill-59" fill="#E88274" points="297.067 192.735 297.402 201.596 289.364 204.385 288.395 193.852 297.067 192.735"></polyline>
                        <polyline id="Fill-60" fill="#E88274" points="284.456 342.852 294.857 342.852 296.458 318.765 286.057 318.765 284.456 342.852"></polyline>
                        <polyline id="Fill-61" fill="#E88274" points="244.209 342.852 254.61 342.852 257.954 318.765 247.553 318.765 244.209 342.852"></polyline>
                        <path d="M255.256,341.648 L243.57,341.648 C243.145,341.648 242.8,341.944 242.74,342.359 L241.409,351.604 C241.27,352.563 242.095,353.47 243.076,353.454 C247.15,353.384 249.113,353.144 254.252,353.144 C257.414,353.144 265.521,353.473 269.888,353.473 C274.157,353.473 274.485,349.156 272.668,348.765 C264.517,347.012 259.74,344.595 256.994,342.288 C256.499,341.872 255.878,341.648 255.256,341.648" id="Fill-62" fill="#151F35"></path>
                        <path d="M295.667,341.648 L283.981,341.648 C283.557,341.648 283.211,341.944 283.151,342.359 L281.82,351.604 C281.682,352.563 282.507,353.47 283.487,353.454 C287.561,353.384 289.524,353.144 294.664,353.144 C297.825,353.144 304.364,353.473 308.73,353.473 C313,353.473 313.329,349.156 311.511,348.765 C303.359,347.012 300.151,344.595 297.405,342.288 C296.91,341.872 296.289,341.648 295.667,341.648" id="Fill-63" fill="#151F35"></path>
                        <path d="M205.094,122.314 C205.094,122.314 213.596,133.412 208.099,155.512 C202.602,177.613 174.217,165.616 172.496,145.699 C170.467,122.219 196.852,138.408 201.531,117.527 L205.094,122.314" id="Fill-64" fill="#151F35"></path>
                        <path d="M233.245,108.28 C236.993,108.516 238.891,127.238 227.919,126.182 C216.948,125.127 233.245,108.28 233.245,108.28" id="Fill-65" fill="#151F35"></path>
                        <path d="M198.924,115.724 C195.238,118.331 193.774,122.107 197.858,125.806 C201.942,129.505 207.757,129.388 209.512,127.866 C211.268,126.345 210.929,118.63 210.929,118.63 L198.924,115.724" id="Fill-66" fill="#D0E0EB"></path>
                        <polyline id="Fill-67" fill="#E16F62" points="296.456 318.772 295.633 331.188 285.227 331.188 286.05 318.772 296.456 318.772"></polyline>
                        <polyline id="Fill-68" fill="#E16F62" points="247.55 318.772 257.956 318.772 256.227 331.188 245.821 331.188 247.55 318.772"></polyline>
                        <path d="M241.539,153.593 C241.539,153.593 246.494,155.338 236.568,216.37 C219.805,216.37 202.481,216.37 194.324,216.37 C195.033,199.177 195.053,188.575 186.835,153.291 C186.835,153.291 195.687,151.365 204.774,150.928 C211.883,150.585 217.707,150.358 223.957,150.928 C232.195,151.68 241.539,153.593 241.539,153.593" id="Fill-69" fill="#00AAFF"></path>
                        <path d="M191.06,172.867 C192.04,177.988 192.77,182.407 193.31,186.387 L195.78,167.278 L191.06,172.867" id="Fill-70" fill="#4385F5"></path>
                        <path d="M206.675,129.329 C207.885,135.501 209.092,146.809 204.774,150.928 C204.774,150.928 206.461,157.189 217.93,157.189 C230.541,157.189 223.957,150.928 223.957,150.928 C217.074,149.285 217.251,144.178 218.45,139.383 L206.675,129.329" id="Fill-71" fill="#E88274"></path>
                        <polyline id="Fill-72" fill="#151F35" points="215.653 158.53 219.495 157.153 218.979 156.099 215.653 158.53"></polyline>
                        <polyline id="Fill-73" fill="#151F35" points="223.1 157.726 219.495 157.153 220.271 155.974 223.1 157.726"></polyline>
                        <path d="M206.17,148.013 L203.564,150.506 C203.396,150.667 203.385,150.931 203.538,151.107 L214.5,163.641 C214.5,163.641 214.934,159.46 218.979,156.099 C209.88,152.655 207.506,149.088 206.701,148.048 C206.571,147.881 206.323,147.866 206.17,148.013" id="Fill-74" fill="#2557B7"></path>
                        <path d="M221.894,149.935 L225.13,150.819 C225.329,150.873 225.482,151.024 225.534,151.223 C225.858,152.478 226.862,157.32 225.035,163.641 C224.566,161.938 223.024,157.863 220.271,155.974 C223.253,153.911 222.056,151.238 221.633,150.23 C221.562,150.06 221.716,149.886 221.894,149.935" id="Fill-75" fill="#2557B7"></path>
                        <path d="M211.476,133.431 L218.445,139.378 C218.157,140.512 217.934,141.663 217.854,142.782 C215.224,142.402 211.612,139.516 211.333,136.763 C211.194,135.39 211.251,134.071 211.476,133.431" id="Fill-76" fill="#E16F62"></path>
                        <path d="M205.949,113.067 C204.758,123.321 204.034,127.635 208.226,133.758 C214.53,142.967 227.385,142.188 231.617,132.496 C235.425,123.773 236.734,108.47 227.528,102.658 C218.458,96.931 207.141,102.813 205.949,113.067" id="Fill-77" fill="#E88274"></path>
                        <path d="M229.441,96.141 C212.487,89.446 199.755,96.995 197.126,107.723 C193.043,124.387 206.193,125.557 206.193,125.557 L207.835,121.302 C210.209,122.724 216.888,122.095 214.806,109.727 C213.626,102.724 222.49,112.474 233.73,111.391 C236.752,111.099 240.838,100.641 229.441,96.141" id="Fill-78" fill="#151F35"></path>
                        <path d="M235.212,100.262 C232.976,96.826 228.416,93.891 218.971,92.502 C218.971,92.502 223.876,93.605 225.472,97.196 C227.068,100.787 237.899,104.39 235.212,100.262" id="Fill-79" fill="#151F35"></path>
                        <path d="M202.737,121.936 C202.569,124.07 203.402,126.082 204.565,127.4 C206.316,129.384 208.624,128.165 209.339,125.762 C209.982,123.6 209.846,119.962 207.511,118.862 C205.211,117.778 202.929,119.497 202.737,121.936" id="Fill-80" fill="#E88274"></path>
                        <path d="M236.568,216.37 C236.568,216.37 306.308,222.852 305.626,254.572 C304.917,287.564 297.855,328.784 297.855,328.784 L283.452,328.784 C283.452,328.784 282.22,293.903 281.805,261.421 C281.589,244.497 214.196,241.109 214.196,241.109 L205.497,216.37 L236.568,216.37" id="Fill-81" fill="#151F35"></path>
                        <path d="M225.412,216.37 C225.412,216.37 270.484,231.32 271.62,249.815 C273.714,283.879 258.738,328.784 258.738,328.784 L244.555,328.784 C244.555,328.784 245.358,298.988 247.054,268.128 C249.185,229.352 180.771,267.592 194.324,216.37 L225.412,216.37" id="Fill-82" fill="#151F35"></path>
                        <path d="M220.826,118.654 C220.679,119.48 220.997,120.227 221.536,120.324 C222.076,120.421 222.633,119.829 222.781,119.004 C222.929,118.178 222.611,117.43 222.071,117.333 C221.531,117.237 220.974,117.828 220.826,118.654" id="Fill-83" fill="#151F35"></path>
                        <path d="M230.161,120.324 C230.013,121.15 230.331,121.897 230.871,121.994 C231.411,122.091 231.968,121.499 232.116,120.674 C232.264,119.847 231.946,119.1 231.406,119.003 C230.866,118.907 230.309,119.498 230.161,120.324" id="Fill-84" fill="#151F35"></path>
                        <path d="M231.159,119.006 L233.245,118.789 C233.245,118.789 231.95,120.157 231.159,119.006" id="Fill-85" fill="#151F35"></path>
                        <path d="M227.44,121.302 C227.44,121.302 228.205,125.108 229.441,127.099 C228.168,127.921 226.398,127.125 226.398,127.125 L227.44,121.302" id="Fill-86" fill="#E05B58"></path>
                        <path d="M222.953,129.772 C222.944,129.772 222.935,129.771 222.925,129.769 C219.087,129.082 217.761,126.048 217.749,126.017 C217.714,125.938 217.752,125.845 217.832,125.812 C217.912,125.779 218.004,125.816 218.038,125.895 C218.05,125.924 219.315,128.804 222.981,129.46 C223.066,129.475 223.123,129.557 223.108,129.642 C223.094,129.718 223.028,129.772 222.953,129.772" id="Fill-87" fill="#151F35"></path>
                        <path d="M218.639,114.97 C218.554,114.97 218.47,114.935 218.408,114.868 C218.29,114.741 218.298,114.542 218.425,114.424 C220.357,112.64 222.477,113.148 222.567,113.171 C222.735,113.213 222.836,113.383 222.794,113.551 C222.753,113.72 222.582,113.824 222.415,113.78 C222.337,113.762 220.524,113.339 218.852,114.886 C218.791,114.942 218.715,114.97 218.639,114.97" id="Fill-88" fill="#151F35"></path>
                        <path d="M235.255,116.61 C235.134,116.61 235.019,116.539 234.967,116.421 C234.052,114.318 232.171,113.978 232.152,113.975 C231.98,113.946 231.865,113.784 231.894,113.613 C231.922,113.442 232.087,113.326 232.256,113.355 C232.347,113.371 234.494,113.759 235.543,116.17 C235.613,116.329 235.54,116.514 235.381,116.584 C235.34,116.601 235.297,116.61 235.255,116.61" id="Fill-89" fill="#151F35"></path>
                        <path d="M193.146,168.339 C192.24,171.307 191.26,174.38 190.395,177.419 C189.484,180.459 188.598,183.501 187.811,186.543 C187.037,189.585 186.272,192.616 185.71,195.588 C185.438,197.069 185.189,198.536 185.045,199.914 C184.968,200.607 184.933,201.258 184.916,201.862 C184.913,201.994 184.894,201.823 184.816,201.628 C184.732,201.441 184.551,201.104 184.324,200.902 C183.814,200.454 183.62,200.537 183.854,200.606 C184.065,200.685 184.572,200.738 185.126,200.734 C186.262,200.73 187.672,200.515 189.078,200.223 C191.932,199.644 194.907,198.714 197.869,197.719 C203.783,195.671 209.776,193.276 215.621,190.785 L218.2,195.502 C212.631,199.112 206.951,202.357 200.868,205.176 C197.822,206.583 194.701,207.871 191.284,208.905 C189.553,209.394 187.779,209.844 185.681,210.038 C184.622,210.123 183.497,210.171 182.116,209.949 C181.418,209.824 180.683,209.663 179.848,209.293 C179.03,208.929 178.134,208.402 177.347,207.581 C175.702,205.977 175.128,203.557 175.118,202.178 C175.067,201.165 175.062,200.196 175.099,199.275 C175.168,197.424 175.338,195.678 175.574,193.963 C176.048,190.546 176.671,187.249 177.433,184.004 C178.184,180.759 178.997,177.553 179.886,174.376 C180.825,171.199 181.737,168.082 182.854,164.901 L193.146,168.339" id="Fill-90" fill="#E88274"></path>
                        <path d="M186.835,153.291 C182.604,154.578 177.521,169.151 177.521,169.151 L191.167,182.474 C191.167,182.474 199.928,168.725 198.15,163.255 C196.297,157.558 191.666,151.823 186.835,153.291" id="Fill-91" fill="#00AAFF"></path>
                        <path d="M256.574,342.774 C258.495,343.18 259.953,343.126 260.515,342.612 C260.757,342.391 260.848,342.084 260.789,341.673 C260.763,341.486 260.685,341.369 260.543,341.304 C259.783,340.963 257.672,342.098 256.574,342.774 Z M258.82,343.394 C257.866,343.394 256.818,343.195 256.086,343.022 C256.019,343.006 255.967,342.951 255.954,342.883 C255.942,342.814 255.972,342.745 256.03,342.707 C256.384,342.475 259.503,340.457 260.686,340.987 C260.936,341.1 261.092,341.321 261.135,341.624 C261.209,342.15 261.079,342.569 260.749,342.87 C260.32,343.261 259.602,343.394 258.82,343.394 Z" id="Fill-92" fill="#4968A3"></path>
                        <path d="M257.895,338.81 C257.675,338.81 257.48,338.887 257.303,339.045 C256.513,339.744 256.346,341.73 256.31,342.521 C257.279,341.795 258.645,339.979 258.483,339.171 C258.458,339.041 258.381,338.863 258.016,338.818 C257.975,338.813 257.934,338.81 257.895,338.81 Z M256.126,343.026 C256.096,343.026 256.065,343.018 256.038,343.003 C255.984,342.971 255.952,342.914 255.952,342.852 C255.952,342.726 255.965,339.763 257.072,338.784 C257.355,338.532 257.678,338.427 258.059,338.472 C258.602,338.539 258.775,338.851 258.825,339.102 C259.041,340.18 257.305,342.385 256.212,343.004 C256.186,343.019 256.155,343.026 256.126,343.026 Z" id="Fill-93" fill="#4968A3"></path>
                        <path d="M296.887,342.775 C298.232,343.009 300.896,343.339 301.813,342.513 C302.052,342.299 302.152,342.021 302.12,341.664 C302.106,341.511 302.043,341.407 301.92,341.34 C301.104,340.893 298.338,342.067 296.887,342.775 Z M299.579,343.396 C298.439,343.396 297.194,343.199 296.312,343.023 C296.24,343.009 296.185,342.95 296.174,342.877 C296.164,342.803 296.2,342.732 296.267,342.698 C296.731,342.456 300.844,340.356 302.087,341.034 C302.311,341.157 302.443,341.364 302.468,341.633 C302.51,342.1 302.368,342.483 302.046,342.772 C301.526,343.24 300.594,343.396 299.579,343.396 Z" id="Fill-94" fill="#4968A3"></path>
                        <path d="M298.823,338.81 C298.493,338.81 298.199,338.922 297.927,339.148 C296.994,339.926 296.656,341.802 296.557,342.551 C297.872,341.813 299.658,339.934 299.532,339.164 C299.52,339.091 299.484,338.87 298.979,338.818 C298.927,338.813 298.874,338.81 298.823,338.81 Z M296.347,343.026 C296.311,343.026 296.276,343.015 296.246,342.995 C296.196,342.959 296.168,342.9 296.173,342.839 C296.183,342.72 296.42,339.951 297.704,338.881 C298.089,338.56 298.527,338.423 299.015,338.472 C299.652,338.537 299.835,338.853 299.876,339.107 C300.063,340.257 297.642,342.459 296.418,343.011 C296.395,343.021 296.371,343.026 296.347,343.026 Z" id="Fill-95" fill="#4968A3"></path>
                        <path d="M215.427,190.903 L225.293,188.403 L220.593,197.879 C220.593,197.879 213.92,198.163 211.717,194.443 L215.427,190.903" id="Fill-96" fill="#E88274"></path>
                        <polyline id="Fill-97" fill="#E88274" points="233.263 192.002 228.898 199.722 220.593 197.879 225.293 188.403 233.263 192.002"></polyline>
                        <path d="M221.825,117.336 L223.91,117.119 C223.91,117.119 222.616,118.487 221.825,117.336" id="Fill-98" fill="#151F35"></path>
                        <path d="M193.691,213.89 L193.355,217.672 C193.207,217.966 193.554,218.264 194.043,218.264 L236.776,218.264 C237.158,218.264 237.473,218.078 237.497,217.839 L237.878,214.057 C237.904,213.795 237.574,213.573 237.158,213.573 L194.379,213.573 C194.065,213.573 193.787,213.702 193.691,213.89" id="Fill-99" fill="#285596"></path>
                        <path d="M199.437,218.674 L198.291,218.674 C198.063,218.674 197.889,218.556 197.905,218.413 L198.442,213.5 C198.458,213.356 198.658,213.238 198.886,213.238 L200.031,213.238 C200.259,213.238 200.433,213.356 200.417,213.5 L199.88,218.413 C199.865,218.556 199.665,218.674 199.437,218.674" id="Fill-100" fill="#151F35"></path>
                        <path d="M233.557,218.674 L232.411,218.674 C232.183,218.674 232.009,218.556 232.025,218.413 L232.562,213.5 C232.578,213.356 232.777,213.238 233.005,213.238 L234.151,213.238 C234.379,213.238 234.553,213.356 234.538,213.5 L234,218.413 C233.984,218.556 233.785,218.674 233.557,218.674" id="Fill-101" fill="#151F35"></path>
                        <path d="M216.497,218.674 L215.351,218.674 C215.123,218.674 214.949,218.556 214.965,218.413 L215.502,213.5 C215.518,213.356 215.717,213.238 215.946,213.238 L217.091,213.238 C217.319,213.238 217.493,213.356 217.478,213.5 L216.94,218.413 C216.924,218.556 216.725,218.674 216.497,218.674" id="Fill-102" fill="#151F35"></path>
                        <polygon id="Fill-103" fill="#D9EDF4" points="334.096 360.734 413.656 360.734 413.656 205.98 334.096 205.98"></polygon>
                        <polygon id="Fill-106" fill="#AECFE3" points="410.076 360.734 416.637 360.734 416.637 205.98 410.076 205.98"></polygon>
                        <polygon id="Fill-107" fill="#7CAAC6" points="260.483 217.588 418.669 217.588 418.669 205.98 260.483 205.98"></polygon>
                        <polygon id="Fill-108" fill="#D9EDF4" points="179.975 360.734 259.535 360.734 259.535 205.98 179.975 205.98"></polygon>
                        <polygon id="Fill-109" fill="#AECFE3" points="255.955 360.734 262.516 360.734 262.516 205.98 255.955 205.98"></polygon>
                        <polygon id="Fill-110" fill="#AECFE3" points="260.1 242.996 413.356 242.996 413.356 209.561 260.1 209.561"></polygon>
                        <path d="M413.699,365.224 L369.526,365.224 C363.292,365.224 358.22,360.152 358.22,353.917 L358.22,214.601 C358.22,209.082 353.729,204.592 348.21,204.592 L335,204.592 L335,203.592 L348.21,203.592 C354.281,203.592 359.22,208.531 359.22,214.601 L359.22,353.917 C359.22,359.6 363.844,364.224 369.526,364.224 L413.699,364.224 C415.6,364.224 416.695,362.96 417.086,361.777 C417.478,360.594 417.353,358.926 415.826,357.792 L416.422,356.989 C418.032,358.184 418.665,360.187 418.036,362.091 C417.406,363.995 415.704,365.224 413.699,365.224" id="Fill-111" fill="#7FA5BB"></path>
                        <polyline id="Fill-112" fill="#91B4D4" points="346.896 159.78 272.761 159.78 262.016 203.557 336.151 203.557 346.896 159.78"></polyline>
                        <polyline id="Fill-113" fill="#00699E" points="349.178 159.78 275.042 159.78 264.298 203.557 338.433 203.557 349.178 159.78"></polyline>
                        <polyline id="Fill-114" fill="#05486A" points="338.433 203.557 338.133 205.977 263.994 205.977 264.294 203.557 338.433 203.557"></polyline>
                        <polyline id="Fill-115" fill="#91B4D4" points="264.294 203.557 263.994 205.977 234.896 205.977 235.196 203.557 264.294 203.557"></polyline>
                    </g>
                    <g id="Ресурс-1" transform="translate(10.000000, 33.000000)">
                        <path d="M170.782681,12.2643066 L170.785869,12.262502 L168.834944,9 L166.533492,9.62993847 L167.017585,11.7040065 L105.356517,11.7040065 C104.321967,11.761992 103.433884,12.4613409 103.133561,13.4545451 L78.2933667,104.740191 L77.1058649,104.435633 L76,105.430652 L77.6233612,108.149975 C77.6783701,108.314476 77.7680737,108.465199 77.886383,108.591912 L77.9044475,108.620832 L77.910315,108.618148 C78.1689092,108.871636 78.5190975,109.009246 78.8808112,108.999517 L143.188026,108.999517 C144.222271,108.941745 145.110193,108.242729 145.410521,107.249858 L170.934719,13.4545451 C171.059346,13.0545398 171.00384,12.6200072 170.782681,12.2643066 Z" id="Path" fill="#E5EDEF"></path>
                        <path d="M170.782681,12.2643066 L170.785869,12.262502 L168.834944,9 L166.533492,9.62993847 L167.017585,11.7040065 L105.356517,11.7040065 C104.321967,11.761992 103.433884,12.4613409 103.133561,13.4545451 L78.2933667,104.740191 L77.1058649,104.435633 L76,105.430652 L77.6233612,108.149975 C77.6783701,108.314476 77.7680737,108.465199 77.886383,108.591912 L77.9044475,108.620832 L77.910315,108.618148 C78.1689092,108.871636 78.5190975,109.009246 78.8808112,108.999517 L143.188026,108.999517 C144.222271,108.941745 145.110193,108.242729 145.410521,107.249858 L170.934719,13.4545451 C171.059346,13.0545398 171.00384,12.6200072 170.782681,12.2643066 Z" id="Path" fill="#E5EDEF"></path>
                        <path d="M168.917354,11.7276967 C169.070028,11.32536 169.008662,10.8737148 168.754074,10.5259824 C168.499487,10.1782501 168.085851,9.98110598 167.653494,10.0014317 L103.684025,10.0014317 C102.654842,10.0579708 101.771081,10.7477423 101.47227,11.7276967 L76.0828857,104.272245 C75.9299618,104.674512 75.991156,105.126227 76.2456922,105.474025 C76.5002283,105.821823 76.9139097,106.018979 77.3462861,105.998555 L141.317079,105.998555 C142.345666,105.940944 143.228619,105.251498 143.527914,104.272245 L168.917354,11.7276967 Z" id="Path" fill="#FFFFFF"></path>
                        <polygon id="Path" fill-opacity="0.3" fill="#AECFE3" style="mix-blend-mode: multiply;" points="161.398764 19 105 19 105.600775 17 162 17"></polygon>
                        <polygon id="Path" fill-opacity="0.3" fill="#AECFE3" style="mix-blend-mode: multiply;" points="158.399225 29 102 29 102.601696 27 159 27"></polygon>
                        <polygon id="Path" fill-opacity="0.3" fill="#AECFE3" style="mix-blend-mode: multiply;" points="156.39968 39 100 39 100.601241 37 157 37"></polygon>
                        <polygon id="Path" fill-opacity="0.3" fill="#AECFE3" style="mix-blend-mode: multiply;" points="152.39922 49 96 49 96.6017009 47 153 47"></polygon>
                        <polygon id="Path" fill-opacity="0.3" fill="#AECFE3" style="mix-blend-mode: multiply;" points="150.39921 58 94 58 94.6007899 56 151 56"></polygon>
                        <polygon id="Path" fill-opacity="0.3" fill="#AECFE3" style="mix-blend-mode: multiply;" points="147.39922 69 91 69 91.6012406 67 148 67"></polygon>
                        <polygon id="Path" fill-opacity="0.3" fill="#AECFE3" style="mix-blend-mode: multiply;" points="144.39922 79 88 79 88.6012406 77 145 77"></polygon>
                        <polygon id="Path" fill-opacity="0.3" fill="#AECFE3" style="mix-blend-mode: multiply;" points="142.39921 88 86 88 86.6003295 86 143 86"></polygon>
                        <polygon id="Path" fill-opacity="0.3" fill="#AECFE3" style="mix-blend-mode: multiply;" points="139.398309 99 83 99 83.6012309 97 140 97"></polygon>
                        <path d="M150.782761,20.2660516 L150.785903,20.2633679 L148.835901,17 L146.533986,17.6317315 L147.017617,19.7057618 L85.3565708,19.7057618 C84.3218815,19.7634058 83.4336138,20.4628733 83.1335675,21.4562685 L58.2933673,112.739372 L57.1058651,112.435698 L56,113.4307 L57.6233616,116.149093 C57.6783121,116.313983 57.7681911,116.465033 57.8868454,116.591902 L57.903986,116.621747 L57.9112395,116.618138 C58.1695517,116.871766 58.5196651,117.00941 58.881274,116.9995 L123.188053,116.9995 C124.22241,116.941753 125.110479,116.242779 125.41101,115.249872 L150.934799,21.4562685 C151.059307,21.05626 151.003807,20.621786 150.782761,20.2660516 Z" id="Path" fill="#E5EDEF"></path>
                        <path d="M150.782761,20.2660516 L150.785903,20.2633679 L148.835901,17 L146.533986,17.6317315 L147.017617,19.7057618 L85.3565708,19.7057618 C84.3218815,19.7634058 83.4336138,20.4628733 83.1335675,21.4562685 L58.2933673,112.739372 L57.1058651,112.435698 L56,113.4307 L57.6233616,116.149093 C57.6783121,116.313983 57.7681911,116.465033 57.8868454,116.591902 L57.903986,116.621747 L57.9112395,116.618138 C58.1695517,116.871766 58.5196651,117.00941 58.881274,116.9995 L123.188053,116.9995 C124.22241,116.941753 125.110479,116.242779 125.41101,115.249872 L150.934799,21.4562685 C151.059307,21.05626 151.003807,20.621786 150.782761,20.2660516 Z" id="Path" fill="#E5EDEF"></path>
                        <path d="M147.917463,18.726842 C148.069992,18.3246753 148.008604,17.8732623 147.754118,17.5257159 C147.499633,17.1781694 147.086202,16.9811293 146.654056,17.0014289 L82.683797,17.0014289 C81.6549854,17.0582179 80.7714792,17.7474468 80.4720306,18.726842 L55.0829746,111.273092 C54.9299351,111.675267 54.9911093,112.126965 55.2457052,112.474662 C55.5003011,112.822359 55.9140705,113.019284 56.3463815,112.998505 L120.317054,112.998505 C121.34579,112.941785 122.229196,112.252491 122.528361,111.273092 L147.917463,18.726842 Z" id="Path" fill="#FFFFFF"></path>
                        <polygon id="Path" fill-opacity="0.5" fill="#AECFE3" style="mix-blend-mode: multiply;" points="140.398769 26 84 26 84.6016912 24 141 24"></polygon>
                        <polygon id="Path" fill-opacity="0.5" fill="#AECFE3" style="mix-blend-mode: multiply;" points="138.399675 36 82 36 82.6012454 34 139 34"></polygon>
                        <polygon id="Path" fill-opacity="0.5" fill="#AECFE3" style="mix-blend-mode: multiply;" points="135.39922 46 79 46 79.6017009 44 136 44"></polygon>
                        <polygon id="Path" fill-opacity="0.5" fill="#AECFE3" style="mix-blend-mode: multiply;" points="132.39968 56 76 56 76.6017009 54 133 54"></polygon>
                        <polygon id="Path" fill-opacity="0.5" fill="#AECFE3" style="mix-blend-mode: multiply;" points="130.398755 66 74 66 74.6003247 64 131 64"></polygon>
                        <polygon id="Path" fill-opacity="0.5" fill="#AECFE3" style="mix-blend-mode: multiply;" points="127.398755 76 71 76 71.6007851 74 128 74"></polygon>
                        <polygon id="Path" fill-opacity="0.5" fill="#AECFE3" style="mix-blend-mode: multiply;" points="124.400131 86 68 86 68.6007899 84 125 84"></polygon>
                        <polygon id="Path" fill-opacity="0.5" fill="#AECFE3" style="mix-blend-mode: multiply;" points="121.39922 95 65 95 65.6007802 93 122 93"></polygon>
                        <polygon id="Path" fill-opacity="0.5" fill="#AECFE3" style="mix-blend-mode: multiply;" points="119.398764 106 63 106 63.6012357 104 120 104"></polygon>
                        <path d="M129.762411,4.55915441 L129.765601,4.55735655 L127.630635,1 L125.11104,1.68788714 L125.640181,3.94871335 L58.1371115,3.94871335 C57.004841,4.01165026 56.0327063,4.77348569 55.7037343,5.85568475 L28.5101181,105.356286 L27.209916,105.024052 L26,106.10991 L27.777382,109.073929 C27.8371503,109.25346 27.9354513,109.417839 28.0654374,109.555616 L28.0848075,109.587147 L28.0916033,109.583551 C28.3747038,109.859753 28.7579345,110.009815 29.1538626,109.999501 L99.553482,109.999501 C100.685654,109.936573 101.657657,109.174696 101.986397,108.09253 L129.928097,5.85568475 C130.065033,5.42008592 130.004524,4.94658703 129.762411,4.55915441 Z" id="Path" fill="#E5EDEF"></path>
                        <path d="M129.762411,4.55915441 L129.765601,4.55735655 L127.630635,1 L125.11104,1.68788714 L125.640181,3.94871335 L58.1371115,3.94871335 C57.004841,4.01165026 56.0327063,4.77348569 55.7037343,5.85568475 L28.5101181,105.356286 L27.209916,105.024052 L26,106.10991 L27.777382,109.073929 C27.8371503,109.25346 27.9354513,109.417839 28.0654374,109.555616 L28.0848075,109.587147 L28.0916033,109.583551 C28.3747038,109.859753 28.7579345,110.009815 29.1538626,109.999501 L99.553482,109.999501 C100.685654,109.936573 101.657657,109.174696 101.986397,108.09253 L129.928097,5.85568475 C130.065033,5.42008592 130.004524,4.94658703 129.762411,4.55915441 Z" id="Path" fill="#E5EDEF" style="mix-blend-mode: multiply;"></path>
                        <path d="M127.90931,1.90761531 C128.076845,1.46328846 128.009501,0.964471665 127.730139,0.580487098 C127.450777,0.19650253 126.996919,-0.0210734909 126.522627,0.00161469638 L56.3627752,0.00161469638 C55.234236,0.0644777858 54.2652496,0.825903569 53.9372089,1.90761531 L26.0904896,104.092415 C25.9231883,104.536738 25.9906303,105.035423 26.269942,105.419338 C26.5492538,105.803254 27.0029562,106.020883 27.4771725,105.998416 L97.637946,105.998416 C98.7662287,105.935169 99.734873,105.173853 100.063006,104.092415 L127.90931,1.90761531 Z" id="Path" fill="#FFFFFF"></path>
                        <polygon id="Path" fill="#AECFE3" style="mix-blend-mode: multiply;" points="120.335863 10 58 10 58.6646021 8 121 8"></polygon>
                        <polygon id="Path" fill="#AECFE3" style="mix-blend-mode: multiply;" points="116.336793 21 54 21 54.6636719 19 117 19"></polygon>
                        <polygon id="Path" fill="#AECFE3" style="mix-blend-mode: multiply;" points="113.336333 32 51 32 51.6645972 30 114 30"></polygon>
                        <polygon id="Path" fill="#AECFE3" style="mix-blend-mode: multiply;" points="111.336798 43 49 43 49.6645972 41 112 41"></polygon>
                        <polygon id="Path" fill="#AECFE3" style="mix-blend-mode: multiply;" points="108.336323 54 46 54 46.6636768 52 109 52"></polygon>
                        <polygon id="Path" fill="#AECFE3" style="mix-blend-mode: multiply;" points="104.335408 65 42 65 42.6641272 63 105 63"></polygon>
                        <polygon id="Path" fill="#AECFE3" style="mix-blend-mode: multiply;" points="101.336318 75 39 75 39.6632166 73 102 73"></polygon>
                        <polygon id="Path" fill="#AECFE3" style="mix-blend-mode: multiply;" points="99.3358679 87 37 87 37.6641321 85 100 85"></polygon>
                        <polygon id="Path" fill="#AECFE3" style="mix-blend-mode: multiply;" points="96.3353979 97 34 97 34.664137 95 97 95"></polygon>
                        <path d="M109.751196,5.75493162 L109.754778,5.75313357 L107.516651,2 L104.875724,2.72576749 L105.430548,5.11109075 L34.6821473,5.11109075 C33.4953019,5.17786303 32.47641,5.98175736 32.1313797,7.12361792 L3.6306384,112.100017 L2.26842553,111.750642 L1,112.895171 L2.86228953,116.02249 C2.92486393,116.211813 3.02788036,116.38513 3.16413595,116.530325 L3.18434478,116.564534 L3.19196902,116.560062 C3.48866372,116.851783 3.89048647,117.010326 4.30565922,116.999478 L78.0896467,116.999478 C79.2763996,116.932702 80.2951686,116.128775 80.6400009,114.986951 L109.925212,7.12361792 C110.067951,6.66366896 110.004441,6.16415093 109.751196,5.75493162 Z" id="Path" fill="#2557B7"></path>
                        <path d="M109.751196,5.75493162 L109.754778,5.75313357 L107.516651,2 L104.875724,2.72576749 L105.430548,5.11109075 L34.6821473,5.11109075 C33.4953019,5.17786303 32.47641,5.98175736 32.1313797,7.12361792 L3.6306384,112.100017 L2.26842553,111.750642 L1,112.895171 L2.86228953,116.02249 C2.92486393,116.211813 3.02788036,116.38513 3.16413595,116.530325 L3.18434478,116.564534 L3.19196902,116.560062 C3.48866372,116.851783 3.89048647,117.010326 4.30565922,116.999478 L78.0896467,116.999478 C79.2763996,116.932702 80.2951686,116.128775 80.6400009,114.986951 L109.925212,7.12361792 C110.067951,6.66366896 110.004441,6.16415093 109.751196,5.75493162 Z" id="Path" fill="#2557B7"></path>
                        <path d="M107.903931,3.01531396 C108.081367,2.54589302 108.010094,2.01886734 107.714312,1.61318307 C107.418531,1.2074988 106.937981,0.97766429 106.435831,1.00171748 L32.1482788,1.00171748 C30.9534339,1.06804701 29.9274719,1.87246529 29.5801205,3.01531396 L0.0961725653,110.983829 C-0.0813730307,111.453346 -0.0101730957,111.980515 0.285600377,112.386364 C0.58137385,112.792214 1.06198649,113.022222 1.56427292,112.998302 L75.8513067,112.998302 C77.0462977,112.931607 78.0722081,112.126879 78.419465,110.983829 L107.903931,3.01531396 Z" id="Path" fill="#00AAFF"></path>
                        <polygon id="Path" fill="#4385F5" points="99.3035324 13 34 13 34.6969294 11 100 11"></polygon>
                        <polygon id="Path" fill="#4385F5" points="96.3048985 21 31 21 31.6951015 19 97 19"></polygon>
                        <polygon id="Path" fill="#4385F5" points="94.3048985 29 29 29 29.6960252 27 95 27"></polygon>
                        <polygon id="Path" fill="#4385F5" points="91.3044415 37 26 37 26.6955585 35 92 35"></polygon>
                        <polygon id="Path" fill="#4385F5" points="90.3044464 46 25 46 25.6960155 44 91 44"></polygon>
                        <polygon id="Path" fill="#4385F5" points="87.3035178 54 22 54 22.6955585 52 88 52"></polygon>
                        <polygon id="Path" fill="#4385F5" points="85.3044415 62 20 62 20.6955585 60 86 60"></polygon>
                        <polygon id="Path" fill="#4385F5" points="83.3048985 70 18 70 18.6955633 68 84 68"></polygon>
                        <polygon id="Path" fill="#4385F5" points="81.3035227 78 16 78 16.6960155 76 82 76"></polygon>
                        <path d="M19.1495837,100 C18.4002408,100 17.8958638,99.7858915 17.6418406,99.3612205 C17.2807551,98.7543077 17.5044014,97.7837978 18.2723235,96.6265204 C19.7646459,94.3775184 23.0676908,91.775837 25.8015174,91.4951491 C26.7908098,91.393997 27.5065709,91.4951491 27.9692378,91.8040644 C28.4091721,90.8954416 28.7195936,89.9291385 28.8913667,88.9335927 C29.1249528,87.405393 29.0047923,84.8420169 25.5742481,84.8420169 C17.9167189,84.8420169 13.8747354,93.7432646 13.8343723,93.8334524 C13.7347542,94.0596073 13.5031551,94.1972578 13.2578617,94.1761006 C13.1547367,94.1554506 13.0682542,94.0853033 13.0264363,93.9883877 C12.9846184,93.891472 12.9927847,93.7801165 13.0482891,93.6904024 C13.0918572,93.5928895 17.4481531,84 25.8023999,84 C28.7806815,84 30.219496,85.7623706 29.7500013,88.8342602 C29.525131,90.1091715 29.1023868,91.3407138 28.4972103,92.4839019 C28.7548565,93.2119827 28.4668335,94.1851987 28.2286954,94.9917097 C27.9810356,95.8337265 27.8372331,96.3932359 28.1011961,96.478898 C28.3833667,96.572725 28.7344194,96.1143677 29.3699187,95.1229088 C30.0194452,94.110501 30.9071562,92.7271709 32.0601772,93.1727909 C33.0467292,93.5564505 32.4393774,94.6945986 32.0760624,95.3762557 C31.9673007,95.5660578 31.872106,95.7633848 31.7911978,95.9667453 C32.2524713,95.9931531 32.5613958,95.6687478 33.0439888,95.1210892 C33.513948,94.5852815 34.1593871,93.8498756 35.0588494,93.9902195 C35.3123815,93.9999601 35.5377557,94.1552426 35.6381004,94.3893226 C35.7709876,94.7584252 35.5133879,95.2122101 35.3060912,95.5776269 C35.2324878,95.7001803 35.1657018,95.8267367 35.1060404,95.9567141 C35.1354892,95.9608382 35.1652119,95.9626633 35.1949416,95.9621729 C35.6339232,95.8289498 36.0502253,95.6295525 36.4296179,95.3707969 C37.4851449,94.7629509 38.9307409,93.9300788 40.6362124,93.7642136 C40.7387172,93.7450896 40.8438886,93.7794215 40.9156186,93.8554223 C40.9873486,93.9314232 41.0158732,94.0387475 40.991399,94.140548 C40.9394157,94.3849143 40.7392679,94.5695302 40.4924564,94.6007716 C39.0037569,94.7465744 37.7328048,95.4782943 36.711324,96.0678974 C35.9950984,96.478898 35.4308037,96.8033033 34.9658608,96.8033033 C34.6061688,96.8033033 34.3712357,96.6957592 34.2709548,96.4816041 C34.1117781,96.139889 34.3540035,95.7125119 34.5689641,95.3361308 C34.667172,95.1818724 34.7466665,95.0163722 34.8057552,94.8431541 C34.7749346,94.8325859 34.7429417,94.8258482 34.7104907,94.8230917 C34.3739297,94.7720957 34.1349091,94.9953489 33.6391249,95.5603172 C33.1383708,96.1298578 32.4529866,96.9026358 31.4337353,96.8014837 C31.2259144,96.8003828 31.0376974,96.6780011 30.9516068,96.4879961 C30.8041814,96.1353166 31.0563467,95.6624024 31.3244435,95.160281 C31.7766597,94.3128053 31.8256621,94.06767 31.566669,93.967451 C31.1788296,93.8179623 30.8100802,94.2708607 30.0756935,95.4154475 C29.4461396,96.3977616 28.6623324,97.6179792 27.6408052,97.2853623 C26.7962442,97.0064941 27.1014994,95.9722042 27.3976972,94.9725337 C27.5006721,94.6199009 27.6072698,94.2617626 27.670764,93.9282592 C25.8945059,96.7231001 23.2427991,99.2063197 20.5629913,99.8150521 C20.1001589,99.9292567 19.6260968,99.9912889 19.1495837,100 Z M26.2591679,92.2997938 C26.0777427,92.2997938 25.8776918,92.3107582 25.6622668,92.3325936 C23.3244544,92.5722701 20.3144025,94.9051145 18.9681585,96.9354356 C18.4129211,97.7738132 18.2142637,98.4563102 18.4243008,98.80717 C18.6533351,99.1953553 19.4230686,99.2628212 20.5883518,98.9985566 C23.2137692,98.3998554 25.9226069,95.6095402 27.5246856,92.6816338 C27.1742176,92.3828275 26.7155419,92.244433 26.2591679,92.2997938 Z" id="Shape" fill="#F5F5F5" fill-rule="nonzero"></path>
                        <polygon id="Path" fill="#FFFFFF" points="16.4033271 106 9 106 9.59711358 104 17 104"></polygon>
                        <polygon id="Path" fill="#FFFFFF" points="38.3712325 106 18 106 18.6287675 104 39 104"></polygon>
                        <path d="M64.3696546,101.001526 L52.9633482,101.001526 C52.4920088,101.021518 52.0832718,101.332797 51.9397506,101.781058 L49.2126016,111.765744 C49.0834725,112.285367 49.0121745,112.817608 49,113.35282 L49,127 L55.5128031,120.984417 L62.026024,127 L62.026024,113.35282 C62.0381484,112.817576 62.109605,112.285312 62.2390898,111.765744 L64.966703,101.781058 C65.0324488,101.594551 64.9995697,101.387557 64.8792451,101.230456 C64.7589205,101.073355 64.567344,100.987291 64.3696546,101.001526 Z" id="Path" fill="#2557B7"></path>
                        <path d="M74.9573563,93.4999995 C74.5810394,94.8974587 71.8226817,95.8775108 71.0789936,97.1388388 C70.3088812,98.4464886 71.1300531,100.72146 70.0561988,101.809488 C68.9706921,102.908388 66.568512,102.226012 65.2688584,103.02547 C63.9817288,103.817633 63.1000471,106.522742 61.6946963,106.946514 C60.3399003,107.356674 59.2118211,105.273215 57.8319771,105.273215 C56.4521331,105.273215 54.2022597,107.356674 53.0679415,106.946514 C51.8914637,106.522742 52.4653665,103.817633 51.60387,103.02547 C50.7342536,102.226012 47.965161,102.908388 47.4714486,101.809488 C46.982232,100.72146 49.0287392,98.4464886 48.9624032,97.1388388 C48.8970305,95.8775108 46.6664249,94.8974587 47.0427418,93.4999995 C47.4190588,92.101611 50.1774164,91.1206762 50.9206458,89.8602309 C51.691217,88.5535104 50.8691276,86.2776561 51.9438994,85.1896283 C53.0294061,84.0907286 55.4307145,84.7731039 56.7312398,83.9745756 C58.0183694,83.1823661 58.8995923,80.4772571 60.3040715,80.0534847 C61.6597391,79.6433254 62.7882312,81.7268304 64.1676623,81.7268304 C65.548378,81.7268304 67.7973797,79.6433254 68.9326154,80.0534847 C70.1090474,80.4772571 69.5351904,83.1823661 70.3962282,83.9745756 C71.2653859,84.7749158 74.0344784,84.0907286 74.5286037,85.1896283 C75.0174074,86.2776561 72.9709002,88.5535104 73.0385666,89.8602309 C73.1026089,91.1206762 75.3332145,92.101611 74.9573563,93.4999995 Z" id="Path" fill="#F5F5F5"></path>
                        <polygon id="Path" fill="url(#linearGradient-3)" points="62.386141 87 63.3538829 91.2788945 68 91.9652907 63.5703704 95.2964824 63.0833931 100 59.3772999 97.7788945 54.4310633 100 56.5701314 95.2964824 54 91.9652907 59.0289128 91.2788945"></polygon>
                    </g>
                </g>
            </g>
        </g>
    </g>
</svg>