<svg xmlns="http://www.w3.org/2000/svg" width="156" height="150" viewBox="0 0 156 150"><g><g><g><g><path fill="#1565c0" d="M89.778.918a3.249 3.249 0 0 0-2.756-.65L2.522 19.78A3.252 3.252 0 0 0 0 22.98v110.57c0 1.604 1.171 2.968 2.756 3.212l84.5 13.009A3.25 3.25 0 0 0 91 146.558V3.468a3.251 3.251 0 0 0-1.222-2.55z"/></g><g><path fill="#1565c0" d="M152.75 136.797h-65a3.251 3.251 0 0 1-3.25-3.252 3.251 3.251 0 0 1 3.25-3.252h61.75V19.724H87.75a3.251 3.251 0 0 1 0-6.504h65a3.251 3.251 0 0 1 3.25 3.252v117.073a3.25 3.25 0 0 1-3.25 3.252z"/></g></g><g><path fill="#fafafa" d="M54.618 104a3.271 3.271 0 0 1-3.145-2.35l-9.959-34.507-9.959 34.508c-.72 1.722-2.712 2.54-4.45 1.828a3.39 3.39 0 0 1-1.846-1.828L12.155 56.229c-.548-1.708.405-3.532 2.129-4.075 1.724-.544 3.566.4 4.115 2.108.02.06.037.121.053.182l9.958 34.502 9.96-34.508c.718-1.722 2.711-2.54 4.45-1.828.836.342 1.5 1 1.846 1.828l9.952 34.508 9.959-34.501c.471-1.708 2.251-2.714 3.975-2.247l.074.02c1.738.494 2.744 2.289 2.247 4.01l-13.104 45.423A3.272 3.272 0 0 1 54.618 104z"/></g><g><g><path fill="#1565c0" d="M140.534 39.556H88.36c-1.801 0-3.261-1.443-3.261-3.223 0-1.78 1.46-3.223 3.26-3.223h52.174c1.8 0 3.26 1.443 3.26 3.223 0 1.78-1.46 3.223-3.26 3.223z"/></g><g><path fill="#1565c0" d="M140.534 58.896H88.36c-1.801 0-3.261-1.443-3.261-3.223 0-1.78 1.46-3.223 3.26-3.223h52.174c1.8 0 3.26 1.443 3.26 3.223 0 1.78-1.46 3.223-3.26 3.223z"/></g><g><path fill="#1565c0" d="M140.534 78.236H88.36c-1.801 0-3.261-1.443-3.261-3.223 0-1.78 1.46-3.223 3.26-3.223h52.174c1.8 0 3.26 1.443 3.26 3.223 0 1.78-1.46 3.223-3.26 3.223z"/></g><g><path fill="#1565c0" d="M140.534 97.576H88.36c-1.801 0-3.261-1.443-3.261-3.223 0-1.78 1.46-3.223 3.26-3.223h52.174c1.8 0 3.26 1.443 3.26 3.223 0 1.78-1.46 3.223-3.26 3.223z"/></g><g><path fill="#1565c0" d="M140.534 116.916H88.36c-1.801 0-3.261-1.443-3.261-3.223 0-1.78 1.46-3.223 3.26-3.223h52.174c1.8 0 3.26 1.443 3.26 3.223 0 1.78-1.46 3.223-3.26 3.223z"/></g></g></g></g></svg>